<svg id="svg" version="1.1" xmlns="http://www.w3.org/2000/svg" xmlns:xlink="http://www.w3.org/1999/xlink" width="400" height="400" viewBox="0, 0, 400,400"><g id="svgg"><path id="path0" d="M100.500 100.551 C 46.105 154.963,1.600 199.731,1.600 200.035 C 1.600 200.801,199.252 398.397,200.019 398.399 C 200.815 398.400,398.163 201.056,398.311 200.111 C 398.387 199.627,381.216 182.199,344.511 145.505 C 314.860 115.863,270.352 71.358,245.604 46.605 C 220.857 21.852,200.337 1.604,200.004 1.610 C 199.672 1.615,154.895 46.139,100.500 100.551 M201.881 9.278 C 203.532 10.879,203.529 11.308,201.862 12.580 C 200.077 13.941,199.216 13.867,197.611 12.211 L 196.265 10.822 197.761 9.411 C 199.604 7.673,200.205 7.654,201.881 9.278 M194.130 15.430 C 196.150 17.160,197.209 18.357,197.226 18.930 C 197.451 26.569,197.159 382.140,196.927 382.540 C 196.447 383.369,191.127 387.642,190.737 387.512 C 190.070 387.288,3.200 200.197,3.200 199.753 C 3.200 199.501,3.788 198.847,4.506 198.299 C 5.225 197.751,47.335 155.789,98.084 105.051 C 148.834 54.313,190.514 12.800,190.708 12.800 C 190.902 12.800,192.442 13.983,194.130 15.430 M302.002 105.044 C 352.711 155.779,393.988 197.369,393.728 197.468 C 393.468 197.567,392.568 197.205,391.728 196.663 C 390.354 195.778,355.184 175.568,348.800 171.996 C 347.370 171.196,338.100 165.894,328.200 160.214 C 283.605 134.631,287.398 136.804,282.600 134.096 C 280.840 133.103,277.463 131.145,275.095 129.745 C 272.727 128.345,270.699 127.200,270.588 127.200 C 270.477 127.200,269.084 126.412,267.493 125.450 C 265.902 124.487,262.530 122.537,260.000 121.117 C 257.470 119.696,249.820 115.324,243.000 111.401 C 236.180 107.477,228.800 103.247,226.600 102.000 C 224.400 100.753,221.880 99.317,221.000 98.810 C 220.120 98.302,218.590 97.436,217.600 96.885 C 216.610 96.334,215.464 95.653,215.054 95.371 C 213.092 94.027,213.200 87.937,213.200 200.000 C 213.200 286.401,213.292 304.750,213.728 304.917 C 214.180 305.091,221.177 301.282,230.800 295.623 C 233.867 293.820,266.225 275.311,270.000 273.201 C 271.430 272.402,278.180 268.537,285.000 264.613 C 298.343 256.935,340.238 232.943,343.200 231.284 C 344.190 230.729,346.710 229.287,348.800 228.079 C 353.106 225.589,381.858 209.107,384.000 207.899 C 384.770 207.465,387.253 206.029,389.519 204.707 C 391.784 203.386,393.756 202.423,393.901 202.568 C 394.233 202.900,209.578 387.600,208.914 387.600 C 208.645 387.600,207.070 386.418,205.413 384.972 L 202.400 382.345 202.406 200.472 C 202.409 100.443,202.553 18.378,202.725 18.107 C 203.334 17.149,208.609 12.845,209.202 12.823 C 209.533 12.810,251.293 54.310,302.002 105.044 M264.233 161.217 C 276.250 163.336,281.061 165.507,279.939 168.305 C 279.422 169.596,279.177 170.224,277.978 173.336 C 276.871 176.208,276.567 176.336,273.915 175.041 C 266.434 171.386,255.031 170.339,248.003 172.662 C 236.930 176.323,230.919 186.198,230.511 201.400 C 230.036 219.083,236.931 230.304,249.926 232.994 C 254.753 233.993,267.451 233.482,268.695 232.238 C 268.863 232.071,269.027 225.570,269.060 217.793 C 269.093 210.015,269.239 203.460,269.384 203.226 C 269.840 202.488,279.811 202.669,280.571 203.429 C 281.310 204.167,281.541 238.616,280.816 239.970 C 280.350 240.841,276.697 241.840,270.600 242.763 C 269.060 242.996,266.615 243.370,265.167 243.593 C 236.673 247.995,217.566 231.589,217.607 202.754 C 217.646 174.823,238.093 156.608,264.233 161.217 M129.800 163.042 C 126.110 163.325,121.410 164.029,120.300 164.465 L 119.200 164.897 119.200 202.400 C 119.200 231.914,119.306 239.990,119.700 240.316 C 121.679 241.954,144.953 242.965,150.400 241.649 C 157.699 239.886,159.214 239.464,161.335 238.608 C 176.979 232.289,185.878 215.216,183.175 196.707 C 179.505 171.571,162.064 160.571,129.800 163.042 M149.000 172.178 C 163.102 174.720,170.490 182.823,172.222 197.648 C 174.138 214.056,167.519 226.983,154.953 231.374 C 148.835 233.511,132.247 234.503,130.260 232.851 C 129.211 231.979,129.250 172.644,130.300 172.032 C 131.398 171.393,145.244 171.501,149.000 172.178 M201.881 388.078 C 203.578 389.724,203.544 390.078,201.541 391.551 C 198.718 393.627,195.284 390.636,197.708 388.212 C 199.450 386.470,200.197 386.446,201.881 388.078 " stroke="none" fill="#050505" fill-rule="evenodd"></path><path id="path1" d="M191.400 8.239 C 187.220 12.519,183.459 16.330,183.042 16.710 C 179.800 19.660,150.400 49.281,150.400 49.596 C 150.400 49.818,150.222 50.000,150.004 50.000 C 149.486 50.000,117.200 82.285,117.200 82.803 C 117.200 83.021,117.022 83.200,116.804 83.200 C 116.285 83.200,83.200 116.285,83.200 116.804 C 83.200 117.022,83.017 117.200,82.794 117.200 C 82.273 117.200,50.000 149.487,50.000 150.008 C 50.000 150.224,49.817 150.400,49.594 150.400 C 49.295 150.400,30.087 169.479,16.484 183.289 C 16.328 183.447,12.645 187.087,8.300 191.377 C 3.115 196.495,0.400 199.459,0.400 200.000 C 0.400 200.825,15.611 216.400,16.417 216.400 C 16.628 216.400,16.800 216.581,16.800 216.801 C 16.800 217.326,49.074 249.600,49.599 249.600 C 49.819 249.600,50.000 249.781,50.000 250.001 C 50.000 250.526,82.274 282.800,82.799 282.800 C 83.019 282.800,83.200 282.980,83.200 283.200 C 83.200 284.014,199.186 399.600,200.003 399.600 C 201.113 399.600,399.600 201.113,399.600 200.003 C 399.600 199.186,284.014 83.200,283.200 83.200 C 282.980 83.200,282.800 83.016,282.800 82.790 C 282.800 82.273,250.501 50.000,249.983 50.000 C 249.772 50.000,249.600 49.822,249.600 49.604 C 249.600 49.096,217.290 16.800,216.782 16.800 C 216.572 16.800,216.400 16.632,216.400 16.427 C 216.400 15.527,200.810 0.400,199.912 0.429 C 199.273 0.449,196.723 2.789,191.400 8.239 M245.604 46.605 C 270.352 71.358,314.860 115.863,344.511 145.505 C 381.216 182.199,398.387 199.627,398.311 200.111 C 398.163 201.056,200.815 398.400,200.019 398.399 C 199.252 398.397,1.600 200.801,1.600 200.035 C 1.600 199.285,199.242 1.622,200.004 1.610 C 200.337 1.604,220.857 21.852,245.604 46.605 M197.761 9.411 L 196.265 10.822 197.611 12.211 C 199.216 13.867,200.077 13.941,201.862 12.580 C 203.529 11.308,203.532 10.879,201.881 9.278 C 200.205 7.654,199.604 7.673,197.761 9.411 M98.084 105.051 C 47.335 155.789,5.225 197.751,4.506 198.299 C 3.788 198.847,3.200 199.501,3.200 199.753 C 3.200 200.197,190.070 387.288,190.737 387.512 C 191.127 387.642,196.447 383.369,196.927 382.540 C 197.159 382.140,197.451 26.569,197.226 18.930 C 197.201 18.102,191.564 12.800,190.708 12.800 C 190.514 12.800,148.834 54.313,98.084 105.051 M205.819 15.230 C 204.290 16.541,202.898 17.836,202.725 18.107 C 202.553 18.378,202.409 100.443,202.406 200.472 L 202.400 382.345 205.413 384.972 C 207.070 386.418,208.645 387.600,208.914 387.600 C 209.578 387.600,394.233 202.900,393.901 202.568 C 393.756 202.423,391.784 203.386,389.519 204.707 C 387.253 206.029,384.770 207.465,384.000 207.899 C 381.858 209.107,353.106 225.589,348.800 228.079 C 346.710 229.287,344.190 230.729,343.200 231.284 C 340.238 232.943,298.343 256.935,285.000 264.613 C 278.180 268.537,271.430 272.402,270.000 273.201 C 266.225 275.311,233.867 293.820,230.800 295.623 C 221.177 301.282,214.180 305.091,213.728 304.917 C 213.292 304.750,213.200 286.401,213.200 200.000 C 213.200 87.937,213.092 94.027,215.054 95.371 C 215.464 95.653,216.610 96.334,217.600 96.885 C 218.590 97.436,220.120 98.302,221.000 98.810 C 221.880 99.317,224.400 100.753,226.600 102.000 C 228.800 103.247,236.180 107.477,243.000 111.401 C 249.820 115.324,257.470 119.696,260.000 121.117 C 262.530 122.537,265.902 124.487,267.493 125.450 C 269.084 126.412,270.477 127.200,270.588 127.200 C 270.699 127.200,272.727 128.345,275.095 129.745 C 277.463 131.145,280.840 133.103,282.600 134.096 C 287.398 136.804,283.605 134.631,328.200 160.214 C 338.100 165.894,347.370 171.196,348.800 171.996 C 355.184 175.568,390.354 195.778,391.728 196.663 C 392.568 197.205,393.468 197.567,393.728 197.468 C 394.332 197.238,210.006 12.792,209.202 12.823 C 208.871 12.835,207.349 13.919,205.819 15.230 M187.000 200.000 C 187.000 294.625,186.937 305.401,186.383 305.508 C 186.044 305.573,175.514 299.743,162.983 292.553 C 150.453 285.362,138.850 278.722,137.200 277.797 C 133.884 275.937,122.952 269.689,106.851 260.452 C 101.049 257.123,96.222 254.400,96.123 254.400 C 96.025 254.400,95.159 253.860,94.200 253.200 C 93.241 252.540,92.367 252.000,92.259 252.000 C 92.151 252.000,90.474 251.077,88.532 249.949 C 83.469 247.008,82.418 246.407,80.400 245.297 C 79.410 244.753,77.790 243.811,76.800 243.205 C 75.810 242.599,71.490 240.118,67.200 237.691 C 62.910 235.265,57.780 232.335,55.800 231.182 C 53.820 230.028,51.210 228.543,50.000 227.881 C 48.790 227.219,47.322 226.345,46.738 225.939 C 46.154 225.533,45.586 225.200,45.476 225.200 C 45.366 225.200,40.534 222.469,34.738 219.132 C 23.598 212.717,21.955 211.778,14.000 207.281 C 8.324 204.073,3.609 200.827,3.603 200.127 C 3.595 198.977,9.953 194.949,26.400 185.684 C 27.390 185.127,33.690 181.525,40.400 177.681 C 47.110 173.837,53.320 170.284,54.200 169.785 C 55.080 169.286,59.103 166.970,63.140 164.639 C 67.177 162.308,70.555 160.400,70.648 160.400 C 70.740 160.400,71.487 159.980,72.308 159.467 C 73.129 158.954,74.790 157.987,76.000 157.317 C 77.210 156.648,82.340 153.713,87.400 150.796 C 92.460 147.878,97.590 144.950,98.800 144.288 C 100.010 143.626,101.180 142.946,101.400 142.777 C 101.620 142.608,103.690 141.401,106.000 140.096 C 111.006 137.268,115.012 134.977,129.600 126.603 C 142.061 119.450,141.768 119.618,146.496 116.872 C 148.418 115.755,151.388 114.083,153.096 113.156 C 154.803 112.229,157.460 110.715,159.000 109.792 C 160.540 108.868,162.610 107.658,163.600 107.103 C 164.590 106.548,169.990 103.460,175.600 100.242 C 181.210 97.024,186.070 94.440,186.400 94.501 C 186.932 94.598,187.000 106.636,187.000 200.000 M248.600 161.404 C 225.390 165.696,213.244 188.055,219.062 215.778 C 223.325 236.094,241.752 247.211,265.167 243.593 C 266.615 243.370,269.060 242.996,270.600 242.763 C 276.697 241.840,280.350 240.841,280.816 239.970 C 281.541 238.616,281.310 204.167,280.571 203.429 C 279.811 202.669,269.840 202.488,269.384 203.226 C 269.239 203.460,269.093 210.015,269.060 217.793 C 269.027 225.570,268.863 232.071,268.695 232.238 C 266.412 234.521,249.899 233.814,244.600 231.208 C 225.732 221.925,225.203 184.336,243.803 174.524 C 252.030 170.184,264.408 170.396,273.915 175.041 C 276.567 176.336,276.871 176.208,277.978 173.336 C 279.177 170.224,279.422 169.596,279.939 168.305 C 280.530 166.832,280.178 166.106,278.451 165.233 C 275.312 163.647,270.820 162.379,264.233 161.217 C 261.052 160.656,252.063 160.764,248.600 161.404 M263.600 161.779 C 270.362 162.700,278.976 165.350,279.481 166.666 C 279.782 167.452,276.803 175.200,276.200 175.200 C 275.925 175.200,274.705 174.760,273.490 174.223 C 264.169 170.101,252.624 169.749,245.000 173.355 C 225.224 182.709,224.050 220.405,243.200 231.123 C 248.281 233.968,262.237 235.124,267.800 233.161 L 269.400 232.597 269.600 217.998 L 269.800 203.400 275.000 203.400 L 280.200 203.400 280.200 221.771 L 280.200 240.142 279.000 240.483 C 273.081 242.163,262.428 243.592,255.800 243.595 C 234.032 243.606,220.556 230.697,218.356 207.726 C 215.506 177.965,235.247 157.917,263.600 161.779 M129.200 162.627 C 122.138 163.310,119.590 163.771,119.162 164.447 C 118.741 165.113,118.685 240.018,119.106 240.620 C 120.545 242.678,144.524 243.519,152.400 241.788 C 173.198 237.219,183.965 223.861,183.991 202.600 C 184.014 184.289,175.335 170.746,160.200 165.474 C 157.708 164.606,156.544 164.283,152.800 163.418 C 146.915 162.060,138.122 161.765,129.200 162.627 M153.000 163.984 C 168.895 167.611,178.760 176.554,181.918 190.200 C 184.038 199.362,184.119 203.924,182.326 213.200 C 179.693 226.815,169.827 236.906,155.794 240.337 C 154.037 240.766,151.610 241.357,150.400 241.649 C 144.953 242.965,121.679 241.954,119.700 240.316 C 119.306 239.990,119.200 231.914,119.200 202.400 L 119.200 164.897 120.300 164.465 C 120.905 164.227,122.840 163.844,124.600 163.614 C 132.712 162.553,147.575 162.746,153.000 163.984 M130.300 172.032 C 129.250 172.644,129.211 231.979,130.260 232.851 C 131.301 233.717,142.959 233.821,148.062 233.010 C 162.807 230.665,170.541 222.437,172.217 207.313 C 174.069 190.601,167.032 177.260,154.329 173.402 C 148.805 171.723,132.432 170.790,130.300 172.032 M151.600 173.215 C 165.664 176.823,172.736 188.003,171.852 205.231 C 171.057 220.726,162.760 230.269,148.176 232.465 C 144.073 233.083,131.289 233.048,130.658 232.418 C 130.043 231.803,129.781 174.356,130.389 173.221 C 131.211 171.685,145.618 171.681,151.600 173.215 M197.708 388.212 C 195.284 390.636,198.718 393.627,201.541 391.551 C 203.544 390.078,203.578 389.724,201.881 388.078 C 200.197 386.446,199.450 386.470,197.708 388.212 " stroke="none" fill="#737373" fill-rule="evenodd"></path><path id="path2" d="M184.600 96.156 C 183.870 96.622,179.388 99.189,175.400 101.424 C 174.520 101.917,171.550 103.621,168.800 105.210 C 166.050 106.800,162.990 108.553,162.000 109.107 C 161.010 109.661,158.400 111.143,156.200 112.400 C 154.000 113.657,151.390 115.134,150.400 115.683 C 149.410 116.231,146.620 117.851,144.200 119.283 C 141.780 120.715,138.900 122.390,137.800 123.005 C 132.885 125.755,123.125 131.323,112.600 137.381 C 108.860 139.534,104.990 141.754,104.000 142.315 C 103.010 142.876,100.880 144.114,99.267 145.067 C 97.654 146.020,96.267 146.800,96.186 146.800 C 96.105 146.800,93.829 148.086,91.128 149.658 C 88.428 151.230,85.674 152.828,85.009 153.209 C 80.010 156.075,78.694 156.800,78.493 156.800 C 78.367 156.800,77.979 157.046,77.631 157.346 C 77.284 157.646,75.560 158.662,73.800 159.605 C 72.040 160.548,70.150 161.622,69.600 161.993 C 69.050 162.363,66.260 163.984,63.400 165.594 C 60.540 167.204,56.760 169.365,55.000 170.396 C 53.240 171.427,49.280 173.680,46.200 175.403 C 43.120 177.125,40.150 178.837,39.600 179.207 C 39.050 179.576,37.610 180.417,36.400 181.077 C 35.190 181.736,31.230 183.989,27.600 186.082 C 23.970 188.176,20.190 190.341,19.200 190.894 C 6.315 198.091,3.644 199.810,4.317 200.472 C 4.566 200.717,10.349 204.124,15.287 206.935 C 16.229 207.471,21.230 210.330,26.400 213.287 C 31.570 216.245,36.610 219.123,37.600 219.684 C 38.590 220.245,42.370 222.407,46.000 224.487 C 76.404 241.912,95.823 253.044,104.800 258.194 C 110.630 261.539,116.210 264.730,117.200 265.285 C 118.190 265.841,125.660 270.120,133.800 274.794 C 141.940 279.468,149.230 283.652,150.000 284.092 C 150.770 284.531,152.570 285.570,154.000 286.400 C 155.430 287.230,157.275 288.290,158.100 288.755 C 161.119 290.456,163.981 292.084,169.445 295.212 C 170.129 295.603,173.459 297.493,176.845 299.410 C 180.230 301.327,183.507 303.248,184.127 303.680 C 186.586 305.391,186.411 313.745,186.301 199.946 C 186.234 130.986,186.065 95.829,185.800 95.756 C 185.580 95.695,185.040 95.875,184.600 96.156 M149.103 162.189 C 162.402 164.201,174.152 170.758,178.057 178.348 C 178.355 178.927,178.693 179.490,178.807 179.600 C 179.311 180.082,181.637 185.212,182.345 187.400 C 183.941 192.335,184.197 194.433,184.198 202.600 C 184.200 210.767,184.004 212.325,182.336 217.400 C 177.851 231.048,168.445 238.957,152.800 242.235 C 143.497 244.183,120.193 243.380,118.706 241.059 C 118.151 240.192,118.341 164.627,118.900 163.929 C 120.401 162.055,140.541 160.895,149.103 162.189 M250.200 162.246 C 230.260 165.148,218.239 181.348,218.921 204.400 C 219.751 232.422,236.930 246.349,265.816 242.419 C 270.064 241.841,276.871 240.539,278.700 239.954 L 280.000 239.538 280.000 221.983 C 280.000 205.196,279.967 204.411,279.246 204.025 C 278.399 203.572,271.264 203.666,270.496 204.141 C 270.117 204.375,270.000 207.771,270.000 218.575 C 270.000 234.467,270.269 233.248,266.600 234.016 C 255.753 236.287,244.000 233.817,238.005 228.005 C 225.705 216.080,226.269 187.653,239.027 176.523 C 247.257 169.343,263.037 168.235,274.461 174.035 C 275.590 174.608,276.009 174.665,276.308 174.288 C 276.642 173.865,278.706 168.457,278.922 167.434 C 279.515 164.643,259.089 160.953,250.200 162.246 M131.067 173.067 C 130.920 173.213,130.800 186.530,130.800 202.659 L 130.800 231.985 131.852 232.249 C 134.306 232.865,148.478 232.113,151.800 231.191 C 164.820 227.578,171.292 218.094,171.313 202.600 C 171.336 186.013,163.773 175.894,149.473 173.377 C 146.126 172.788,131.590 172.543,131.067 173.067 " stroke="none" fill="#f9f9f9" fill-rule="evenodd"></path><path id="path3" d="M178.600 99.066 C 174.640 101.345,170.950 103.450,170.400 103.743 C 169.850 104.036,164.658 107.003,158.862 110.338 C 153.065 113.672,148.265 116.400,148.195 116.400 C 148.124 116.400,146.656 117.234,144.933 118.252 C 141.326 120.385,132.647 125.404,130.000 126.888 C 129.010 127.443,123.970 130.326,118.800 133.295 C 113.630 136.263,104.900 141.265,99.400 144.409 C 93.900 147.553,82.650 153.996,74.400 158.726 C 62.086 165.786,52.430 171.312,41.400 177.611 C 11.499 194.686,5.306 198.304,4.930 198.915 C 4.765 199.182,5.101 199.093,5.676 198.717 C 6.743 198.019,15.949 192.689,19.200 190.887 C 20.190 190.338,23.970 188.176,27.600 186.082 C 31.230 183.989,35.190 181.736,36.400 181.077 C 37.610 180.417,39.050 179.576,39.600 179.207 C 40.150 178.837,43.120 177.125,46.200 175.403 C 49.280 173.680,53.240 171.427,55.000 170.396 C 56.760 169.365,60.540 167.204,63.400 165.594 C 66.260 163.984,69.050 162.363,69.600 161.993 C 70.150 161.622,72.040 160.548,73.800 159.605 C 75.560 158.662,77.284 157.646,77.631 157.346 C 77.979 157.046,78.367 156.800,78.493 156.800 C 78.694 156.800,80.010 156.075,85.009 153.209 C 85.674 152.828,88.428 151.230,91.128 149.658 C 93.829 148.086,96.105 146.800,96.186 146.800 C 96.267 146.800,97.654 146.020,99.267 145.067 C 100.880 144.114,103.010 142.876,104.000 142.315 C 104.990 141.754,108.860 139.534,112.600 137.381 C 122.354 131.767,133.245 125.554,137.800 123.005 C 138.900 122.390,141.780 120.715,144.200 119.283 C 146.620 117.851,149.410 116.231,150.400 115.683 C 151.390 115.134,154.000 113.657,156.200 112.400 C 158.400 111.143,161.010 109.662,162.000 109.110 C 162.990 108.558,166.483 106.552,169.762 104.653 C 173.042 102.754,175.790 101.200,175.870 101.200 C 175.950 101.200,176.721 100.755,177.583 100.211 C 180.981 98.066,185.705 95.618,186.043 95.827 C 186.251 95.955,186.400 139.524,186.400 200.036 C 186.400 313.709,186.582 305.388,184.127 303.680 C 183.507 303.248,180.230 301.327,176.845 299.410 C 173.459 297.493,170.129 295.603,169.445 295.212 C 163.981 292.084,161.119 290.456,158.100 288.755 C 157.275 288.290,155.430 287.230,154.000 286.400 C 152.570 285.570,150.770 284.531,150.000 284.092 C 149.230 283.652,141.940 279.468,133.800 274.794 C 125.660 270.120,118.190 265.841,117.200 265.285 C 116.210 264.730,110.630 261.539,104.800 258.194 C 95.823 253.044,76.404 241.912,46.000 224.487 C 42.370 222.407,38.590 220.245,37.600 219.684 C 36.610 219.123,31.570 216.245,26.400 213.287 C 21.230 210.330,16.200 207.455,15.222 206.898 C 6.212 201.773,4.205 200.456,4.317 199.744 C 4.415 199.120,4.367 199.096,4.018 199.600 C 3.699 200.061,3.858 200.413,4.702 201.121 C 5.949 202.166,5.206 201.727,20.400 210.406 C 26.670 213.988,38.550 220.790,46.800 225.522 C 61.316 233.849,74.530 241.408,77.000 242.800 C 77.660 243.172,85.027 247.395,93.372 252.185 C 101.716 256.975,109.096 261.208,109.772 261.591 C 110.447 261.974,119.100 266.935,129.000 272.615 C 138.900 278.295,148.170 283.596,149.600 284.397 C 151.030 285.197,155.350 287.662,159.200 289.874 C 181.456 302.662,186.050 305.216,186.406 304.996 C 187.045 304.601,186.939 95.336,186.300 95.104 C 186.025 95.004,182.560 96.787,178.600 99.066 M131.800 161.835 C 132.240 161.905,136.380 162.021,141.000 162.093 C 145.620 162.165,148.590 162.097,147.600 161.941 C 146.610 161.786,142.470 161.670,138.400 161.684 C 134.330 161.698,131.360 161.766,131.800 161.835 M254.117 161.897 C 255.611 161.974,257.951 161.974,259.317 161.896 C 260.682 161.818,259.460 161.755,256.600 161.755 C 253.740 161.756,252.622 161.820,254.117 161.897 M127.700 162.287 C 128.305 162.378,129.295 162.378,129.900 162.287 C 130.505 162.195,130.010 162.120,128.800 162.120 C 127.590 162.120,127.095 162.195,127.700 162.287 M249.105 162.283 C 249.602 162.379,250.322 162.375,250.705 162.275 C 251.087 162.175,250.680 162.096,249.800 162.101 C 248.920 162.105,248.607 162.187,249.105 162.283 M262.833 162.146 C 262.925 162.226,263.990 162.394,265.200 162.519 C 266.620 162.666,267.046 162.629,266.400 162.413 C 265.409 162.083,262.513 161.865,262.833 162.146 M124.305 162.683 C 124.802 162.779,125.522 162.775,125.905 162.675 C 126.287 162.575,125.880 162.496,125.000 162.501 C 124.120 162.505,123.807 162.587,124.305 162.683 M149.633 162.549 C 149.725 162.631,150.700 162.801,151.800 162.928 C 153.149 163.084,153.474 163.049,152.800 162.820 C 151.801 162.480,149.318 162.268,149.633 162.549 M245.400 163.015 C 243.823 163.561,243.820 163.565,245.200 163.332 C 246.832 163.057,248.500 162.448,247.600 162.456 C 247.270 162.459,246.280 162.711,245.400 163.015 M118.814 163.974 C 118.366 164.811,118.199 239.811,118.643 240.967 C 118.776 241.315,119.082 241.600,119.323 241.600 C 119.615 241.600,119.601 241.441,119.280 241.120 C 118.739 240.579,118.568 164.982,119.106 164.140 C 119.268 163.888,119.850 163.597,120.400 163.495 C 121.394 163.310,121.393 163.309,120.314 163.254 C 119.611 163.219,119.082 163.473,118.814 163.974 M154.800 163.600 C 156.168 164.038,157.219 164.038,156.200 163.600 C 155.760 163.411,155.040 163.262,154.600 163.268 C 153.957 163.277,153.996 163.343,154.800 163.600 M239.332 165.168 C 234.377 167.512,228.862 172.105,226.343 175.985 C 225.695 176.983,225.578 177.263,226.082 176.606 C 229.756 171.825,235.003 167.552,240.097 165.195 C 241.474 164.558,242.420 164.029,242.200 164.019 C 241.980 164.009,240.689 164.526,239.332 165.168 M159.200 164.733 C 159.530 164.936,160.250 165.224,160.800 165.371 C 161.495 165.557,161.617 165.525,161.200 165.267 C 160.870 165.064,160.150 164.776,159.600 164.629 C 158.905 164.443,158.783 164.475,159.200 164.733 M275.233 164.932 C 275.973 165.520,279.200 167.081,279.200 166.852 C 279.200 166.572,275.852 164.800,275.323 164.800 C 275.182 164.800,275.142 164.860,275.233 164.932 M165.080 167.346 C 166.884 168.293,168.602 169.233,168.899 169.434 C 169.195 169.635,169.069 169.465,168.619 169.055 C 167.783 168.294,162.672 165.591,162.110 165.612 C 161.939 165.618,163.276 166.399,165.080 167.346 M278.215 169.415 C 277.830 170.424,277.598 171.332,277.700 171.433 C 277.801 171.535,278.200 170.793,278.585 169.785 C 278.970 168.776,279.202 167.868,279.100 167.767 C 278.999 167.665,278.600 168.407,278.215 169.415 M172.429 172.306 C 173.875 173.642,175.750 175.740,176.596 176.968 C 177.441 178.196,178.218 179.115,178.322 179.011 C 178.777 178.556,173.964 173.044,171.426 171.113 C 170.532 170.433,170.983 170.970,172.429 172.306 M250.000 171.035 C 248.588 171.471,248.502 171.539,249.600 171.352 C 250.370 171.220,252.170 170.978,253.600 170.813 L 256.200 170.514 254.000 170.496 C 252.790 170.486,250.990 170.729,250.000 171.035 M260.600 170.822 C 262.140 170.989,264.120 171.233,265.000 171.363 C 266.153 171.534,265.985 171.437,264.400 171.017 C 263.190 170.696,261.210 170.453,260.000 170.476 L 257.800 170.517 260.600 170.822 M246.129 172.130 C 244.084 172.886,244.090 173.257,246.136 172.560 C 247.161 172.211,248.000 171.852,248.000 171.762 C 248.000 171.519,247.537 171.610,246.129 172.130 M267.800 172.000 C 268.240 172.189,268.870 172.344,269.200 172.344 C 269.578 172.344,269.504 172.217,269.000 172.000 C 268.560 171.811,267.930 171.656,267.600 171.656 C 267.222 171.656,267.296 171.783,267.800 172.000 M130.897 172.731 C 130.076 173.253,130.375 232.072,131.200 232.297 C 131.647 232.419,131.672 232.370,131.297 232.105 C 130.900 231.824,130.816 225.595,130.897 202.375 L 131.000 173.000 138.800 172.787 L 146.600 172.574 139.000 172.493 C 134.820 172.449,131.174 172.556,130.897 172.731 M270.400 172.800 C 270.730 173.013,271.270 173.188,271.600 173.188 C 272.133 173.188,272.133 173.145,271.600 172.800 C 271.270 172.587,270.730 172.412,270.400 172.412 C 269.867 172.412,269.867 172.455,270.400 172.800 M147.233 172.949 C 147.325 173.031,148.300 173.201,149.400 173.328 C 150.749 173.484,151.074 173.449,150.400 173.220 C 149.401 172.880,146.918 172.668,147.233 172.949 M241.500 174.515 C 240.455 175.217,239.600 175.956,239.600 176.158 C 239.600 176.359,239.965 176.194,240.411 175.790 C 240.856 175.387,241.891 174.645,242.711 174.141 C 243.530 173.637,244.020 173.228,243.800 173.231 C 243.580 173.235,242.545 173.812,241.500 174.515 M273.600 174.000 C 274.370 174.422,275.180 174.766,275.400 174.766 C 275.620 174.766,275.170 174.422,274.400 174.000 C 273.630 173.578,272.820 173.234,272.600 173.234 C 272.380 173.234,272.830 173.578,273.600 174.000 M155.944 175.209 C 156.903 175.644,157.803 175.992,157.944 175.983 C 158.449 175.950,155.387 174.433,154.800 174.426 C 154.470 174.421,154.985 174.774,155.944 175.209 M158.400 176.136 C 158.400 176.235,159.300 176.894,160.401 177.601 C 162.685 179.066,165.577 182.135,167.062 184.670 C 168.367 186.896,168.741 186.929,167.526 184.711 C 166.046 182.010,158.400 174.826,158.400 176.136 M237.195 178.300 C 236.275 179.345,235.350 180.560,235.139 181.000 C 234.928 181.440,235.171 181.260,235.677 180.600 C 236.184 179.940,237.205 178.725,237.946 177.900 C 238.687 177.075,239.197 176.400,239.081 176.400 C 238.964 176.400,238.115 177.255,237.195 178.300 M223.479 180.374 C 223.106 181.006,222.801 181.676,222.801 181.862 C 222.802 182.048,223.172 181.595,223.623 180.855 C 224.074 180.115,224.379 179.446,224.301 179.367 C 224.222 179.289,223.852 179.742,223.479 180.374 M232.780 184.839 C 232.320 185.740,232.013 186.546,232.097 186.630 C 232.181 186.714,232.641 185.976,233.119 184.991 C 234.209 182.747,233.915 182.615,232.780 184.839 M221.015 185.815 C 220.630 186.824,220.404 187.737,220.513 187.846 C 220.621 187.955,221.000 187.193,221.354 186.154 C 222.190 183.699,221.925 183.434,221.015 185.815 M181.813 186.644 C 182.350 188.855,183.178 191.027,182.940 189.600 C 182.811 188.830,182.459 187.660,182.157 187.000 C 181.855 186.340,181.701 186.180,181.813 186.644 M231.246 188.439 C 231.001 189.143,230.813 189.918,230.828 190.160 C 230.844 190.402,231.114 189.896,231.430 189.035 C 231.745 188.174,231.933 187.400,231.848 187.315 C 231.762 187.229,231.492 187.735,231.246 188.439 M219.800 189.600 C 219.648 190.291,219.607 190.941,219.709 191.042 C 219.811 191.144,220.009 190.653,220.150 189.950 C 220.483 188.283,220.160 187.960,219.800 189.600 M170.006 191.500 C 170.010 191.665,170.273 192.880,170.592 194.200 C 170.911 195.520,171.207 197.320,171.250 198.200 C 171.323 199.703,171.338 199.721,171.490 198.493 C 171.639 197.293,170.527 191.200,170.160 191.200 C 170.072 191.200,170.003 191.335,170.006 191.500 M183.295 192.000 C 183.295 192.550,183.432 193.540,183.600 194.200 C 183.872 195.270,183.905 195.292,183.905 194.400 C 183.905 193.850,183.768 192.860,183.600 192.200 C 183.328 191.130,183.295 191.108,183.295 192.000 M219.056 192.884 C 218.921 193.388,218.830 194.340,218.853 195.000 C 218.881 195.828,218.997 195.584,219.226 194.213 C 219.576 192.123,219.474 191.326,219.056 192.884 M229.856 193.684 C 229.721 194.188,229.630 195.140,229.653 195.800 C 229.681 196.628,229.797 196.384,230.026 195.013 C 230.376 192.923,230.274 192.126,229.856 193.684 M184.162 202.600 C 184.162 206.120,184.224 207.506,184.298 205.681 C 184.372 203.856,184.372 200.976,184.297 199.281 C 184.222 197.586,184.161 199.080,184.162 202.600 M218.557 202.800 C 218.557 205.770,218.620 206.985,218.697 205.500 C 218.774 204.015,218.774 201.585,218.697 200.100 C 218.620 198.615,218.557 199.830,218.557 202.800 M229.355 203.000 C 229.356 205.860,229.420 206.978,229.497 205.483 C 229.574 203.989,229.574 201.649,229.496 200.283 C 229.418 198.918,229.355 200.140,229.355 203.000 M269.790 204.430 C 269.412 205.622,269.727 205.715,270.267 204.571 C 270.519 204.037,270.574 203.600,270.389 203.600 C 270.205 203.600,269.935 203.974,269.790 204.430 M272.900 203.876 C 273.285 203.976,273.915 203.976,274.300 203.876 C 274.685 203.775,274.370 203.693,273.600 203.693 C 272.830 203.693,272.515 203.775,272.900 203.876 M171.267 206.850 C 171.230 207.648,171.111 208.907,171.001 209.650 L 170.803 211.000 171.223 209.660 C 171.454 208.923,171.574 207.663,171.489 206.860 L 171.334 205.400 171.267 206.850 M229.693 210.000 C 229.693 210.770,229.775 211.085,229.876 210.700 C 229.976 210.315,229.976 209.685,229.876 209.300 C 229.775 208.915,229.693 209.230,229.693 210.000 M218.840 210.433 C 218.862 211.185,219.030 212.250,219.213 212.800 C 219.429 213.446,219.466 213.020,219.319 211.600 C 219.059 209.083,218.781 208.407,218.840 210.433 M183.455 211.455 C 183.313 212.486,183.274 213.408,183.369 213.502 C 183.463 213.596,183.665 212.839,183.818 211.818 C 183.971 210.798,184.010 209.876,183.904 209.771 C 183.798 209.665,183.596 210.423,183.455 211.455 M170.250 212.450 C 169.917 214.117,170.240 214.440,170.600 212.800 C 170.752 212.109,170.793 211.459,170.691 211.358 C 170.589 211.256,170.391 211.747,170.250 212.450 M182.846 214.467 C 182.821 214.834,182.696 215.464,182.570 215.867 C 182.352 216.562,182.363 216.563,182.797 215.887 C 183.048 215.496,183.173 214.866,183.073 214.487 C 182.911 213.868,182.888 213.866,182.846 214.467 M168.744 217.028 C 168.163 218.443,167.768 219.600,167.866 219.600 C 168.148 219.600,170.047 215.137,169.917 214.779 C 169.853 214.602,169.325 215.614,168.744 217.028 M219.668 215.000 C 219.662 215.440,219.811 216.160,220.000 216.600 C 220.438 217.619,220.438 216.568,220.000 215.200 C 219.743 214.396,219.677 214.357,219.668 215.000 M230.831 215.429 C 230.729 216.834,233.100 222.020,235.117 224.800 C 237.802 228.502,245.079 233.617,247.629 233.595 C 247.943 233.592,246.797 232.978,245.082 232.229 C 238.545 229.375,234.398 224.769,231.731 217.401 C 231.253 216.080,230.848 215.193,230.831 215.429 M166.598 221.177 C 163.994 224.818,160.884 227.416,156.769 229.388 C 155.148 230.165,154.048 230.800,154.323 230.800 C 157.181 230.800,168.811 221.478,167.540 220.206 C 167.460 220.127,167.036 220.564,166.598 221.177 M178.986 224.500 L 178.352 225.800 179.167 224.800 C 179.952 223.837,180.208 223.200,179.810 223.200 C 179.706 223.200,179.335 223.785,178.986 224.500 M176.912 227.700 C 174.487 231.069,170.398 234.703,166.682 236.793 C 165.407 237.510,164.442 238.176,164.538 238.272 C 164.987 238.721,172.627 233.402,174.201 231.545 C 176.839 228.432,178.633 226.000,178.291 226.000 C 178.206 226.000,177.585 226.765,176.912 227.700 M227.132 231.100 C 227.792 231.925,229.100 233.320,230.038 234.200 C 231.039 235.139,230.611 234.519,229.004 232.700 C 226.115 229.430,225.110 228.571,227.132 231.100 M151.000 231.415 C 149.423 231.961,149.420 231.965,150.800 231.732 C 152.432 231.457,154.100 230.848,153.200 230.856 C 152.870 230.859,151.880 231.111,151.000 231.415 M269.632 232.113 C 269.614 232.505,269.195 232.989,268.700 233.188 C 268.091 233.432,268.010 233.557,268.451 233.575 C 269.274 233.607,270.141 232.590,269.869 231.913 C 269.742 231.596,269.651 231.672,269.632 232.113 M145.900 232.282 C 146.395 232.378,147.205 232.378,147.700 232.282 C 148.195 232.187,147.790 232.109,146.800 232.109 C 145.810 232.109,145.405 232.187,145.900 232.282 M136.118 232.698 C 137.833 232.773,140.533 232.772,142.118 232.697 C 143.703 232.621,142.300 232.559,139.000 232.560 C 135.700 232.561,134.403 232.622,136.118 232.698 M249.000 233.981 C 249.768 234.329,251.910 234.556,251.567 234.253 C 251.475 234.172,250.680 233.996,249.800 233.862 C 248.685 233.693,248.442 233.729,249.000 233.981 M264.200 234.000 L 262.600 234.286 264.000 234.296 C 264.770 234.301,265.940 234.168,266.600 234.000 C 268.228 233.586,266.513 233.586,264.200 234.000 M255.100 234.693 C 256.035 234.777,257.565 234.777,258.500 234.693 C 259.435 234.609,258.670 234.540,256.800 234.540 C 254.930 234.540,254.165 234.609,255.100 234.693 M233.000 236.601 C 234.174 237.619,236.400 238.972,236.400 238.667 C 236.400 238.582,235.365 237.849,234.100 237.037 C 232.547 236.040,232.190 235.899,233.000 236.601 M161.800 239.222 C 160.920 239.638,160.470 239.976,160.800 239.973 C 161.130 239.969,162.030 239.622,162.800 239.200 C 164.596 238.217,163.892 238.232,161.800 239.222 M238.400 239.722 C 238.400 240.037,244.016 242.117,244.245 241.888 C 244.355 241.778,243.400 241.328,242.122 240.887 C 240.845 240.447,239.485 239.958,239.100 239.800 C 238.715 239.643,238.400 239.608,238.400 239.722 M275.200 240.800 C 273.833 241.088,273.828 241.095,275.000 241.119 C 275.660 241.133,276.560 240.989,277.000 240.800 C 277.962 240.387,277.164 240.387,275.200 240.800 M155.800 241.200 C 155.296 241.417,155.222 241.544,155.600 241.544 C 155.930 241.544,156.560 241.389,157.000 241.200 C 157.504 240.983,157.578 240.856,157.200 240.856 C 156.870 240.856,156.240 241.011,155.800 241.200 M271.200 241.600 C 270.220 241.914,270.224 241.921,271.400 241.954 C 272.060 241.973,272.870 241.813,273.200 241.600 C 273.958 241.110,272.730 241.110,271.200 241.600 M120.800 242.000 C 121.350 242.176,122.250 242.317,122.800 242.313 C 123.698 242.306,123.678 242.274,122.600 242.000 C 120.908 241.569,119.456 241.569,120.800 242.000 M245.800 242.390 C 246.564 242.728,249.114 242.957,248.767 242.656 C 248.675 242.576,247.790 242.404,246.800 242.273 C 245.598 242.114,245.266 242.153,245.800 242.390 M265.800 242.400 L 264.200 242.686 265.800 242.703 C 266.680 242.713,267.850 242.576,268.400 242.400 L 269.400 242.080 268.400 242.097 C 267.850 242.106,266.680 242.242,265.800 242.400 M126.600 242.800 C 128.665 243.141,132.661 243.315,132.367 243.051 C 132.275 242.969,130.490 242.804,128.400 242.685 C 125.690 242.531,125.174 242.564,126.600 242.800 M146.600 242.800 L 145.000 243.086 146.400 243.120 C 147.170 243.139,148.520 243.005,149.400 242.823 L 151.000 242.492 149.600 242.503 C 148.830 242.509,147.480 242.642,146.600 242.800 M252.503 243.342 C 254.314 243.549,257.062 243.547,259.103 243.338 C 262.393 243.001,262.210 242.980,256.000 242.984 C 250.088 242.988,249.724 243.025,252.503 243.342 M140.100 243.476 C 140.485 243.576,141.115 243.576,141.500 243.476 C 141.885 243.375,141.570 243.293,140.800 243.293 C 140.030 243.293,139.715 243.375,140.100 243.476 " stroke="none" fill="#bcbcbc" fill-rule="evenodd"></path><path id="path4" d="M175.600 100.242 C 169.990 103.460,164.590 106.548,163.600 107.103 C 162.610 107.658,160.540 108.868,159.000 109.792 C 157.460 110.715,154.803 112.229,153.096 113.156 C 151.388 114.083,148.418 115.755,146.496 116.872 C 137.903 121.864,113.491 135.864,106.000 140.096 C 103.690 141.401,101.620 142.608,101.400 142.777 C 101.180 142.946,100.010 143.626,98.800 144.288 C 97.590 144.950,92.460 147.878,87.400 150.796 C 82.340 153.713,77.210 156.648,76.000 157.317 C 74.790 157.987,73.129 158.954,72.308 159.467 C 71.487 159.980,70.740 160.400,70.648 160.400 C 70.555 160.400,67.177 162.308,63.140 164.639 C 59.103 166.970,55.080 169.286,54.200 169.785 C 53.320 170.284,47.110 173.837,40.400 177.681 C 33.690 181.525,27.390 185.127,26.400 185.684 C 17.679 190.597,6.887 196.946,6.400 197.451 C 6.070 197.793,7.330 197.180,9.200 196.088 C 11.807 194.565,31.741 183.127,41.400 177.611 C 52.430 171.312,62.086 165.786,74.400 158.726 C 82.650 153.996,93.900 147.553,99.400 144.409 C 104.900 141.265,113.630 136.263,118.800 133.295 C 123.970 130.326,129.010 127.443,130.000 126.888 C 132.647 125.404,141.326 120.385,144.933 118.252 C 146.656 117.234,148.124 116.400,148.195 116.400 C 148.265 116.400,153.065 113.672,158.862 110.338 C 164.658 107.003,169.850 104.036,170.400 103.743 C 170.950 103.450,174.640 101.345,178.600 99.066 C 182.560 96.787,186.025 95.004,186.300 95.104 C 186.939 95.336,187.045 304.601,186.406 304.996 C 186.050 305.216,181.456 302.662,159.200 289.874 C 155.350 287.662,151.030 285.197,149.600 284.397 C 148.170 283.596,138.900 278.295,129.000 272.615 C 119.100 266.935,110.447 261.974,109.772 261.591 C 109.096 261.208,101.716 256.975,93.372 252.185 C 85.027 247.395,77.660 243.172,77.000 242.800 C 73.251 240.688,49.007 226.799,21.000 210.719 C 15.060 207.309,9.570 204.216,8.800 203.845 C 6.054 202.524,8.816 204.349,14.000 207.280 C 22.023 211.817,23.639 212.741,34.738 219.132 C 40.534 222.469,45.366 225.200,45.476 225.200 C 45.586 225.200,46.154 225.533,46.738 225.939 C 47.322 226.345,48.790 227.219,50.000 227.881 C 51.210 228.543,53.820 230.028,55.800 231.182 C 57.780 232.335,62.910 235.265,67.200 237.691 C 71.490 240.118,75.810 242.599,76.800 243.205 C 77.790 243.811,79.410 244.753,80.400 245.297 C 82.418 246.407,83.469 247.008,88.532 249.949 C 90.474 251.077,92.151 252.000,92.259 252.000 C 92.367 252.000,93.241 252.540,94.200 253.200 C 95.159 253.860,96.025 254.400,96.123 254.400 C 96.222 254.400,101.049 257.123,106.851 260.452 C 122.952 269.689,133.884 275.937,137.200 277.797 C 138.850 278.722,150.453 285.362,162.983 292.553 C 175.514 299.743,186.044 305.573,186.383 305.508 C 187.312 305.329,187.328 94.671,186.400 94.501 C 186.070 94.440,181.210 97.024,175.600 100.242 M254.515 161.496 C 255.788 161.576,257.768 161.575,258.915 161.494 C 260.062 161.414,259.020 161.349,256.600 161.350 C 254.180 161.351,253.242 161.416,254.515 161.496 M131.705 162.287 C 132.314 162.379,133.214 162.377,133.705 162.282 C 134.197 162.187,133.700 162.111,132.600 162.114 C 131.500 162.117,131.097 162.195,131.705 162.287 M144.500 162.276 C 144.885 162.376,145.515 162.376,145.900 162.276 C 146.285 162.175,145.970 162.093,145.200 162.093 C 144.430 162.093,144.115 162.175,144.500 162.276 M266.400 162.400 C 267.768 162.838,268.819 162.838,267.800 162.400 C 267.360 162.211,266.640 162.062,266.200 162.068 C 265.557 162.077,265.596 162.143,266.400 162.400 M127.100 162.682 C 127.595 162.778,128.405 162.778,128.900 162.682 C 129.395 162.587,128.990 162.509,128.000 162.509 C 127.010 162.509,126.605 162.587,127.100 162.682 M147.700 162.676 C 148.085 162.776,148.715 162.776,149.100 162.676 C 149.485 162.575,149.170 162.493,148.400 162.493 C 147.630 162.493,147.315 162.575,147.700 162.676 M277.880 165.889 C 278.585 166.240,279.235 166.903,279.326 167.363 C 279.484 168.163,279.493 168.160,279.546 167.310 C 279.596 166.493,277.900 165.147,276.920 165.226 C 276.744 165.240,277.176 165.538,277.880 165.889 M165.600 167.779 C 165.600 167.889,166.140 168.259,166.800 168.600 C 167.460 168.941,168.000 169.131,168.000 169.021 C 168.000 168.911,167.460 168.541,166.800 168.200 C 166.140 167.859,165.600 167.669,165.600 167.779 M230.585 170.900 L 228.600 173.000 230.700 171.015 C 232.651 169.171,232.983 168.800,232.685 168.800 C 232.622 168.800,231.677 169.745,230.585 170.900 M168.400 169.325 C 168.400 169.424,169.061 170.009,169.868 170.625 C 170.676 171.241,171.211 171.541,171.056 171.291 C 170.740 170.779,168.400 169.047,168.400 169.325 M173.400 173.600 C 174.483 174.700,175.460 175.600,175.570 175.600 C 175.680 175.600,174.883 174.700,173.800 173.600 C 172.717 172.500,171.740 171.600,171.630 171.600 C 171.520 171.600,172.317 172.500,173.400 173.600 M135.700 172.297 C 137.405 172.372,140.195 172.372,141.900 172.297 C 143.605 172.222,142.210 172.161,138.800 172.161 C 135.390 172.161,133.995 172.222,135.700 172.297 M146.900 172.676 C 147.285 172.776,147.915 172.776,148.300 172.676 C 148.685 172.575,148.370 172.493,147.600 172.493 C 146.830 172.493,146.515 172.575,146.900 172.676 M243.900 173.429 C 242.349 174.270,242.525 174.561,244.100 173.759 C 245.608 172.993,245.875 172.794,245.367 172.816 C 245.165 172.825,244.505 173.101,243.900 173.429 M130.189 200.200 C 130.189 214.940,130.239 220.912,130.300 213.471 C 130.361 206.030,130.361 193.970,130.300 186.671 C 130.239 179.372,130.189 185.460,130.189 200.200 M240.922 175.429 L 239.800 176.458 241.100 175.554 C 241.815 175.057,242.400 174.593,242.400 174.525 C 242.400 174.209,241.958 174.480,240.922 175.429 M237.978 177.900 L 236.600 179.400 238.100 178.022 C 239.496 176.738,239.784 176.400,239.478 176.400 C 239.412 176.400,238.737 177.075,237.978 177.900 M163.400 179.600 C 164.259 180.480,165.052 181.200,165.162 181.200 C 165.272 181.200,164.659 180.480,163.800 179.600 C 162.941 178.720,162.148 178.000,162.038 178.000 C 161.928 178.000,162.541 178.720,163.400 179.600 M219.029 191.829 C 218.881 192.415,218.838 192.972,218.932 193.066 C 219.027 193.160,219.224 192.758,219.371 192.171 C 219.519 191.585,219.562 191.028,219.468 190.934 C 219.373 190.840,219.176 191.242,219.029 191.829 M170.880 193.400 C 170.880 193.840,171.024 194.650,171.200 195.200 C 171.454 195.992,171.520 196.033,171.520 195.400 C 171.520 194.960,171.376 194.150,171.200 193.600 C 170.946 192.808,170.880 192.767,170.880 193.400 M218.493 196.400 C 218.493 197.170,218.575 197.485,218.676 197.100 C 218.776 196.715,218.776 196.085,218.676 195.700 C 218.575 195.315,218.493 195.630,218.493 196.400 M229.709 198.400 C 229.709 199.390,229.787 199.795,229.882 199.300 C 229.978 198.805,229.978 197.995,229.882 197.500 C 229.787 197.005,229.709 197.410,229.709 198.400 M171.750 202.600 C 171.751 205.020,171.816 205.958,171.896 204.685 C 171.976 203.412,171.975 201.432,171.894 200.285 C 171.814 199.138,171.749 200.180,171.750 202.600 M218.146 202.600 C 218.147 204.800,218.214 205.649,218.295 204.487 C 218.376 203.324,218.376 201.524,218.293 200.487 C 218.211 199.449,218.145 200.400,218.146 202.600 M269.791 203.615 C 269.642 203.856,269.628 204.161,269.760 204.293 C 269.892 204.425,270.000 204.323,270.000 204.067 C 270.000 203.736,271.457 203.600,275.000 203.600 L 280.000 203.600 280.000 221.767 C 280.000 233.774,279.861 240.002,279.590 240.137 C 279.365 240.249,279.410 240.293,279.690 240.237 C 280.094 240.155,280.200 236.331,280.200 221.767 L 280.200 203.400 275.131 203.288 C 271.773 203.214,269.970 203.325,269.791 203.615 M229.714 207.000 C 229.717 208.100,229.795 208.503,229.887 207.895 C 229.979 207.286,229.977 206.386,229.882 205.895 C 229.787 205.403,229.711 205.900,229.714 207.000 M269.777 217.400 C 269.777 224.000,269.832 226.756,269.899 223.525 C 269.966 220.293,269.966 214.893,269.899 211.525 C 269.832 208.156,269.777 210.800,269.777 217.400 M218.880 212.600 C 218.880 213.040,219.024 213.850,219.200 214.400 C 219.454 215.192,219.520 215.233,219.520 214.600 C 219.520 214.160,219.376 213.350,219.200 212.800 C 218.946 212.008,218.880 211.967,218.880 212.600 M234.677 223.631 C 235.075 224.308,235.656 225.073,235.968 225.331 C 236.280 225.589,236.032 225.035,235.415 224.100 C 234.120 222.137,233.609 221.812,234.677 223.631 M130.120 229.200 C 130.120 230.410,130.195 230.905,130.287 230.300 C 130.378 229.695,130.378 228.705,130.287 228.100 C 130.195 227.495,130.120 227.990,130.120 229.200 M130.752 232.512 C 130.945 232.705,131.619 232.798,132.251 232.719 C 133.309 232.587,133.281 232.559,131.900 232.368 C 131.040 232.249,130.550 232.310,130.752 232.512 M171.375 233.300 L 170.200 234.600 171.500 233.425 C 172.712 232.330,172.984 232.000,172.675 232.000 C 172.606 232.000,172.021 232.585,171.375 233.300 M229.183 233.700 C 230.164 234.745,231.019 235.600,231.083 235.600 C 231.384 235.600,231.066 235.241,229.300 233.583 L 227.400 231.800 229.183 233.700 M137.891 233.089 C 138.601 233.177,139.861 233.179,140.691 233.092 C 141.521 233.005,140.940 232.933,139.400 232.931 C 137.860 232.929,137.181 233.000,137.891 233.089 M254.300 234.297 C 255.895 234.373,258.505 234.373,260.100 234.297 C 261.695 234.221,260.390 234.159,257.200 234.159 C 254.010 234.159,252.705 234.221,254.300 234.297 M231.744 235.909 C 232.060 236.421,234.400 238.153,234.400 237.875 C 234.400 237.776,233.739 237.191,232.932 236.575 C 232.124 235.959,231.589 235.659,231.744 235.909 M128.705 242.683 C 129.202 242.779,129.922 242.775,130.305 242.675 C 130.687 242.575,130.280 242.496,129.400 242.501 C 128.520 242.505,128.207 242.587,128.705 242.683 M135.500 243.098 C 137.315 243.172,140.285 243.172,142.100 243.098 C 143.915 243.023,142.430 242.963,138.800 242.963 C 135.170 242.963,133.685 243.023,135.500 243.098 M263.105 243.083 C 263.602 243.179,264.322 243.175,264.705 243.075 C 265.087 242.975,264.680 242.896,263.800 242.901 C 262.920 242.905,262.607 242.987,263.105 243.083 M250.900 243.476 C 251.285 243.576,251.915 243.576,252.300 243.476 C 252.685 243.375,252.370 243.293,251.600 243.293 C 250.830 243.293,250.515 243.375,250.900 243.476 M259.505 243.483 C 260.002 243.579,260.722 243.575,261.105 243.475 C 261.487 243.375,261.080 243.296,260.200 243.301 C 259.320 243.305,259.007 243.387,259.505 243.483 " stroke="none" fill="#acacac" fill-rule="evenodd"></path></g></svg>