<svg id="svg" version="1.1" xmlns="http://www.w3.org/2000/svg" xmlns:xlink="http://www.w3.org/1999/xlink" width="400" height="400" viewBox="0, 0, 400,400"><g id="svgg"><path id="path0" d="M189.000 51.225 C 187.240 51.425,184.000 51.780,181.800 52.014 C 177.997 52.419,176.637 52.629,171.300 53.632 C 166.848 54.470,161.308 55.788,158.000 56.798 C 157.450 56.966,155.650 57.504,154.000 57.993 C 152.350 58.482,150.687 59.044,150.305 59.241 C 149.923 59.438,149.336 59.600,149.000 59.600 C 148.664 59.600,148.077 59.759,147.695 59.953 C 147.313 60.148,146.550 60.490,146.000 60.713 C 145.450 60.937,144.147 61.498,143.104 61.960 C 142.062 62.422,141.024 62.800,140.799 62.800 C 140.574 62.800,140.077 62.971,139.695 63.181 C 139.313 63.390,136.210 64.904,132.800 66.544 C 129.390 68.184,125.388 70.263,123.907 71.163 C 122.426 72.063,121.031 72.800,120.807 72.800 C 120.583 72.800,120.400 72.980,120.400 73.200 C 120.400 73.420,120.213 73.600,119.985 73.600 C 119.161 73.600,107.135 82.075,103.200 85.429 C 92.978 94.141,84.078 103.436,77.759 112.000 C 72.925 118.551,72.004 119.849,71.525 120.777 C 71.236 121.335,70.325 122.820,69.500 124.077 C 68.675 125.333,68.000 126.463,68.000 126.589 C 68.000 126.714,67.577 127.487,67.060 128.308 C 66.019 129.962,62.236 137.378,60.689 140.800 C 58.392 145.879,58.000 146.812,58.000 147.201 C 58.000 147.426,57.841 147.923,57.647 148.305 C 57.171 149.240,56.582 150.707,56.000 152.400 C 55.736 153.170,55.376 154.160,55.200 154.600 C 54.727 155.785,54.155 157.573,53.600 159.600 C 53.329 160.590,52.959 161.850,52.777 162.400 C 45.312 185.011,45.603 222.619,53.437 247.587 C 53.750 248.584,54.197 250.030,54.430 250.800 C 54.662 251.570,55.012 252.560,55.206 253.000 C 55.401 253.440,55.822 254.610,56.143 255.600 C 58.480 262.817,63.677 273.719,69.108 282.800 C 71.790 287.284,75.034 292.266,75.619 292.800 C 75.740 292.910,76.277 293.630,76.814 294.400 C 78.079 296.217,78.039 296.166,82.830 301.933 C 91.718 312.630,105.196 324.754,115.144 331.000 C 115.494 331.220,116.775 332.047,117.991 332.838 C 121.744 335.281,127.565 338.509,133.000 341.160 C 135.860 342.555,138.892 344.035,139.738 344.448 C 140.584 344.862,141.441 345.200,141.642 345.200 C 141.844 345.200,142.772 345.544,143.704 345.964 C 152.992 350.151,158.098 350.106,160.612 345.815 L 161.600 344.130 161.600 328.822 C 161.600 315.132,161.534 313.540,160.977 313.753 C 157.393 315.129,142.437 315.810,136.800 314.856 C 125.067 312.868,115.319 306.273,111.060 297.440 C 110.306 295.878,108.823 292.805,107.763 290.611 C 104.110 283.048,99.256 277.045,94.000 273.588 C 85.223 267.815,85.134 263.200,93.800 263.200 C 102.385 263.200,111.043 268.971,118.103 279.400 C 123.728 287.708,128.927 292.243,134.800 293.964 C 135.790 294.254,136.960 294.630,137.400 294.799 C 140.696 296.068,149.135 295.889,154.400 294.439 C 155.170 294.227,156.250 293.937,156.800 293.794 C 157.867 293.516,158.548 293.255,160.860 292.241 C 162.139 291.680,162.346 291.391,162.534 289.900 C 162.857 287.335,163.267 285.446,163.595 285.000 C 163.757 284.780,164.019 284.062,164.176 283.405 C 164.651 281.426,167.107 276.860,169.068 274.312 C 171.141 271.618,171.020 271.217,168.131 271.206 C 167.212 271.203,165.502 271.010,164.331 270.779 C 156.096 269.150,154.887 268.874,150.020 267.505 C 143.452 265.658,135.725 262.372,131.645 259.690 C 131.069 259.310,130.305 258.820,129.950 258.600 C 124.100 254.984,118.021 248.978,113.699 242.545 C 100.823 223.377,98.093 189.278,107.845 169.400 C 110.721 163.538,111.354 162.546,115.708 157.076 C 116.788 155.718,117.537 154.401,117.434 154.039 C 114.762 144.646,113.952 135.503,115.226 129.131 C 115.460 127.959,115.840 126.010,116.069 124.800 C 116.537 122.326,118.680 115.239,119.223 114.368 C 119.716 113.576,127.799 113.699,130.800 114.544 C 132.010 114.885,133.450 115.277,134.000 115.415 C 134.550 115.554,135.360 115.812,135.800 115.989 C 136.240 116.166,138.310 116.984,140.400 117.807 C 145.883 119.967,152.004 123.250,158.588 127.560 C 160.849 129.041,162.011 129.575,162.588 129.397 C 174.404 125.749,192.618 123.877,207.700 124.759 C 216.935 125.299,220.362 125.705,228.200 127.185 C 232.166 127.935,236.765 129.001,237.671 129.382 C 238.126 129.573,239.310 129.010,241.353 127.632 C 243.009 126.514,244.552 125.600,244.782 125.600 C 245.012 125.600,245.200 125.441,245.200 125.247 C 245.200 125.052,245.515 124.790,245.900 124.664 C 246.285 124.538,247.410 123.949,248.400 123.355 C 251.061 121.757,258.250 118.260,261.000 117.225 C 262.320 116.728,263.760 116.175,264.200 115.994 C 264.640 115.814,265.450 115.554,266.000 115.415 C 266.550 115.277,267.990 114.885,269.200 114.544 C 272.235 113.689,280.284 113.576,280.786 114.381 C 280.985 114.701,281.622 116.396,282.201 118.148 C 286.033 129.745,286.206 144.325,282.626 154.009 C 282.496 154.361,283.449 155.894,284.982 157.800 C 287.198 160.555,291.111 166.517,291.538 167.789 C 291.614 168.015,292.181 169.280,292.798 170.600 C 296.416 178.339,297.986 186.331,297.985 197.000 C 297.983 213.906,294.390 229.167,287.813 240.200 C 284.676 245.463,278.585 252.477,274.600 255.416 C 273.720 256.065,272.910 256.713,272.800 256.856 C 270.888 259.345,256.387 265.853,248.000 267.986 C 242.785 269.313,242.010 269.486,239.000 269.997 C 237.460 270.258,235.445 270.636,234.523 270.836 C 233.600 271.036,232.055 271.200,231.090 271.200 C 228.640 271.200,228.629 271.332,230.853 274.270 C 231.940 275.706,233.386 277.984,234.066 279.331 C 235.859 282.882,236.592 285.319,237.979 292.331 C 238.246 293.684,238.400 303.494,238.400 319.218 C 238.400 343.643,238.411 343.996,239.242 345.474 C 241.805 350.038,246.088 350.275,255.500 346.373 C 255.995 346.168,256.805 345.838,257.300 345.641 C 264.040 342.950,271.749 339.094,278.800 334.885 C 283.842 331.874,286.174 330.304,292.180 325.871 C 300.067 320.050,311.193 309.349,318.039 301.000 C 322.976 294.980,330.400 284.634,330.400 283.775 C 330.400 283.637,330.785 282.983,331.255 282.323 C 333.093 279.742,341.200 263.651,341.200 262.584 C 341.200 262.361,342.690 258.932,343.233 257.905 C 343.435 257.523,343.600 256.884,343.600 256.485 C 343.600 256.086,343.748 255.589,343.928 255.380 C 344.108 255.171,344.675 253.650,345.188 252.000 C 345.700 250.350,346.385 248.190,346.711 247.200 C 347.037 246.210,347.448 244.770,347.625 244.000 C 347.802 243.230,348.141 241.880,348.379 241.000 C 351.341 230.041,352.600 218.943,352.600 203.800 C 352.600 190.727,352.278 186.843,350.194 174.800 C 349.928 173.262,349.343 170.574,348.800 168.400 C 348.608 167.630,348.242 166.100,347.988 165.000 C 347.734 163.900,347.383 162.640,347.209 162.200 C 347.034 161.760,346.666 160.590,346.392 159.600 C 345.477 156.304,345.040 155.004,344.718 154.620 C 344.543 154.411,344.400 153.837,344.400 153.344 C 344.400 152.851,344.220 152.336,344.000 152.200 C 343.780 152.064,343.600 151.549,343.600 151.056 C 343.600 150.563,343.447 149.989,343.260 149.780 C 343.072 149.571,342.426 148.140,341.822 146.600 C 339.033 139.479,335.468 132.383,330.470 124.000 C 328.599 120.861,325.633 116.343,325.218 116.000 C 325.085 115.890,324.282 114.810,323.434 113.600 C 317.246 104.777,306.092 92.930,297.000 85.523 C 292.209 81.620,280.747 73.532,278.800 72.681 C 278.470 72.536,277.300 71.874,276.200 71.209 C 272.349 68.879,258.185 62.000,257.240 62.000 C 257.081 62.000,256.205 61.640,255.294 61.200 C 254.384 60.760,253.396 60.400,253.099 60.400 C 252.803 60.400,252.389 60.252,252.180 60.072 C 251.971 59.892,250.450 59.330,248.800 58.824 C 247.150 58.319,245.440 57.771,245.000 57.608 C 242.978 56.857,241.273 56.400,240.495 56.400 C 240.029 56.400,239.551 56.244,239.433 56.054 C 239.316 55.864,238.540 55.597,237.710 55.462 C 236.879 55.327,235.390 55.023,234.400 54.785 C 233.410 54.548,231.700 54.184,230.600 53.977 C 229.500 53.770,227.700 53.417,226.600 53.194 C 224.321 52.731,219.932 52.144,214.400 51.564 C 209.074 51.006,192.839 50.789,189.000 51.225 M101.343 269.005 C 100.996 269.907,101.944 270.800,103.249 270.800 C 104.126 270.800,104.400 270.613,104.400 270.014 C 104.400 268.648,101.808 267.793,101.343 269.005 M107.406 274.382 C 106.982 275.717,108.310 277.262,109.760 277.121 C 110.812 277.018,110.983 276.852,110.891 276.021 C 110.656 273.917,107.956 272.647,107.406 274.382 M113.514 282.300 C 113.020 284.689,115.564 287.181,116.875 285.592 C 118.116 284.087,116.609 281.600,114.456 281.600 C 114.017 281.600,113.594 281.915,113.514 282.300 M120.880 290.480 C 119.703 291.657,121.856 295.200,123.748 295.200 C 125.867 295.200,126.092 293.158,124.172 291.347 C 122.675 289.936,121.685 289.675,120.880 290.480 M131.500 297.212 C 129.815 298.242,131.721 300.800,134.174 300.800 C 137.476 300.800,136.930 297.453,133.550 296.975 C 132.807 296.870,131.885 296.977,131.500 297.212 M156.100 297.996 C 154.630 298.892,154.392 300.153,155.574 300.786 C 158.305 302.248,162.316 299.507,159.911 297.823 C 158.725 296.992,157.667 297.040,156.100 297.996 M144.089 299.423 C 142.244 300.715,143.402 302.582,146.049 302.582 C 147.131 302.582,147.867 302.307,148.498 301.667 L 149.400 300.753 148.278 299.776 C 146.991 298.657,145.376 298.521,144.089 299.423 " stroke="none" fill="#fbfbfb" fill-rule="evenodd"></path><path id="path1" d="M33.200 0.293 C 32.210 0.380,31.229 0.619,31.020 0.825 C 30.811 1.031,30.136 1.200,29.520 1.200 C 28.904 1.200,28.400 1.380,28.400 1.600 C 28.400 1.820,27.950 2.000,27.400 2.000 C 26.850 2.000,26.400 2.180,26.400 2.400 C 26.400 2.620,26.040 2.800,25.600 2.800 C 25.160 2.800,24.800 2.980,24.800 3.200 C 24.800 3.420,24.440 3.600,24.000 3.600 C 23.560 3.600,23.200 3.780,23.200 4.000 C 23.200 4.220,22.840 4.400,22.400 4.400 C 21.960 4.400,21.600 4.580,21.600 4.800 C 21.600 5.020,21.280 5.200,20.888 5.200 C 20.497 5.200,19.917 5.560,19.600 6.000 C 19.283 6.440,18.769 6.800,18.459 6.800 C 18.148 6.800,17.603 7.133,17.247 7.541 C 16.891 7.948,16.060 8.560,15.400 8.900 C 13.850 9.699,9.699 13.850,8.900 15.400 C 8.560 16.060,7.948 16.891,7.541 17.247 C 7.133 17.603,6.800 18.148,6.800 18.459 C 6.800 18.769,6.440 19.283,6.000 19.600 C 5.560 19.917,5.200 20.497,5.200 20.888 C 5.200 21.280,5.020 21.600,4.800 21.600 C 4.580 21.600,4.400 21.960,4.400 22.400 C 4.400 22.840,4.220 23.200,4.000 23.200 C 3.780 23.200,3.600 23.560,3.600 24.000 C 3.600 24.440,3.420 24.800,3.200 24.800 C 2.980 24.800,2.800 25.160,2.800 25.600 C 2.800 26.040,2.620 26.400,2.400 26.400 C 2.180 26.400,2.000 26.850,2.000 27.400 C 2.000 27.950,1.820 28.400,1.600 28.400 C 1.380 28.400,1.200 28.904,1.200 29.520 C 1.200 30.136,0.975 30.865,0.700 31.140 C -0.036 31.876,-0.036 368.124,0.700 368.860 C 0.975 369.135,1.200 369.864,1.200 370.480 C 1.200 371.096,1.380 371.600,1.600 371.600 C 1.820 371.600,2.000 372.050,2.000 372.600 C 2.000 373.150,2.180 373.600,2.400 373.600 C 2.620 373.600,2.800 373.960,2.800 374.400 C 2.800 374.840,2.980 375.200,3.200 375.200 C 3.420 375.200,3.600 375.560,3.600 376.000 C 3.600 376.440,3.780 376.800,4.000 376.800 C 4.220 376.800,4.400 377.160,4.400 377.600 C 4.400 378.040,4.580 378.400,4.800 378.400 C 5.020 378.400,5.200 378.720,5.200 379.112 C 5.200 379.503,5.560 380.083,6.000 380.400 C 6.440 380.717,6.800 381.231,6.800 381.541 C 6.800 381.852,7.133 382.397,7.541 382.753 C 7.948 383.109,8.560 383.940,8.900 384.600 C 9.699 386.150,13.850 390.301,15.400 391.100 C 16.060 391.440,16.891 392.052,17.247 392.459 C 17.603 392.867,18.148 393.200,18.459 393.200 C 18.769 393.200,19.283 393.560,19.600 394.000 C 19.917 394.440,20.497 394.800,20.888 394.800 C 21.280 394.800,21.600 394.980,21.600 395.200 C 21.600 395.420,21.960 395.600,22.400 395.600 C 22.840 395.600,23.200 395.780,23.200 396.000 C 23.200 396.220,23.560 396.400,24.000 396.400 C 24.440 396.400,24.800 396.580,24.800 396.800 C 24.800 397.020,25.160 397.200,25.600 397.200 C 26.040 397.200,26.400 397.380,26.400 397.600 C 26.400 397.820,26.850 398.000,27.400 398.000 C 27.950 398.000,28.400 398.180,28.400 398.400 C 28.400 398.620,28.994 398.800,29.720 398.800 C 30.446 398.800,31.265 399.025,31.540 399.300 C 32.276 400.036,367.724 400.036,368.460 399.300 C 368.735 399.025,369.554 398.800,370.280 398.800 C 371.006 398.800,371.600 398.620,371.600 398.400 C 371.600 398.180,372.050 398.000,372.600 398.000 C 373.150 398.000,373.600 397.820,373.600 397.600 C 373.600 397.380,373.960 397.200,374.400 397.200 C 374.840 397.200,375.200 397.020,375.200 396.800 C 375.200 396.580,375.560 396.400,376.000 396.400 C 376.440 396.400,376.800 396.220,376.800 396.000 C 376.800 395.780,377.160 395.600,377.600 395.600 C 378.040 395.600,378.400 395.420,378.400 395.200 C 378.400 394.980,378.720 394.800,379.112 394.800 C 379.503 394.800,380.083 394.440,380.400 394.000 C 380.717 393.560,381.231 393.200,381.541 393.200 C 381.852 393.200,382.397 392.867,382.753 392.459 C 383.109 392.052,383.970 391.425,384.667 391.066 C 386.302 390.224,390.224 386.302,391.066 384.667 C 391.425 383.970,392.052 383.109,392.459 382.753 C 392.867 382.397,393.200 381.852,393.200 381.541 C 393.200 381.231,393.560 380.717,394.000 380.400 C 394.440 380.083,394.800 379.503,394.800 379.112 C 394.800 378.720,394.980 378.400,395.200 378.400 C 395.420 378.400,395.600 378.040,395.600 377.600 C 395.600 377.160,395.780 376.800,396.000 376.800 C 396.220 376.800,396.400 376.440,396.400 376.000 C 396.400 375.560,396.580 375.200,396.800 375.200 C 397.020 375.200,397.200 374.840,397.200 374.400 C 397.200 373.960,397.380 373.600,397.600 373.600 C 397.820 373.600,398.000 373.150,398.000 372.600 C 398.000 372.050,398.180 371.600,398.400 371.600 C 398.620 371.600,398.800 371.006,398.800 370.280 C 398.800 369.554,399.025 368.735,399.300 368.460 C 400.036 367.724,400.036 31.876,399.300 31.140 C 399.025 30.865,398.800 30.136,398.800 29.520 C 398.800 28.904,398.620 28.400,398.400 28.400 C 398.180 28.400,398.000 27.950,398.000 27.400 C 398.000 26.850,397.820 26.400,397.600 26.400 C 397.380 26.400,397.200 26.040,397.200 25.600 C 397.200 25.160,397.020 24.800,396.800 24.800 C 396.580 24.800,396.400 24.440,396.400 24.000 C 396.400 23.560,396.220 23.200,396.000 23.200 C 395.780 23.200,395.600 22.840,395.600 22.400 C 395.600 21.960,395.420 21.600,395.200 21.600 C 394.980 21.600,394.800 21.280,394.800 20.888 C 394.800 20.497,394.440 19.917,394.000 19.600 C 393.560 19.283,393.200 18.769,393.200 18.459 C 393.200 18.148,392.867 17.603,392.459 17.247 C 392.052 16.891,391.420 16.021,391.056 15.314 C 390.242 13.733,386.231 9.751,384.600 8.904 C 383.940 8.562,383.109 7.948,382.753 7.541 C 382.397 7.133,381.852 6.800,381.541 6.800 C 381.231 6.800,380.717 6.440,380.400 6.000 C 380.083 5.560,379.503 5.200,379.112 5.200 C 378.720 5.200,378.400 5.020,378.400 4.800 C 378.400 4.580,378.040 4.400,377.600 4.400 C 377.160 4.400,376.800 4.220,376.800 4.000 C 376.800 3.780,376.440 3.600,376.000 3.600 C 375.560 3.600,375.200 3.420,375.200 3.200 C 375.200 2.980,374.840 2.800,374.400 2.800 C 373.960 2.800,373.600 2.620,373.600 2.400 C 373.600 2.180,373.150 2.000,372.600 2.000 C 372.050 2.000,371.600 1.820,371.600 1.600 C 371.600 1.380,371.096 1.200,370.480 1.200 C 369.864 1.200,369.135 0.975,368.860 0.700 C 368.387 0.227,38.523 -0.173,33.200 0.293 M209.950 50.606 C 214.596 50.815,223.701 51.888,228.200 52.757 C 233.426 53.766,237.590 54.737,240.400 55.600 C 240.950 55.769,242.210 56.132,243.200 56.407 C 246.223 57.247,249.762 58.417,250.495 58.819 C 250.877 59.029,251.464 59.200,251.800 59.200 C 252.136 59.200,252.723 59.359,253.105 59.553 C 253.867 59.941,256.039 60.839,258.900 61.949 C 259.395 62.141,260.610 62.671,261.600 63.125 C 262.590 63.580,264.750 64.561,266.400 65.305 C 269.032 66.492,272.934 68.568,278.169 71.565 C 279.032 72.059,280.777 73.169,282.047 74.032 C 283.317 74.894,284.546 75.600,284.778 75.600 C 285.010 75.600,285.200 75.750,285.200 75.932 C 285.200 76.115,285.695 76.520,286.300 76.832 C 286.905 77.144,287.490 77.490,287.600 77.602 C 287.710 77.714,289.126 78.762,290.747 79.931 C 292.368 81.100,293.898 82.218,294.147 82.416 C 303.140 89.553,314.663 100.936,319.845 107.800 C 320.676 108.900,321.464 109.890,321.597 110.000 C 321.730 110.110,322.271 110.830,322.800 111.600 C 323.329 112.370,323.876 113.090,324.017 113.200 C 326.392 115.059,338.257 135.927,341.245 143.500 C 341.440 143.995,341.756 144.805,341.946 145.300 C 342.579 146.943,343.456 149.106,344.379 151.300 C 344.851 152.423,346.915 158.788,347.590 161.200 C 347.866 162.190,348.235 163.450,348.408 164.000 C 348.897 165.551,349.498 168.163,350.605 173.562 C 354.931 194.644,354.199 222.135,348.777 242.200 C 348.539 243.080,348.253 244.250,348.142 244.800 C 348.031 245.350,347.795 246.160,347.618 246.600 C 347.441 247.040,346.701 249.290,345.973 251.600 C 345.246 253.910,344.530 255.980,344.384 256.200 C 344.237 256.420,343.871 257.455,343.571 258.500 C 343.271 259.545,342.885 260.400,342.713 260.400 C 342.541 260.400,342.400 260.672,342.400 261.005 C 342.400 261.338,342.241 261.923,342.047 262.305 C 341.852 262.687,341.511 263.450,341.287 264.000 C 335.793 277.536,325.985 293.103,315.203 305.400 C 309.564 311.831,299.047 321.650,294.000 325.195 C 293.230 325.736,292.240 326.514,291.800 326.924 C 290.766 327.887,281.199 334.297,278.600 335.768 C 272.981 338.948,271.485 339.749,267.800 341.549 C 262.382 344.196,258.888 345.780,256.100 346.854 C 255.605 347.044,254.795 347.368,254.300 347.574 C 246.486 350.819,241.750 350.422,238.944 346.287 L 237.800 344.600 237.800 320.200 C 237.800 294.978,237.724 293.302,236.315 287.600 C 234.839 281.630,232.761 277.383,229.600 273.876 C 227.454 271.496,227.660 271.116,231.400 270.551 C 256.969 266.689,270.798 260.286,282.243 247.008 C 285.069 243.729,289.840 235.555,291.702 230.800 C 291.917 230.250,292.252 229.487,292.447 229.105 C 292.641 228.723,292.800 228.059,292.800 227.629 C 292.800 227.199,292.960 226.748,293.156 226.627 C 293.351 226.506,293.609 225.821,293.727 225.104 C 294.088 222.923,294.443 221.440,294.805 220.600 C 294.995 220.160,295.258 219.080,295.388 218.200 C 295.519 217.320,295.804 215.520,296.020 214.200 C 297.775 203.502,297.897 192.308,296.350 184.000 C 294.533 174.242,290.073 164.822,283.702 157.287 C 281.695 154.913,281.705 155.057,283.152 149.400 C 285.604 139.809,285.065 129.544,281.518 118.300 L 280.287 114.400 276.569 114.400 C 269.184 114.400,257.609 118.430,247.800 124.415 C 246.700 125.086,245.485 125.738,245.100 125.864 C 244.715 125.990,244.400 126.252,244.400 126.447 C 244.400 126.641,244.210 126.800,243.978 126.800 C 243.746 126.800,242.470 127.538,241.142 128.440 C 238.565 130.190,238.399 130.208,234.400 129.207 C 228.820 127.810,224.395 127.038,215.600 125.930 C 213.417 125.655,206.780 125.451,200.000 125.451 C 189.116 125.451,185.881 125.647,178.000 126.784 C 174.503 127.288,170.038 128.191,166.000 129.211 C 161.770 130.279,161.521 130.241,158.257 128.038 C 156.595 126.917,155.048 126.000,154.818 126.000 C 154.588 126.000,154.399 125.865,154.397 125.700 C 154.395 125.535,153.990 125.199,153.497 124.954 C 153.004 124.709,150.454 123.378,147.831 121.997 C 138.058 116.852,130.183 114.400,123.434 114.400 L 119.717 114.400 118.672 117.700 C 114.608 130.534,114.283 141.497,117.649 152.173 C 118.472 154.783,118.432 154.926,116.216 157.400 C 114.978 158.782,111.652 163.582,110.358 165.853 C 109.524 167.316,109.104 168.140,107.200 172.038 C 106.760 172.939,106.400 173.983,106.400 174.358 C 106.400 174.733,106.251 175.211,106.070 175.420 C 105.888 175.629,105.507 176.610,105.223 177.600 C 104.939 178.590,104.566 179.850,104.394 180.400 C 103.276 183.966,102.255 194.434,102.564 199.158 C 103.379 211.612,104.199 217.180,106.340 224.800 C 113.037 248.633,132.138 264.523,159.709 269.200 C 160.859 269.395,163.330 269.831,165.200 270.170 C 167.070 270.508,169.281 270.789,170.113 270.793 C 172.227 270.803,172.397 271.652,170.653 273.493 C 167.316 277.017,164.714 282.601,163.083 289.741 C 162.507 292.263,160.446 294.000,158.029 294.000 C 157.599 294.000,157.136 294.180,157.000 294.400 C 156.864 294.620,156.259 294.800,155.656 294.800 C 155.053 294.800,154.389 294.962,154.180 295.159 C 152.650 296.604,139.038 296.610,136.305 295.167 C 135.923 294.965,135.363 294.800,135.061 294.800 C 130.960 294.800,122.164 287.150,117.373 279.416 C 113.333 272.898,107.209 267.687,100.800 265.316 C 95.067 263.196,87.600 263.931,87.600 266.615 C 87.600 267.645,93.584 273.200,94.693 273.200 C 96.181 273.200,106.400 285.015,106.400 286.735 C 106.400 286.954,106.536 287.193,106.702 287.267 C 106.988 287.393,109.243 291.863,110.098 294.000 C 110.729 295.575,112.889 299.779,113.182 300.000 C 113.327 300.110,113.727 300.610,114.069 301.112 C 116.465 304.620,121.508 308.767,125.800 310.759 C 126.900 311.270,128.113 311.848,128.495 312.044 C 128.877 312.240,129.516 312.400,129.915 312.400 C 130.314 312.400,130.811 312.547,131.020 312.727 C 131.478 313.121,134.311 313.765,138.464 314.419 C 141.822 314.947,151.519 314.709,156.000 313.989 C 157.430 313.759,159.345 313.471,160.256 313.348 L 161.912 313.126 162.195 319.663 C 162.649 330.156,162.323 344.395,161.600 345.600 C 159.841 348.531,157.727 349.700,154.185 349.700 C 151.437 349.700,148.537 348.847,143.104 346.440 C 142.062 345.978,141.052 345.600,140.861 345.600 C 140.669 345.600,139.452 345.079,138.156 344.441 C 136.860 343.804,134.450 342.632,132.800 341.837 C 125.531 338.335,112.343 330.511,110.800 328.785 C 110.690 328.662,109.970 328.129,109.200 327.600 C 108.430 327.071,107.710 326.531,107.600 326.400 C 107.490 326.269,106.770 325.723,106.000 325.188 C 104.449 324.109,104.150 323.862,99.000 319.399 C 93.605 314.723,89.981 311.125,85.260 305.758 C 80.679 300.551,80.695 300.571,78.000 296.991 C 77.010 295.676,76.065 294.540,75.900 294.467 C 75.735 294.393,75.600 294.093,75.600 293.800 C 75.600 293.507,75.450 293.207,75.266 293.133 C 74.372 292.776,66.624 280.316,63.991 275.000 C 63.446 273.900,62.865 272.940,62.700 272.867 C 62.535 272.793,62.401 272.523,62.403 272.267 C 62.405 272.010,61.664 270.270,60.755 268.400 C 59.847 266.530,58.946 264.595,58.752 264.100 C 57.982 262.130,57.646 261.324,56.840 259.504 C 56.378 258.462,56.000 257.424,56.000 257.199 C 56.000 256.974,55.829 256.477,55.619 256.095 C 54.468 253.998,51.410 243.350,50.020 236.600 C 48.170 227.621,47.602 224.212,47.590 222.033 C 47.585 221.025,47.403 219.480,47.185 218.600 C 46.654 216.458,46.619 192.307,47.142 188.897 C 47.369 187.414,47.760 184.490,48.011 182.400 C 48.262 180.310,48.617 177.880,48.801 177.000 C 48.984 176.120,49.348 174.320,49.608 173.000 C 50.208 169.967,51.941 162.582,52.424 161.000 C 53.366 157.920,55.281 152.109,55.621 151.300 C 55.830 150.805,56.180 149.950,56.400 149.400 C 56.620 148.850,57.004 147.905,57.254 147.300 C 57.503 146.695,57.840 145.840,58.003 145.400 C 60.763 137.935,73.404 115.258,75.952 113.200 C 76.089 113.090,77.367 111.470,78.793 109.600 C 85.698 100.544,96.868 89.366,105.600 82.772 C 107.470 81.360,109.090 80.097,109.200 79.966 C 109.508 79.597,121.552 71.600,121.798 71.600 C 121.918 71.600,122.687 71.177,123.508 70.660 C 125.267 69.552,134.363 64.924,137.800 63.388 C 140.580 62.146,141.829 61.625,145.200 60.300 C 145.750 60.084,146.513 59.748,146.895 59.553 C 147.277 59.359,147.941 59.200,148.371 59.200 C 148.801 59.200,149.264 59.020,149.400 58.800 C 149.536 58.580,150.076 58.400,150.600 58.400 C 151.124 58.400,151.664 58.220,151.800 58.000 C 151.936 57.780,152.399 57.600,152.829 57.600 C 153.259 57.600,153.923 57.438,154.305 57.239 C 154.687 57.040,155.810 56.660,156.800 56.393 C 157.790 56.126,159.050 55.769,159.600 55.600 C 170.253 52.327,190.601 49.762,202.000 50.254 C 203.650 50.325,207.228 50.483,209.950 50.606 M104.246 268.609 C 105.481 269.845,105.353 270.857,103.895 271.369 C 101.870 272.081,99.614 269.643,101.009 268.249 C 101.938 267.319,103.084 267.447,104.246 268.609 M110.964 274.431 C 113.413 277.341,110.876 279.548,107.833 277.154 C 106.833 276.368,106.374 274.159,107.067 273.467 C 107.819 272.714,109.967 273.245,110.964 274.431 M117.100 282.237 C 118.086 283.340,118.311 285.529,117.520 286.320 C 116.293 287.547,114.075 286.504,112.850 284.126 C 111.393 281.298,114.877 279.749,117.100 282.237 M124.769 290.831 C 126.832 292.894,126.342 295.600,123.906 295.600 C 121.391 295.600,119.311 292.948,120.085 290.728 C 120.666 289.061,123.052 289.113,124.769 290.831 M134.681 296.495 C 137.764 297.860,137.931 300.700,134.972 301.443 C 133.059 301.923,130.486 300.542,130.342 298.958 C 130.110 296.410,132.029 295.321,134.681 296.495 M160.469 297.462 C 162.345 299.161,160.305 302.000,157.208 302.000 C 155.964 302.000,154.000 300.523,154.000 299.587 C 154.000 297.488,158.767 295.922,160.469 297.462 M148.711 299.023 C 150.839 300.513,149.101 303.209,146.025 303.187 C 143.749 303.171,142.667 302.402,142.667 300.800 C 142.667 298.604,146.502 297.476,148.711 299.023 " stroke="none" fill="#040404" fill-rule="evenodd"></path><path id="path2" d="M199.100 50.682 C 199.595 50.778,200.405 50.778,200.900 50.682 C 201.395 50.587,200.990 50.509,200.000 50.509 C 199.010 50.509,198.605 50.587,199.100 50.682 M93.978 93.100 L 92.600 94.600 94.100 93.222 C 95.496 91.938,95.784 91.600,95.478 91.600 C 95.412 91.600,94.737 92.275,93.978 93.100 M191.105 125.083 C 191.602 125.179,192.322 125.175,192.705 125.075 C 193.087 124.975,192.680 124.896,191.800 124.901 C 190.920 124.905,190.607 124.987,191.105 125.083 M207.700 125.076 C 208.085 125.176,208.715 125.176,209.100 125.076 C 209.485 124.975,209.170 124.893,208.400 124.893 C 207.630 124.893,207.315 124.975,207.700 125.076 M114.893 140.000 C 114.893 140.770,114.975 141.085,115.076 140.700 C 115.176 140.315,115.176 139.685,115.076 139.300 C 114.975 138.915,114.893 139.230,114.893 140.000 M238.174 307.200 C 238.174 312.810,238.230 315.105,238.299 312.300 C 238.368 309.495,238.368 304.905,238.299 302.100 C 238.230 299.295,238.174 301.590,238.174 307.200 M94.000 314.525 C 94.000 314.594,94.585 315.179,95.300 315.825 L 96.600 317.000 95.425 315.700 C 94.330 314.488,94.000 314.216,94.000 314.525 M143.513 315.095 C 144.676 315.176,146.476 315.176,147.513 315.093 C 148.551 315.011,147.600 314.945,145.400 314.946 C 143.200 314.947,142.351 315.014,143.513 315.095 M153.505 349.483 C 154.002 349.579,154.722 349.575,155.105 349.475 C 155.487 349.375,155.080 349.296,154.200 349.301 C 153.320 349.305,153.007 349.387,153.505 349.483 M245.105 349.483 C 245.602 349.579,246.322 349.575,246.705 349.475 C 247.087 349.375,246.680 349.296,245.800 349.301 C 244.920 349.305,244.607 349.387,245.105 349.483 " stroke="none" fill="#7c7c7c" fill-rule="evenodd"></path><path id="path3" d="M186.800 51.200 C 185.184 51.451,185.143 51.482,186.400 51.500 C 187.170 51.512,188.790 51.384,190.000 51.217 C 192.171 50.917,192.176 50.913,190.400 50.916 C 189.410 50.918,187.790 51.046,186.800 51.200 M210.000 51.217 C 211.210 51.384,212.830 51.515,213.600 51.507 C 214.722 51.496,214.603 51.431,213.000 51.182 C 211.900 51.010,210.280 50.880,209.400 50.891 C 208.007 50.910,208.084 50.952,210.000 51.217 M179.800 52.000 C 178.137 52.423,179.774 52.442,181.800 52.023 C 183.145 51.745,183.209 51.692,182.200 51.693 C 181.540 51.694,180.460 51.832,179.800 52.000 M218.600 52.023 C 219.480 52.205,220.650 52.344,221.200 52.331 C 221.841 52.316,221.626 52.189,220.600 51.977 C 219.720 51.795,218.550 51.656,218.000 51.669 C 217.359 51.684,217.574 51.811,218.600 52.023 M174.400 52.800 C 173.596 53.057,173.557 53.123,174.200 53.132 C 174.640 53.138,175.360 52.989,175.800 52.800 C 176.819 52.362,175.768 52.362,174.400 52.800 M224.600 52.800 C 225.040 52.989,225.760 53.138,226.200 53.132 C 226.843 53.123,226.804 53.057,226.000 52.800 C 224.632 52.362,223.581 52.362,224.600 52.800 M169.800 53.600 L 169.000 53.944 169.800 53.944 C 170.240 53.944,170.960 53.789,171.400 53.600 L 172.200 53.256 171.400 53.256 C 170.960 53.256,170.240 53.411,169.800 53.600 M228.600 53.600 C 229.040 53.789,229.760 53.944,230.200 53.944 L 231.000 53.944 230.200 53.600 C 229.760 53.411,229.040 53.256,228.600 53.256 L 227.800 53.256 228.600 53.600 M166.200 54.400 C 165.696 54.617,165.622 54.744,166.000 54.744 C 166.330 54.744,166.960 54.589,167.400 54.400 C 167.904 54.183,167.978 54.056,167.600 54.056 C 167.270 54.056,166.640 54.211,166.200 54.400 M232.800 54.382 C 233.130 54.605,233.745 54.791,234.167 54.794 C 235.190 54.802,234.871 54.573,233.400 54.244 C 232.524 54.048,232.362 54.085,232.800 54.382 M162.600 55.200 L 161.800 55.544 162.600 55.566 C 163.040 55.578,163.670 55.413,164.000 55.200 C 164.795 54.686,163.796 54.686,162.600 55.200 M236.200 55.200 C 236.640 55.389,237.270 55.544,237.600 55.544 C 237.978 55.544,237.904 55.417,237.400 55.200 C 236.960 55.011,236.330 54.856,236.000 54.856 C 235.622 54.856,235.696 54.983,236.200 55.200 M142.000 62.000 C 141.010 62.415,140.403 62.765,140.651 62.778 C 141.218 62.806,144.000 61.657,144.000 61.395 C 144.000 61.148,144.112 61.114,142.000 62.000 M260.000 62.989 C 260.000 63.306,262.900 64.433,263.128 64.205 C 263.241 64.092,263.235 64.000,263.116 64.000 C 262.996 64.000,262.246 63.728,261.449 63.395 C 260.652 63.062,260.000 62.879,260.000 62.989 M135.600 64.800 C 134.830 65.222,134.380 65.566,134.600 65.566 C 134.820 65.566,135.630 65.222,136.400 64.800 C 137.170 64.378,137.620 64.034,137.400 64.034 C 137.180 64.034,136.370 64.378,135.600 64.800 M123.500 71.029 C 122.005 71.840,122.096 72.178,123.600 71.400 C 124.260 71.059,124.800 70.694,124.800 70.590 C 124.800 70.332,124.757 70.347,123.500 71.029 M282.000 74.518 C 282.000 74.608,283.260 75.520,284.800 76.545 C 286.340 77.569,287.600 78.322,287.600 78.218 C 287.600 78.115,286.565 77.334,285.300 76.485 C 282.499 74.602,282.000 74.305,282.000 74.518 M108.785 80.829 L 107.400 82.058 108.900 80.981 C 110.226 80.030,110.657 79.600,110.285 79.600 C 110.222 79.600,109.547 80.153,108.785 80.829 M289.800 79.899 C 290.020 80.129,291.460 81.247,293.000 82.383 C 294.540 83.519,295.170 83.883,294.400 83.192 C 293.012 81.946,289.032 79.097,289.800 79.899 M102.443 85.623 C 101.917 86.061,101.557 86.490,101.643 86.576 C 101.730 86.662,102.305 86.297,102.922 85.766 C 103.540 85.235,103.900 84.806,103.722 84.813 C 103.545 84.821,102.970 85.185,102.443 85.623 M298.000 86.125 C 298.000 86.194,298.585 86.779,299.300 87.425 L 300.600 88.600 299.425 87.300 C 298.330 86.088,298.000 85.816,298.000 86.125 M99.775 88.100 L 98.600 89.400 99.900 88.225 C 101.112 87.130,101.384 86.800,101.075 86.800 C 101.006 86.800,100.421 87.385,99.775 88.100 M300.838 88.900 C 300.932 88.955,301.727 89.630,302.604 90.400 L 304.200 91.800 302.822 90.300 C 302.063 89.475,301.268 88.800,301.055 88.800 C 300.841 88.800,300.744 88.845,300.838 88.900 M96.581 90.900 L 95.000 92.600 96.700 91.019 C 97.635 90.149,98.400 89.384,98.400 89.319 C 98.400 89.016,98.052 89.319,96.581 90.900 M307.601 94.973 C 308.590 96.059,309.625 97.197,309.900 97.502 C 310.175 97.807,310.400 97.903,310.400 97.715 C 310.400 97.527,309.365 96.389,308.101 95.186 L 305.802 93.000 307.601 94.973 M86.743 100.720 C 85.564 101.995,83.814 104.020,82.854 105.220 C 81.014 107.516,81.901 106.606,86.476 101.500 C 88.004 99.795,89.171 98.400,89.070 98.400 C 88.969 98.400,87.922 99.444,86.743 100.720 M313.000 100.800 C 313.859 101.680,314.652 102.400,314.762 102.400 C 314.872 102.400,314.259 101.680,313.400 100.800 C 312.541 99.920,311.748 99.200,311.638 99.200 C 311.528 99.200,312.141 99.920,313.000 100.800 M314.800 102.925 C 314.800 102.994,315.385 103.579,316.100 104.225 L 317.400 105.400 316.225 104.100 C 315.130 102.888,314.800 102.616,314.800 102.925 M317.601 105.833 C 317.602 106.035,318.336 107.010,319.234 108.000 L 320.865 109.800 319.347 107.800 C 318.511 106.700,317.777 105.725,317.714 105.633 C 317.651 105.542,317.600 105.632,317.601 105.833 M77.775 111.468 C 77.159 112.276,76.859 112.811,77.109 112.656 C 77.621 112.340,79.353 110.000,79.075 110.000 C 78.976 110.000,78.391 110.661,77.775 111.468 M323.502 113.762 C 324.326 114.976,325.135 115.976,325.299 115.985 C 325.634 116.002,322.932 112.129,322.365 111.778 C 322.166 111.655,322.678 112.548,323.502 113.762 M75.008 115.242 C 74.201 116.365,73.732 117.165,73.966 117.021 C 74.452 116.720,76.932 113.200,76.657 113.200 C 76.557 113.200,75.815 114.119,75.008 115.242 M121.700 113.891 C 122.525 113.978,123.875 113.978,124.700 113.891 C 125.525 113.805,124.850 113.734,123.200 113.734 C 121.550 113.734,120.875 113.805,121.700 113.891 M275.300 113.891 C 276.125 113.978,277.475 113.978,278.300 113.891 C 279.125 113.805,278.450 113.734,276.800 113.734 C 275.150 113.734,274.475 113.805,275.300 113.891 M128.800 114.400 C 130.168 114.838,131.219 114.838,130.200 114.400 C 129.760 114.211,129.040 114.062,128.600 114.068 C 127.957 114.077,127.996 114.143,128.800 114.400 M269.800 114.400 C 268.781 114.838,269.832 114.838,271.200 114.400 C 272.004 114.143,272.043 114.077,271.400 114.068 C 270.960 114.062,270.240 114.211,269.800 114.400 M143.633 119.352 C 144.041 119.724,148.000 121.593,148.000 121.413 C 148.000 121.188,144.180 119.200,143.747 119.200 C 143.593 119.200,143.542 119.268,143.633 119.352 M116.629 121.829 C 116.481 122.415,116.438 122.972,116.532 123.066 C 116.627 123.160,116.824 122.758,116.971 122.171 C 117.119 121.585,117.162 121.028,117.068 120.934 C 116.973 120.840,116.776 121.242,116.629 121.829 M282.856 121.200 C 282.856 121.530,283.011 122.160,283.200 122.600 C 283.417 123.104,283.544 123.178,283.544 122.800 C 283.544 122.470,283.389 121.840,283.200 121.400 C 282.983 120.896,282.856 120.822,282.856 121.200 M70.143 122.524 C 69.138 124.052,68.581 125.079,68.913 124.790 C 69.387 124.376,71.237 121.504,71.111 121.377 C 71.040 121.307,70.605 121.823,70.143 122.524 M330.200 123.600 C 330.541 124.260,330.911 124.800,331.021 124.800 C 331.131 124.800,330.941 124.260,330.600 123.600 C 330.259 122.940,329.889 122.400,329.779 122.400 C 329.669 122.400,329.859 122.940,330.200 123.600 M247.200 124.036 C 246.536 124.579,246.469 124.715,247.000 124.440 C 248.305 123.766,249.028 123.212,248.600 123.215 C 248.380 123.217,247.750 123.586,247.200 124.036 M152.800 124.179 C 152.800 124.289,153.340 124.659,154.000 125.000 C 154.660 125.341,155.200 125.531,155.200 125.421 C 155.200 125.311,154.660 124.941,154.000 124.600 C 153.340 124.259,152.800 124.069,152.800 124.179 M283.668 124.600 C 283.662 125.040,283.811 125.760,284.000 126.200 C 284.438 127.219,284.438 126.168,284.000 124.800 C 283.743 123.996,283.677 123.957,283.668 124.600 M115.800 125.600 C 115.648 126.291,115.607 126.941,115.709 127.042 C 115.811 127.144,116.009 126.653,116.150 125.950 C 116.483 124.283,116.160 123.960,115.800 125.600 M196.900 124.697 C 198.605 124.772,201.395 124.772,203.100 124.697 C 204.805 124.622,203.410 124.561,200.000 124.561 C 196.590 124.561,195.195 124.622,196.900 124.697 M184.800 125.188 C 184.250 125.357,185.240 125.405,187.000 125.293 C 188.760 125.182,190.275 125.025,190.367 124.945 C 190.684 124.668,185.795 124.881,184.800 125.188 M209.633 124.945 C 209.725 125.025,211.240 125.182,213.000 125.293 C 214.760 125.405,215.750 125.357,215.200 125.188 C 214.205 124.881,209.316 124.668,209.633 124.945 M178.600 126.003 C 178.085 126.226,178.513 126.267,179.800 126.118 C 180.900 125.991,181.875 125.823,181.967 125.744 C 182.314 125.445,179.364 125.672,178.600 126.003 M218.033 125.744 C 218.125 125.823,219.100 125.991,220.200 126.118 C 221.487 126.267,221.915 126.226,221.400 126.003 C 220.636 125.672,217.686 125.445,218.033 125.744 M243.200 126.436 C 242.536 126.979,242.469 127.115,243.000 126.840 C 244.305 126.166,245.028 125.612,244.600 125.615 C 244.380 125.617,243.750 125.986,243.200 126.436 M173.800 126.819 C 173.242 127.071,173.485 127.107,174.600 126.938 C 175.480 126.804,176.275 126.628,176.367 126.547 C 176.710 126.244,174.568 126.471,173.800 126.819 M223.633 126.547 C 223.725 126.628,224.520 126.804,225.400 126.938 C 226.515 127.107,226.758 127.071,226.200 126.819 C 225.432 126.471,223.290 126.244,223.633 126.547 M169.600 127.618 C 169.162 127.915,169.324 127.952,170.200 127.756 C 171.671 127.427,171.990 127.198,170.967 127.206 C 170.545 127.209,169.930 127.395,169.600 127.618 M228.433 127.344 C 228.525 127.423,229.140 127.608,229.800 127.756 C 230.676 127.952,230.838 127.915,230.400 127.618 C 229.860 127.253,228.032 126.998,228.433 127.344 M166.000 128.400 C 165.205 128.914,166.204 128.914,167.400 128.400 L 168.200 128.056 167.400 128.034 C 166.960 128.022,166.330 128.187,166.000 128.400 M232.033 128.144 C 232.125 128.223,232.740 128.408,233.400 128.556 C 234.276 128.752,234.438 128.715,234.000 128.418 C 233.460 128.053,231.632 127.798,232.033 128.144 M284.476 128.800 C 284.467 129.350,284.603 130.610,284.780 131.600 C 285.020 132.950,285.107 133.100,285.127 132.200 C 285.142 131.540,285.005 130.280,284.823 129.400 C 284.616 128.398,284.486 128.174,284.476 128.800 M333.160 128.600 C 333.834 129.905,334.388 130.628,334.385 130.200 C 334.383 129.980,334.014 129.350,333.564 128.800 C 333.021 128.136,332.885 128.069,333.160 128.600 M115.053 130.036 C 114.914 130.731,114.822 131.863,114.849 132.550 C 114.878 133.294,115.038 132.840,115.243 131.428 C 115.611 128.904,115.476 127.918,115.053 130.036 M235.233 128.944 C 235.325 129.023,235.940 129.208,236.600 129.356 C 237.476 129.552,237.638 129.515,237.200 129.218 C 236.660 128.853,234.832 128.598,235.233 128.944 M64.000 133.200 C 63.334 134.520,62.878 135.600,62.988 135.600 C 63.098 135.600,63.734 134.520,64.400 133.200 C 65.066 131.880,65.522 130.800,65.412 130.800 C 65.302 130.800,64.666 131.880,64.000 133.200 M335.200 132.149 C 335.200 132.581,336.789 135.600,337.016 135.600 C 337.126 135.600,336.830 134.835,336.359 133.900 C 335.432 132.061,335.200 131.711,335.200 132.149 M61.600 137.684 C 61.600 137.804,61.328 138.554,60.995 139.351 C 60.662 140.148,60.479 140.800,60.589 140.800 C 60.906 140.800,62.033 137.900,61.805 137.672 C 61.692 137.559,61.600 137.565,61.600 137.684 M338.028 137.800 C 338.028 138.020,338.286 138.650,338.600 139.200 C 338.914 139.750,339.172 140.020,339.172 139.800 C 339.172 139.580,338.914 138.950,338.600 138.400 C 338.286 137.850,338.028 137.580,338.028 137.800 M114.886 142.400 C 114.883 143.170,115.024 144.250,115.200 144.800 C 115.650 146.204,115.665 144.737,115.223 142.600 L 114.892 141.000 114.886 142.400 M284.633 143.633 C 284.483 144.766,284.441 145.774,284.539 145.872 C 284.637 145.971,284.845 145.128,285.000 144.000 C 285.155 142.872,285.198 141.864,285.094 141.761 C 284.991 141.658,284.784 142.500,284.633 143.633 M340.446 143.000 C 340.453 143.220,340.806 144.120,341.229 145.000 C 341.652 145.880,341.886 146.150,341.749 145.600 C 341.467 144.467,340.425 142.388,340.446 143.000 M115.668 147.400 C 115.662 147.840,115.811 148.560,116.000 149.000 C 116.438 150.019,116.438 148.968,116.000 147.600 C 115.743 146.796,115.677 146.757,115.668 147.400 M283.829 148.229 C 283.681 148.815,283.638 149.372,283.732 149.466 C 283.827 149.560,284.024 149.158,284.171 148.571 C 284.319 147.985,284.362 147.428,284.268 147.334 C 284.173 147.240,283.976 147.642,283.829 148.229 M283.029 151.429 C 282.881 152.015,282.838 152.572,282.932 152.666 C 283.027 152.760,283.224 152.358,283.371 151.771 C 283.519 151.185,283.562 150.628,283.468 150.534 C 283.373 150.440,283.176 150.842,283.029 151.429 M117.393 153.854 C 117.551 154.435,117.273 155.141,116.527 156.054 C 115.639 157.141,115.606 157.247,116.351 156.604 C 117.716 155.428,118.109 154.510,117.598 153.695 C 117.217 153.087,117.191 153.107,117.393 153.854 M282.241 153.836 C 281.977 154.526,282.964 156.126,284.441 157.400 C 284.951 157.840,284.699 157.401,283.881 156.425 C 282.901 155.255,282.472 154.402,282.624 153.925 C 282.907 153.032,282.579 152.957,282.241 153.836 M285.991 159.588 C 286.457 160.241,287.042 160.902,287.291 161.056 C 287.541 161.211,287.241 160.676,286.625 159.868 C 285.288 158.115,284.784 157.892,285.991 159.588 M111.667 162.267 C 110.462 164.104,110.730 164.372,111.967 162.567 C 112.488 161.805,112.842 161.109,112.753 161.020 C 112.664 160.930,112.175 161.491,111.667 162.267 M289.000 164.000 C 289.341 164.660,289.711 165.200,289.821 165.200 C 289.931 165.200,289.741 164.660,289.400 164.000 C 289.059 163.340,288.689 162.800,288.579 162.800 C 288.469 162.800,288.659 163.340,289.000 164.000 M51.829 164.629 C 51.681 165.215,51.638 165.772,51.732 165.866 C 51.827 165.960,52.024 165.558,52.171 164.971 C 52.319 164.385,52.362 163.828,52.268 163.734 C 52.173 163.640,51.976 164.042,51.829 164.629 M290.586 166.700 C 290.935 167.415,291.306 168.000,291.410 168.000 C 291.808 168.000,291.552 167.363,290.767 166.400 L 289.952 165.400 290.586 166.700 M51.029 167.829 C 50.881 168.415,50.838 168.972,50.932 169.066 C 51.027 169.160,51.224 168.758,51.371 168.171 C 51.519 167.585,51.562 167.028,51.468 166.934 C 51.373 166.840,51.176 167.242,51.029 167.829 M349.256 170.400 C 349.256 170.730,349.411 171.360,349.600 171.800 C 349.817 172.304,349.944 172.378,349.944 172.000 C 349.944 171.670,349.789 171.040,349.600 170.600 C 349.383 170.096,349.256 170.022,349.256 170.400 M50.249 171.015 C 50.112 171.373,50.015 171.966,50.034 172.333 C 50.053 172.700,50.227 172.469,50.421 171.820 C 50.798 170.558,50.665 169.933,50.249 171.015 M105.858 173.704 C 104.928 176.140,105.080 176.604,106.036 174.247 C 106.472 173.173,106.758 172.224,106.672 172.138 C 106.586 172.052,106.220 172.757,105.858 173.704 M350.068 174.400 C 350.088 175.439,350.718 177.146,350.732 176.200 C 350.738 175.760,350.589 175.040,350.400 174.600 C 350.189 174.110,350.061 174.032,350.068 174.400 M104.440 177.840 C 104.210 178.673,104.094 179.427,104.182 179.515 C 104.270 179.603,104.530 178.993,104.760 178.160 C 104.990 177.327,105.106 176.573,105.018 176.485 C 104.930 176.397,104.670 177.007,104.440 177.840 M351.062 179.800 C 351.196 180.680,351.372 181.475,351.453 181.567 C 351.756 181.910,351.529 179.768,351.181 179.000 C 350.929 178.442,350.893 178.685,351.062 179.800 M48.493 181.200 C 48.493 181.970,48.575 182.285,48.676 181.900 C 48.776 181.515,48.776 180.885,48.676 180.500 C 48.575 180.115,48.493 180.430,48.493 181.200 M296.028 180.833 C 296.044 181.365,296.219 182.160,296.419 182.600 C 296.671 183.158,296.707 182.915,296.538 181.800 C 296.255 179.943,295.987 179.436,296.028 180.833 M103.450 181.650 C 103.117 183.317,103.440 183.640,103.800 182.000 C 103.952 181.309,103.993 180.659,103.891 180.558 C 103.789 180.456,103.591 180.947,103.450 181.650 M296.893 184.800 C 296.893 185.570,296.975 185.885,297.076 185.500 C 297.176 185.115,297.176 184.485,297.076 184.100 C 296.975 183.715,296.893 184.030,296.893 184.800 M102.633 186.033 C 102.483 187.166,102.441 188.174,102.539 188.272 C 102.637 188.371,102.845 187.528,103.000 186.400 C 103.155 185.272,103.198 184.264,103.094 184.161 C 102.991 184.058,102.784 184.900,102.633 186.033 M352.109 187.600 C 352.109 188.590,352.187 188.995,352.282 188.500 C 352.378 188.005,352.378 187.195,352.282 186.700 C 352.187 186.205,352.109 186.610,352.109 187.600 M47.720 188.400 C 47.720 189.610,47.795 190.105,47.887 189.500 C 47.978 188.895,47.978 187.905,47.887 187.300 C 47.795 186.695,47.720 187.190,47.720 188.400 M297.769 197.200 C 297.769 201.710,297.827 203.555,297.898 201.300 C 297.970 199.045,297.970 195.355,297.898 193.100 C 297.827 190.845,297.769 192.690,297.769 197.200 M102.166 196.800 C 102.166 200.870,102.225 202.535,102.298 200.500 C 102.371 198.465,102.371 195.135,102.298 193.100 C 102.225 191.065,102.166 192.730,102.166 196.800 M352.509 192.800 C 352.509 193.790,352.587 194.195,352.682 193.700 C 352.778 193.205,352.778 192.395,352.682 191.900 C 352.587 191.405,352.509 191.810,352.509 192.800 M47.301 193.000 C 47.305 193.880,47.387 194.193,47.483 193.695 C 47.579 193.198,47.575 192.478,47.475 192.095 C 47.375 191.713,47.296 192.120,47.301 193.000 M352.972 203.800 C 352.972 208.860,353.029 210.875,353.099 208.277 C 353.169 205.680,353.168 201.540,353.098 199.077 C 353.028 196.615,352.971 198.740,352.972 203.800 M46.970 203.600 C 46.970 208.330,47.028 210.265,47.098 207.900 C 47.169 205.535,47.169 201.665,47.098 199.300 C 47.028 196.935,46.970 198.870,46.970 203.600 M102.493 207.600 C 102.493 208.370,102.575 208.685,102.676 208.300 C 102.776 207.915,102.776 207.285,102.676 206.900 C 102.575 206.515,102.493 206.830,102.493 207.600 M102.901 210.600 C 102.905 211.480,102.987 211.793,103.083 211.295 C 103.179 210.798,103.175 210.078,103.075 209.695 C 102.975 209.313,102.896 209.720,102.901 210.600 M296.909 210.800 C 296.909 211.790,296.987 212.195,297.082 211.700 C 297.178 211.205,297.178 210.395,297.082 209.900 C 296.987 209.405,296.909 209.810,296.909 210.800 M47.314 215.000 C 47.317 216.100,47.395 216.503,47.487 215.895 C 47.579 215.286,47.577 214.386,47.482 213.895 C 47.387 213.403,47.311 213.900,47.314 215.000 M103.287 213.800 C 103.291 214.240,103.432 215.140,103.600 215.800 C 103.874 216.878,103.906 216.898,103.913 216.000 C 103.917 215.450,103.776 214.550,103.600 214.000 C 103.349 213.216,103.281 213.173,103.287 213.800 M352.514 215.000 C 352.517 216.100,352.595 216.503,352.687 215.895 C 352.779 215.286,352.777 214.386,352.682 213.895 C 352.587 213.403,352.511 213.900,352.514 215.000 M47.724 219.400 C 47.726 220.720,47.801 221.212,47.890 220.493 C 47.979 219.774,47.977 218.694,47.886 218.093 C 47.795 217.492,47.722 218.080,47.724 219.400 M352.114 220.200 C 352.117 221.300,352.195 221.703,352.287 221.095 C 352.379 220.486,352.377 219.586,352.282 219.095 C 352.187 218.603,352.111 219.100,352.114 220.200 M104.433 219.800 C 104.422 220.240,104.667 221.410,104.979 222.400 C 105.712 224.724,105.735 223.615,105.009 221.000 C 104.704 219.900,104.445 219.360,104.433 219.800 M295.050 220.850 C 294.909 221.553,294.869 222.202,294.959 222.292 C 295.050 222.383,295.248 221.891,295.400 221.200 C 295.552 220.509,295.593 219.859,295.491 219.758 C 295.389 219.656,295.191 220.147,295.050 220.850 M294.446 223.267 C 294.421 223.634,294.296 224.264,294.170 224.667 C 293.952 225.362,293.963 225.363,294.397 224.687 C 294.648 224.296,294.773 223.666,294.673 223.287 C 294.511 222.668,294.488 222.666,294.446 223.267 M105.844 225.400 C 106.173 226.871,106.402 227.190,106.394 226.167 C 106.391 225.745,106.205 225.130,105.982 224.800 C 105.685 224.362,105.648 224.524,105.844 225.400 M48.493 226.400 C 48.493 227.170,48.575 227.485,48.676 227.100 C 48.776 226.715,48.776 226.085,48.676 225.700 C 48.575 225.315,48.493 225.630,48.493 226.400 M351.040 227.640 C 350.893 228.557,350.852 229.385,350.947 229.480 C 351.042 229.576,351.246 228.910,351.400 228.000 C 351.554 227.090,351.596 226.262,351.493 226.160 C 351.390 226.057,351.187 226.723,351.040 227.640 M350.250 232.050 C 350.109 232.753,350.069 233.402,350.159 233.492 C 350.250 233.583,350.448 233.091,350.600 232.400 C 350.752 231.709,350.793 231.059,350.691 230.958 C 350.589 230.856,350.391 231.347,350.250 232.050 M50.068 235.400 C 50.062 235.840,50.211 236.560,50.400 237.000 C 50.838 238.019,50.838 236.968,50.400 235.600 C 50.143 234.796,50.077 234.757,50.068 235.400 M349.429 236.229 C 349.281 236.815,349.238 237.372,349.332 237.466 C 349.427 237.560,349.624 237.158,349.771 236.571 C 349.919 235.985,349.962 235.428,349.868 235.334 C 349.773 235.240,349.576 235.642,349.429 236.229 M50.856 238.800 C 50.856 239.130,51.011 239.760,51.200 240.200 C 51.417 240.704,51.544 240.778,51.544 240.400 C 51.544 240.070,51.389 239.440,51.200 239.000 C 50.983 238.496,50.856 238.422,50.856 238.800 M348.629 239.829 C 348.481 240.415,348.438 240.972,348.532 241.066 C 348.627 241.160,348.824 240.758,348.971 240.171 C 349.119 239.585,349.162 239.028,349.068 238.934 C 348.973 238.840,348.776 239.242,348.629 239.829 M112.873 241.400 C 113.123 241.950,113.484 242.400,113.673 242.400 C 113.863 242.400,113.724 241.950,113.363 241.400 C 113.003 240.850,112.643 240.400,112.563 240.400 C 112.483 240.400,112.622 240.850,112.873 241.400 M286.439 241.824 C 285.977 242.607,285.780 243.136,286.002 242.999 C 286.436 242.731,287.734 240.400,287.450 240.400 C 287.356 240.400,286.901 241.041,286.439 241.824 M51.656 242.000 C 51.656 242.330,51.811 242.960,52.000 243.400 C 52.217 243.904,52.344 243.978,52.344 243.600 C 52.344 243.270,52.189 242.640,52.000 242.200 C 51.783 241.696,51.656 241.622,51.656 242.000 M284.175 245.068 C 283.559 245.876,283.259 246.411,283.509 246.256 C 284.021 245.940,285.753 243.600,285.475 243.600 C 285.376 243.600,284.791 244.261,284.175 245.068 M120.181 250.753 C 121.051 251.659,121.830 252.400,121.912 252.400 C 122.242 252.400,120.146 250.065,119.400 249.602 C 118.960 249.329,119.312 249.847,120.181 250.753 M279.381 250.900 L 277.800 252.600 279.500 251.019 C 280.435 250.149,281.200 249.384,281.200 249.319 C 281.200 249.016,280.852 249.319,279.381 250.900 M123.800 253.963 C 124.626 254.917,126.800 256.592,126.800 256.275 C 126.800 256.177,125.945 255.409,124.900 254.568 C 123.855 253.728,123.360 253.455,123.800 253.963 M274.800 254.870 C 273.810 255.753,273.540 256.101,274.200 255.644 C 276.210 254.251,276.950 253.616,276.770 253.437 C 276.676 253.343,275.789 253.988,274.800 254.870 M270.600 257.885 C 268.034 259.665,267.796 259.949,269.800 258.838 C 271.809 257.725,272.992 256.854,272.771 256.653 C 272.677 256.568,271.700 257.122,270.600 257.885 M266.600 260.400 C 265.940 260.837,265.580 261.192,265.800 261.188 C 266.201 261.182,268.376 259.623,268.000 259.612 C 267.890 259.608,267.260 259.963,266.600 260.400 M341.067 262.867 C 340.705 263.788,340.474 264.607,340.554 264.688 C 340.634 264.768,341.000 264.083,341.367 263.167 C 341.733 262.250,341.964 261.431,341.879 261.346 C 341.794 261.261,341.429 261.945,341.067 262.867 M136.600 262.356 C 136.820 262.577,137.720 263.057,138.600 263.421 C 140.690 264.287,140.113 263.701,137.905 262.715 C 136.967 262.296,136.380 262.135,136.600 262.356 M90.715 263.528 C 90.338 263.678,91.726 263.800,93.800 263.800 C 95.874 263.800,97.262 263.678,96.885 263.528 C 96.508 263.379,95.120 263.256,93.800 263.256 C 92.480 263.256,91.092 263.379,90.715 263.528 M87.832 264.765 C 87.397 265.245,87.203 265.952,87.310 266.665 C 87.478 267.784,87.481 267.782,87.540 266.523 C 87.579 265.703,87.919 265.022,88.489 264.623 C 88.978 264.280,89.186 264.000,88.951 264.000 C 88.716 264.000,88.213 264.344,87.832 264.765 M147.400 266.800 C 147.840 266.989,148.470 267.144,148.800 267.144 C 149.178 267.144,149.104 267.017,148.600 266.800 C 148.160 266.611,147.530 266.456,147.200 266.456 C 146.822 266.456,146.896 266.583,147.400 266.800 M251.400 266.800 C 250.896 267.017,250.822 267.144,251.200 267.144 C 251.530 267.144,252.160 266.989,252.600 266.800 C 253.104 266.583,253.178 266.456,252.800 266.456 C 252.470 266.456,251.840 266.611,251.400 266.800 M89.000 269.600 C 89.859 270.480,90.652 271.200,90.762 271.200 C 90.872 271.200,90.259 270.480,89.400 269.600 C 88.541 268.720,87.748 268.000,87.638 268.000 C 87.528 268.000,88.141 268.720,89.000 269.600 M101.280 268.480 C 100.600 269.160,100.683 269.770,101.565 270.568 C 102.632 271.534,104.561 271.271,104.723 270.139 C 104.938 268.626,102.371 267.389,101.280 268.480 M107.600 268.118 C 107.600 268.220,108.447 268.997,109.481 269.845 C 110.516 270.693,111.234 271.178,111.076 270.923 C 110.740 270.379,107.600 267.845,107.600 268.118 M153.000 268.400 C 153.440 268.589,154.070 268.744,154.400 268.744 C 154.778 268.744,154.704 268.617,154.200 268.400 C 153.760 268.211,153.130 268.056,152.800 268.056 C 152.422 268.056,152.496 268.183,153.000 268.400 M245.400 268.400 C 244.896 268.617,244.822 268.744,245.200 268.744 C 245.530 268.744,246.160 268.589,246.600 268.400 C 247.104 268.183,247.178 268.056,246.800 268.056 C 246.470 268.056,245.840 268.211,245.400 268.400 M103.626 268.814 C 104.876 269.483,104.626 270.800,103.249 270.800 C 101.944 270.800,100.996 269.907,101.343 269.005 C 101.613 268.302,102.526 268.225,103.626 268.814 M156.600 269.200 C 157.040 269.389,157.670 269.544,158.000 269.544 C 158.378 269.544,158.304 269.417,157.800 269.200 C 157.360 269.011,156.730 268.856,156.400 268.856 C 156.022 268.856,156.096 268.983,156.600 269.200 M241.800 269.200 C 241.296 269.417,241.222 269.544,241.600 269.544 C 241.930 269.544,242.560 269.389,243.000 269.200 C 243.504 268.983,243.578 268.856,243.200 268.856 C 242.870 268.856,242.240 269.011,241.800 269.200 M160.200 270.000 C 160.640 270.189,161.360 270.338,161.800 270.332 C 162.443 270.323,162.404 270.257,161.600 270.000 C 160.232 269.562,159.181 269.562,160.200 270.000 M237.600 270.000 C 236.808 270.254,236.767 270.320,237.400 270.320 C 237.840 270.320,238.650 270.176,239.200 270.000 C 239.992 269.746,240.033 269.680,239.400 269.680 C 238.960 269.680,238.150 269.824,237.600 270.000 M164.800 270.800 C 165.350 270.976,166.250 271.117,166.800 271.113 C 167.698 271.106,167.678 271.074,166.600 270.800 C 164.908 270.369,163.456 270.369,164.800 270.800 M232.400 270.800 C 231.043 271.086,231.037 271.095,232.200 271.107 C 232.860 271.115,233.850 270.976,234.400 270.800 C 235.712 270.380,234.396 270.380,232.400 270.800 M170.384 271.582 C 170.884 271.898,170.861 272.070,170.222 272.776 C 169.812 273.229,169.619 273.600,169.794 273.600 C 170.229 273.600,171.172 272.314,171.187 271.700 C 171.194 271.425,170.885 271.203,170.500 271.206 C 169.917 271.211,169.897 271.274,170.384 271.582 M228.413 271.500 C 228.433 271.937,229.875 273.600,230.234 273.600 C 230.402 273.600,230.146 273.182,229.666 272.670 C 229.186 272.159,228.914 271.619,229.063 271.470 C 229.212 271.322,229.123 271.200,228.867 271.200 C 228.610 271.200,228.406 271.335,228.413 271.500 M64.000 274.400 C 64.666 275.720,65.302 276.800,65.412 276.800 C 65.522 276.800,65.066 275.720,64.400 274.400 C 63.734 273.080,63.098 272.000,62.988 272.000 C 62.878 272.000,63.334 273.080,64.000 274.400 M114.197 274.500 C 115.272 275.765,116.223 276.800,116.310 276.800 C 116.583 276.800,114.129 273.836,113.164 273.000 C 112.656 272.560,113.121 273.235,114.197 274.500 M110.091 274.228 C 111.303 275.657,111.180 276.930,109.800 277.238 C 108.639 277.497,108.634 277.507,109.651 277.553 C 111.709 277.645,112.012 275.445,110.142 273.990 C 109.430 273.437,109.428 273.447,110.091 274.228 M335.200 275.200 C 334.751 276.080,334.474 276.800,334.584 276.800 C 334.694 276.800,335.151 276.080,335.600 275.200 C 336.049 274.320,336.326 273.600,336.216 273.600 C 336.106 273.600,335.649 274.320,335.200 275.200 M168.310 275.300 C 167.376 276.532,166.043 278.828,166.510 278.400 C 166.922 278.023,169.613 274.000,169.454 274.000 C 169.367 274.000,168.852 274.585,168.310 275.300 M231.837 276.100 C 232.649 277.365,233.388 278.400,233.479 278.400 C 233.747 278.400,232.300 276.082,231.290 274.894 C 230.779 274.292,231.025 274.835,231.837 276.100 M96.838 275.700 C 96.932 275.755,97.727 276.430,98.604 277.200 L 100.200 278.600 98.822 277.100 C 98.063 276.275,97.268 275.600,97.055 275.600 C 96.841 275.600,96.744 275.645,96.838 275.700 M67.215 280.200 C 67.217 280.420,67.586 281.050,68.036 281.600 C 68.579 282.264,68.715 282.331,68.440 281.800 C 67.766 280.495,67.212 279.772,67.215 280.200 M113.338 281.817 C 113.208 282.157,113.213 282.547,113.351 282.684 C 113.488 282.821,113.600 282.633,113.600 282.267 C 113.600 281.320,115.405 281.405,116.400 282.400 C 116.840 282.840,117.200 283.030,117.200 282.823 C 117.200 281.567,113.776 280.676,113.338 281.817 M103.404 283.000 C 105.007 285.226,105.450 285.639,104.557 284.073 C 104.141 283.343,103.452 282.443,103.026 282.073 C 102.576 281.682,102.734 282.069,103.404 283.000 M69.350 283.800 C 69.674 284.460,70.231 285.360,70.589 285.800 C 71.197 286.548,71.201 286.522,70.650 285.400 C 70.326 284.740,69.769 283.840,69.411 283.400 C 68.803 282.652,68.799 282.678,69.350 283.800 M117.332 284.054 C 117.446 284.414,117.273 285.089,116.947 285.554 C 116.621 286.019,116.516 286.400,116.713 286.400 C 117.354 286.400,117.962 284.577,117.525 283.963 C 117.200 283.506,117.164 283.523,117.332 284.054 M123.600 287.000 C 125.017 288.430,126.257 289.600,126.355 289.600 C 126.695 289.600,121.797 284.493,121.412 284.447 C 121.198 284.421,122.183 285.570,123.600 287.000 M114.344 285.576 C 114.864 286.029,115.479 286.400,115.711 286.400 C 116.203 286.400,116.179 286.380,114.600 285.455 L 113.400 284.753 114.344 285.576 M105.800 286.800 C 106.141 287.460,106.511 288.000,106.621 288.000 C 106.731 288.000,106.541 287.460,106.200 286.800 C 105.859 286.140,105.489 285.600,105.379 285.600 C 105.269 285.600,105.459 286.140,105.800 286.800 M162.649 288.215 C 162.512 288.573,162.415 289.166,162.434 289.533 C 162.453 289.900,162.627 289.669,162.821 289.020 C 163.198 287.758,163.065 287.133,162.649 288.215 M236.856 288.000 C 236.856 288.330,237.011 288.960,237.200 289.400 C 237.417 289.904,237.544 289.978,237.544 289.600 C 237.544 289.270,237.389 288.640,237.200 288.200 C 236.983 287.696,236.856 287.622,236.856 288.000 M126.800 289.746 C 126.800 289.856,127.340 290.330,128.000 290.800 C 128.660 291.270,129.200 291.564,129.200 291.454 C 129.200 291.344,128.660 290.870,128.000 290.400 C 127.340 289.930,126.800 289.636,126.800 289.746 M124.063 291.300 C 124.798 292.015,125.477 292.553,125.571 292.496 C 125.830 292.338,123.504 290.000,123.088 290.000 C 122.889 290.000,123.327 290.585,124.063 291.300 M237.894 294.400 C 238.014 295.830,238.177 297.075,238.256 297.167 C 238.535 297.489,238.316 293.788,237.998 292.800 C 237.805 292.200,237.763 292.840,237.894 294.400 M120.856 293.541 C 121.110 293.948,121.697 294.511,122.159 294.791 C 122.748 295.147,122.648 294.925,121.825 294.050 C 120.488 292.627,120.186 292.469,120.856 293.541 M323.184 294.423 C 322.705 295.096,322.379 295.713,322.461 295.794 C 322.543 295.876,323.014 295.326,323.508 294.571 C 324.623 292.871,324.371 292.756,323.184 294.423 M136.200 294.800 C 137.301 295.273,137.692 295.273,137.400 294.800 C 137.264 294.580,136.758 294.413,136.276 294.428 C 135.431 294.455,135.429 294.469,136.200 294.800 M153.000 294.800 C 152.496 295.017,152.422 295.144,152.800 295.144 C 153.130 295.144,153.760 294.989,154.200 294.800 C 154.704 294.583,154.778 294.456,154.400 294.456 C 154.070 294.456,153.440 294.611,153.000 294.800 M139.800 295.600 C 140.460 295.768,141.630 295.906,142.400 295.907 L 143.800 295.908 142.200 295.577 C 140.045 295.131,138.034 295.151,139.800 295.600 M147.400 295.600 C 146.039 295.844,145.979 295.892,147.000 295.920 C 147.660 295.939,148.920 295.805,149.800 295.623 C 151.893 295.190,149.802 295.170,147.400 295.600 M320.467 297.977 C 319.770 298.844,319.200 299.667,319.200 299.807 C 319.200 300.036,320.033 299.080,321.558 297.100 C 322.652 295.682,321.692 296.452,320.467 297.977 M130.880 297.280 C 129.958 298.202,131.213 300.800,132.580 300.800 C 132.760 300.800,132.434 300.427,131.854 299.971 C 130.641 299.017,130.486 297.822,131.500 297.232 C 131.885 297.008,132.011 296.819,131.780 296.812 C 131.549 296.805,131.144 297.016,130.880 297.280 M134.761 297.306 C 136.261 298.077,136.696 299.033,136.033 300.099 C 135.519 300.924,135.528 300.954,136.136 300.451 C 137.367 299.434,136.089 296.788,134.374 296.806 C 134.058 296.809,134.232 297.034,134.761 297.306 M155.544 298.024 L 154.600 298.847 155.800 298.145 C 157.379 297.220,157.403 297.200,156.911 297.200 C 156.679 297.200,156.064 297.571,155.544 298.024 M143.854 299.229 C 142.635 300.187,142.498 301.274,143.500 302.032 C 144.096 302.482,144.125 302.478,143.700 302.001 C 141.731 299.793,145.655 297.755,148.246 299.639 L 149.400 300.478 148.278 299.439 C 146.914 298.176,145.290 298.099,143.854 299.229 M159.614 300.447 C 158.910 301.033,158.204 301.227,157.148 301.126 C 156.333 301.049,155.753 301.124,155.857 301.293 C 156.291 301.995,158.786 301.573,159.878 300.613 C 161.229 299.423,161.010 299.286,159.614 300.447 M82.799 302.399 C 83.719 303.498,84.681 304.526,84.936 304.683 C 85.191 304.839,84.523 303.940,83.451 302.684 C 82.380 301.428,81.418 300.400,81.314 300.400 C 81.210 300.400,81.879 301.299,82.799 302.399 M145.170 302.952 C 145.679 303.179,146.321 303.179,146.830 302.952 C 147.504 302.651,147.348 302.582,146.000 302.582 C 144.652 302.582,144.496 302.651,145.170 302.952 M116.200 304.800 C 118.856 307.520,118.551 306.820,115.729 303.718 C 115.469 303.433,115.118 303.200,114.947 303.200 C 114.777 303.200,115.341 303.920,116.200 304.800 M87.200 307.400 C 88.395 308.610,89.463 309.600,89.573 309.600 C 89.683 309.600,88.795 308.610,87.600 307.400 C 86.405 306.190,85.337 305.200,85.227 305.200 C 85.117 305.200,86.005 306.190,87.200 307.400 M312.808 306.992 C 311.841 307.977,311.129 308.841,311.225 308.913 C 311.321 308.984,312.190 308.178,313.157 307.121 C 315.371 304.700,315.141 304.614,312.808 306.992 M122.800 309.798 C 122.800 310.067,126.849 312.084,127.029 311.905 C 127.111 311.823,126.193 311.273,124.989 310.682 C 123.785 310.092,122.800 309.694,122.800 309.798 M305.800 314.266 L 301.000 318.900 305.448 314.854 C 309.575 311.100,311.117 309.576,310.749 309.616 C 310.667 309.625,308.440 311.718,305.800 314.266 M130.000 313.141 C 130.330 313.334,131.140 313.609,131.800 313.752 C 132.568 313.918,132.784 313.884,132.400 313.659 C 132.070 313.466,131.260 313.191,130.600 313.048 C 129.832 312.882,129.616 312.916,130.000 313.141 M93.233 313.401 C 93.427 313.867,98.000 318.209,98.000 317.927 C 98.000 317.823,96.890 316.672,95.533 315.369 C 94.177 314.066,93.142 313.181,93.233 313.401 M157.300 314.276 C 157.685 314.376,158.315 314.376,158.700 314.276 C 159.085 314.175,158.770 314.093,158.000 314.093 C 157.230 314.093,156.915 314.175,157.300 314.276 M161.781 329.000 C 161.781 337.140,161.834 340.413,161.900 336.274 C 161.965 332.134,161.965 325.474,161.899 321.474 C 161.834 317.473,161.781 320.860,161.781 329.000 M138.905 315.087 C 139.514 315.179,140.414 315.177,140.905 315.082 C 141.397 314.987,140.900 314.911,139.800 314.914 C 138.700 314.917,138.297 314.995,138.905 315.087 M150.307 315.090 C 151.026 315.179,152.106 315.177,152.707 315.086 C 153.308 314.995,152.720 314.922,151.400 314.924 C 150.080 314.926,149.588 315.001,150.307 315.090 M143.911 315.493 C 144.851 315.578,146.291 315.577,147.111 315.491 C 147.930 315.405,147.160 315.336,145.400 315.337 C 143.640 315.339,142.970 315.409,143.911 315.493 M238.179 330.200 C 238.179 337.460,238.233 340.486,238.299 336.925 C 238.365 333.364,238.366 327.424,238.299 323.725 C 238.233 320.026,238.179 322.940,238.179 330.200 M298.400 320.857 L 296.200 322.889 298.299 321.208 C 300.139 319.734,301.113 318.773,300.724 318.813 C 300.656 318.820,299.610 319.740,298.400 320.857 M104.400 323.325 C 104.400 323.424,105.061 324.009,105.868 324.625 C 106.676 325.241,107.211 325.541,107.056 325.291 C 106.740 324.779,104.400 323.047,104.400 323.325 M289.000 328.235 L 287.800 329.266 289.100 328.406 C 289.815 327.933,290.400 327.468,290.400 327.373 C 290.400 327.073,290.231 327.178,289.000 328.235 M110.800 328.143 C 110.800 328.243,111.719 328.985,112.842 329.792 C 113.965 330.599,114.765 331.068,114.621 330.834 C 114.320 330.348,110.800 327.868,110.800 328.143 M115.811 331.739 C 117.719 333.041,118.800 333.678,118.800 333.499 C 118.800 333.245,115.704 331.200,115.320 331.200 C 115.156 331.200,115.377 331.442,115.811 331.739 M281.100 333.429 C 279.605 334.240,279.696 334.578,281.200 333.800 C 281.860 333.459,282.400 333.094,282.400 332.990 C 282.400 332.732,282.357 332.747,281.100 333.429 M277.100 335.829 C 275.605 336.640,275.696 336.978,277.200 336.200 C 277.860 335.859,278.400 335.494,278.400 335.390 C 278.400 335.132,278.357 335.147,277.100 335.829 M124.000 336.764 C 124.550 337.214,125.180 337.583,125.400 337.585 C 125.828 337.588,125.105 337.034,123.800 336.360 C 123.269 336.085,123.336 336.221,124.000 336.764 " stroke="none" fill="#848484" fill-rule="evenodd"></path><path id="path4" d="M199.300 50.276 C 199.685 50.376,200.315 50.376,200.700 50.276 C 201.085 50.175,200.770 50.093,200.000 50.093 C 199.230 50.093,198.915 50.175,199.300 50.276 M191.100 50.696 C 192.475 50.774,194.725 50.774,196.100 50.696 C 197.475 50.618,196.350 50.554,193.600 50.554 C 190.850 50.554,189.725 50.618,191.100 50.696 M203.900 50.696 C 205.275 50.774,207.525 50.774,208.900 50.696 C 210.275 50.618,209.150 50.554,206.400 50.554 C 203.650 50.554,202.525 50.618,203.900 50.696 M185.105 51.083 C 185.602 51.179,186.322 51.175,186.705 51.075 C 187.087 50.975,186.680 50.896,185.800 50.901 C 184.920 50.905,184.607 50.987,185.105 51.083 M214.600 51.218 C 215.700 51.390,217.230 51.522,218.000 51.512 C 219.133 51.497,219.018 51.434,217.400 51.182 C 216.300 51.010,214.770 50.878,214.000 50.888 C 212.867 50.903,212.982 50.966,214.600 51.218 M181.905 51.483 C 182.402 51.579,183.122 51.575,183.505 51.475 C 183.887 51.375,183.480 51.296,182.600 51.301 C 181.720 51.305,181.407 51.387,181.905 51.483 M174.000 52.413 C 173.354 52.629,173.780 52.666,175.200 52.519 C 176.410 52.394,177.475 52.226,177.567 52.146 C 177.887 51.865,174.991 52.083,174.000 52.413 M223.300 52.276 C 223.685 52.376,224.315 52.376,224.700 52.276 C 225.085 52.175,224.770 52.093,224.000 52.093 C 223.230 52.093,222.915 52.175,223.300 52.276 M226.400 52.780 C 227.399 53.120,229.882 53.332,229.567 53.051 C 229.475 52.969,228.500 52.799,227.400 52.672 C 226.051 52.516,225.726 52.551,226.400 52.780 M170.900 53.076 C 171.285 53.176,171.915 53.176,172.300 53.076 C 172.685 52.975,172.370 52.893,171.600 52.893 C 170.830 52.893,170.515 52.975,170.900 53.076 M167.800 53.600 C 166.711 53.877,166.693 53.907,167.600 53.925 C 168.150 53.935,168.960 53.789,169.400 53.600 C 170.386 53.176,169.466 53.176,167.800 53.600 M230.600 53.581 C 231.368 53.929,233.510 54.156,233.167 53.853 C 233.075 53.772,232.280 53.596,231.400 53.462 C 230.285 53.293,230.042 53.329,230.600 53.581 M162.400 54.795 C 161.991 55.055,162.310 55.099,163.400 54.932 C 165.377 54.629,165.714 54.398,164.167 54.406 C 163.525 54.409,162.730 54.584,162.400 54.795 M235.233 54.543 C 235.325 54.621,236.030 54.801,236.800 54.942 C 237.785 55.123,238.022 55.082,237.600 54.806 C 237.058 54.450,234.837 54.203,235.233 54.543 M159.600 55.618 C 159.162 55.915,159.324 55.952,160.200 55.756 C 161.671 55.427,161.990 55.198,160.967 55.206 C 160.545 55.209,159.930 55.395,159.600 55.618 M238.433 55.344 C 238.525 55.423,239.140 55.608,239.800 55.756 C 240.676 55.952,240.838 55.915,240.400 55.618 C 239.860 55.253,238.032 54.998,238.433 55.344 M156.800 56.418 C 156.362 56.715,156.524 56.752,157.400 56.556 C 158.871 56.227,159.190 55.998,158.167 56.006 C 157.745 56.009,157.130 56.195,156.800 56.418 M133.100 65.429 C 131.549 66.270,131.725 66.561,133.300 65.759 C 134.808 64.993,135.075 64.794,134.567 64.816 C 134.365 64.825,133.705 65.101,133.100 65.429 M268.783 66.796 C 270.864 67.880,272.627 68.707,272.700 68.633 C 272.868 68.465,265.795 64.795,265.336 64.813 C 265.151 64.820,266.702 65.712,268.783 66.796 M125.500 69.429 C 124.005 70.240,124.096 70.578,125.600 69.800 C 126.260 69.459,126.800 69.094,126.800 68.990 C 126.800 68.732,126.757 68.747,125.500 69.429 M120.400 72.436 C 119.736 72.979,119.669 73.115,120.200 72.840 C 121.505 72.166,122.228 71.612,121.800 71.615 C 121.580 71.617,120.950 71.986,120.400 72.436 M278.400 72.020 C 279.787 72.961,280.578 73.235,279.600 72.436 C 279.050 71.986,278.420 71.617,278.200 71.615 C 277.980 71.613,278.070 71.796,278.400 72.020 M110.505 78.925 C 109.793 79.406,109.208 79.944,109.205 80.120 C 109.202 80.297,109.830 79.960,110.600 79.373 C 111.370 78.786,112.000 78.236,112.000 78.153 C 112.000 77.927,111.919 77.969,110.505 78.925 M290.544 79.909 C 290.860 80.421,293.200 82.153,293.200 81.875 C 293.200 81.776,292.539 81.191,291.732 80.575 C 290.924 79.959,290.389 79.659,290.544 79.909 M103.985 84.029 L 102.600 85.258 104.100 84.181 C 105.426 83.230,105.857 82.800,105.485 82.800 C 105.422 82.800,104.747 83.353,103.985 84.029 M294.600 83.057 C 296.637 84.864,297.387 85.391,296.602 84.463 C 296.166 83.948,295.447 83.341,295.004 83.114 C 294.562 82.887,294.380 82.862,294.600 83.057 M100.778 86.700 L 99.400 88.200 100.900 86.822 C 102.296 85.538,102.584 85.200,102.278 85.200 C 102.212 85.200,101.537 85.875,100.778 86.700 M300.175 87.693 C 301.509 88.955,302.741 89.990,302.914 89.993 C 303.201 89.999,302.574 89.432,298.975 86.424 C 298.302 85.861,298.842 86.432,300.175 87.693 M97.456 89.409 C 96.607 90.174,96.076 90.800,96.277 90.800 C 96.479 90.800,97.254 90.170,98.000 89.400 C 99.736 87.609,99.449 87.614,97.456 89.409 M313.200 100.255 C 313.200 100.468,313.875 101.263,314.700 102.022 L 316.200 103.400 314.800 101.804 C 314.030 100.927,313.355 100.132,313.300 100.038 C 313.245 99.944,313.200 100.041,313.200 100.255 M85.373 101.700 C 82.412 104.953,81.865 105.600,82.076 105.600 C 82.201 105.600,83.330 104.430,84.585 103.000 C 86.910 100.352,87.527 99.334,85.373 101.700 M317.200 105.000 C 317.946 105.770,318.629 106.400,318.718 106.400 C 319.054 106.400,316.582 103.656,316.222 103.629 C 316.013 103.613,316.454 104.230,317.200 105.000 M79.775 108.268 C 79.159 109.076,78.859 109.611,79.109 109.456 C 79.621 109.140,81.353 106.800,81.075 106.800 C 80.976 106.800,80.391 107.461,79.775 108.268 M74.497 115.207 C 72.812 117.785,73.108 117.780,74.962 115.200 C 75.752 114.100,76.264 113.203,76.099 113.207 C 75.935 113.211,75.214 114.111,74.497 115.207 M324.627 114.600 C 326.000 116.400,326.268 116.403,325.104 114.605 C 324.607 113.838,324.056 113.208,323.880 113.205 C 323.703 113.202,324.040 113.830,324.627 114.600 M121.700 114.294 C 122.745 114.376,124.455 114.376,125.500 114.294 C 126.545 114.212,125.690 114.144,123.600 114.144 C 121.510 114.144,120.655 114.212,121.700 114.294 M274.500 114.294 C 275.545 114.376,277.255 114.376,278.300 114.294 C 279.345 114.212,278.490 114.144,276.400 114.144 C 274.310 114.144,273.455 114.212,274.500 114.294 M138.054 117.387 C 138.390 117.723,141.200 118.816,141.200 118.611 C 141.200 118.501,140.548 118.138,139.751 117.805 C 138.275 117.189,137.718 117.051,138.054 117.387 M260.100 117.834 C 259.385 118.146,258.800 118.490,258.800 118.598 C 258.800 118.776,261.976 117.651,262.367 117.335 C 262.795 116.988,261.262 117.326,260.100 117.834 M71.525 119.700 C 68.995 123.528,68.706 124.000,68.897 124.000 C 69.064 124.000,70.159 122.423,72.577 118.700 C 72.970 118.095,73.207 117.600,73.103 117.600 C 72.998 117.600,72.289 118.545,71.525 119.700 M117.449 120.215 C 117.312 120.573,117.215 121.166,117.234 121.533 C 117.253 121.900,117.427 121.669,117.621 121.020 C 117.998 119.758,117.865 119.133,117.449 120.215 M329.795 122.248 C 330.173 122.825,331.102 124.355,331.860 125.648 C 332.618 126.942,333.334 128.000,333.452 128.000 C 333.569 128.000,333.264 127.325,332.774 126.500 C 330.813 123.201,329.506 121.200,329.312 121.200 C 329.200 121.200,329.417 121.672,329.795 122.248 M116.656 123.284 C 116.521 123.788,116.427 124.560,116.446 125.000 C 116.465 125.440,116.645 125.098,116.846 124.240 C 117.236 122.578,117.070 121.740,116.656 123.284 M282.868 122.800 C 282.888 123.839,283.518 125.546,283.532 124.600 C 283.538 124.160,283.389 123.440,283.200 123.000 C 282.989 122.510,282.861 122.432,282.868 122.800 M67.800 125.600 C 67.459 126.260,67.269 126.800,67.379 126.800 C 67.489 126.800,67.859 126.260,68.200 125.600 C 68.541 124.940,68.731 124.400,68.621 124.400 C 68.511 124.400,68.141 124.940,67.800 125.600 M196.480 125.098 C 198.394 125.171,201.634 125.171,203.680 125.098 C 205.726 125.026,204.160 124.966,200.200 124.965 C 196.240 124.965,194.566 125.024,196.480 125.098 M184.800 125.600 L 183.000 125.880 184.800 125.900 C 185.790 125.911,187.050 125.776,187.600 125.600 L 188.600 125.280 187.600 125.300 C 187.050 125.311,185.790 125.446,184.800 125.600 M212.400 125.584 C 213.380 125.914,217.095 126.142,216.767 125.853 C 216.675 125.772,215.430 125.603,214.000 125.477 C 212.370 125.334,211.773 125.374,212.400 125.584 M178.600 126.400 L 177.400 126.705 178.600 126.725 C 179.260 126.735,180.160 126.589,180.600 126.400 L 181.400 126.056 180.600 126.075 C 180.160 126.086,179.260 126.232,178.600 126.400 M219.400 126.400 C 219.840 126.589,220.740 126.735,221.400 126.725 L 222.600 126.705 221.400 126.400 C 220.740 126.232,219.840 126.086,219.400 126.075 L 218.600 126.056 219.400 126.400 M173.600 127.200 C 172.216 127.491,172.214 127.495,173.400 127.541 C 174.060 127.567,174.870 127.413,175.200 127.200 C 175.866 126.770,175.645 126.770,173.600 127.200 M224.800 127.205 C 225.130 127.416,225.925 127.591,226.567 127.594 C 228.114 127.602,227.777 127.371,225.800 127.068 C 224.710 126.901,224.391 126.945,224.800 127.205 M115.709 129.200 C 115.709 130.190,115.787 130.595,115.882 130.100 C 115.978 129.605,115.978 128.795,115.882 128.300 C 115.787 127.805,115.709 128.210,115.709 129.200 M169.600 128.000 L 168.600 128.320 169.600 128.354 C 170.150 128.373,170.870 128.213,171.200 128.000 C 171.964 127.506,171.142 127.506,169.600 128.000 M229.200 127.982 C 229.530 128.205,230.145 128.391,230.567 128.394 C 231.590 128.402,231.271 128.173,229.800 127.844 C 228.924 127.648,228.762 127.685,229.200 127.982 M284.093 128.800 C 284.093 129.570,284.175 129.885,284.276 129.500 C 284.376 129.115,284.376 128.485,284.276 128.100 C 284.175 127.715,284.093 128.030,284.093 128.800 M166.000 128.800 L 165.000 129.120 166.000 129.154 C 166.550 129.173,167.270 129.013,167.600 128.800 C 168.364 128.306,167.542 128.306,166.000 128.800 M232.800 128.782 C 233.130 129.005,233.745 129.191,234.167 129.194 C 235.190 129.202,234.871 128.973,233.400 128.644 C 232.524 128.448,232.362 128.485,232.800 128.782 M333.615 128.600 C 333.617 128.820,333.986 129.450,334.436 130.000 C 334.979 130.664,335.115 130.731,334.840 130.200 C 334.166 128.895,333.612 128.172,333.615 128.600 M160.663 129.700 C 160.899 130.085,163.655 130.080,164.262 129.694 C 164.516 129.532,163.769 129.400,162.602 129.400 C 161.435 129.400,160.562 129.535,160.663 129.700 M236.135 129.692 C 236.744 130.079,239.101 130.085,239.337 129.700 C 239.438 129.535,238.654 129.399,237.595 129.398 C 236.536 129.397,235.879 129.529,236.135 129.692 M64.581 131.237 C 64.229 131.918,64.012 132.545,64.099 132.632 C 64.186 132.719,64.556 132.162,64.922 131.395 C 65.744 129.670,65.459 129.538,64.581 131.237 M115.301 132.600 C 115.305 133.480,115.387 133.793,115.483 133.295 C 115.579 132.798,115.575 132.078,115.475 131.695 C 115.375 131.313,115.296 131.720,115.301 132.600 M284.509 132.800 C 284.509 133.790,284.587 134.195,284.682 133.700 C 284.778 133.205,284.778 132.395,284.682 131.900 C 284.587 131.405,284.509 131.810,284.509 132.800 M284.931 137.400 C 284.933 138.940,285.005 139.521,285.092 138.691 C 285.179 137.861,285.177 136.601,285.089 135.891 C 285.000 135.181,284.929 135.860,284.931 137.400 M114.909 137.200 C 114.909 138.190,114.987 138.595,115.082 138.100 C 115.178 137.605,115.178 136.795,115.082 136.300 C 114.987 135.805,114.909 136.210,114.909 137.200 M115.301 141.800 C 115.305 142.680,115.387 142.993,115.483 142.495 C 115.579 141.998,115.575 141.278,115.475 140.895 C 115.375 140.513,115.296 140.920,115.301 141.800 M284.501 141.800 C 284.505 142.680,284.587 142.993,284.683 142.495 C 284.779 141.998,284.775 141.278,284.675 140.895 C 284.575 140.513,284.496 140.920,284.501 141.800 M115.701 145.000 C 115.705 145.880,115.787 146.193,115.883 145.695 C 115.979 145.198,115.975 144.478,115.875 144.095 C 115.775 143.713,115.696 144.120,115.701 145.000 M284.054 145.200 C 284.019 145.750,283.896 146.650,283.783 147.200 L 283.577 148.200 284.007 147.215 C 284.243 146.674,284.365 145.774,284.278 145.215 L 284.120 144.200 284.054 145.200 M116.262 148.200 C 116.396 149.080,116.572 149.875,116.653 149.967 C 116.956 150.310,116.729 148.168,116.381 147.400 C 116.129 146.842,116.093 147.085,116.262 148.200 M53.451 157.560 C 53.093 158.655,52.811 159.786,52.825 160.075 C 52.839 160.364,53.200 159.536,53.627 158.235 C 54.054 156.934,54.336 155.803,54.253 155.720 C 54.170 155.637,53.809 156.465,53.451 157.560 M346.644 159.000 C 346.973 160.471,347.202 160.790,347.194 159.767 C 347.191 159.345,347.005 158.730,346.782 158.400 C 346.485 157.962,346.448 158.124,346.644 159.000 M112.485 161.900 C 110.602 164.701,110.305 165.200,110.518 165.200 C 110.608 165.200,111.520 163.940,112.545 162.400 C 113.569 160.860,114.322 159.600,114.218 159.600 C 114.115 159.600,113.334 160.635,112.485 161.900 M286.400 160.800 C 286.870 161.460,287.344 162.000,287.454 162.000 C 287.564 162.000,287.270 161.460,286.800 160.800 C 286.330 160.140,285.856 159.600,285.746 159.600 C 285.636 159.600,285.930 160.140,286.400 160.800 M52.249 161.415 C 52.112 161.773,52.015 162.366,52.034 162.733 C 52.053 163.100,52.227 162.869,52.421 162.220 C 52.798 160.958,52.665 160.333,52.249 161.415 M347.444 161.800 C 347.773 163.271,348.002 163.590,347.994 162.567 C 347.991 162.145,347.805 161.530,347.582 161.200 C 347.285 160.762,347.248 160.924,347.444 161.800 M287.949 163.000 C 288.165 163.440,288.634 164.160,288.993 164.600 L 289.644 165.400 289.251 164.600 C 289.035 164.160,288.566 163.440,288.207 163.000 L 287.556 162.200 287.949 163.000 M348.219 164.601 C 348.993 167.873,349.550 169.732,349.574 169.120 C 349.606 168.285,348.503 163.970,348.174 163.640 C 348.042 163.509,348.063 163.941,348.219 164.601 M51.050 166.050 C 50.717 167.717,51.040 168.040,51.400 166.400 C 51.552 165.709,51.593 165.059,51.491 164.958 C 51.389 164.856,51.191 165.347,51.050 166.050 M289.609 165.900 C 289.614 166.065,289.985 166.650,290.433 167.200 L 291.248 168.200 290.614 166.900 C 290.011 165.665,289.589 165.245,289.609 165.900 M49.429 173.429 C 49.281 174.015,49.238 174.572,49.332 174.666 C 49.427 174.760,49.624 174.358,49.771 173.771 C 49.919 173.185,49.962 172.628,49.868 172.534 C 49.773 172.440,49.576 172.842,49.429 173.429 M350.887 176.400 C 350.883 176.950,351.024 177.850,351.200 178.400 C 351.631 179.744,351.631 178.292,351.200 176.600 C 350.926 175.522,350.894 175.502,350.887 176.400 M48.650 177.650 C 48.317 179.317,48.640 179.640,49.000 178.000 C 49.152 177.309,49.193 176.659,49.091 176.558 C 48.989 176.456,48.791 176.947,48.650 177.650 M351.701 181.400 C 351.705 182.280,351.787 182.593,351.883 182.095 C 351.979 181.598,351.975 180.878,351.875 180.495 C 351.775 180.113,351.696 180.520,351.701 181.400 M47.833 182.833 C 47.683 183.966,47.641 184.974,47.739 185.072 C 47.837 185.171,48.045 184.328,48.200 183.200 C 48.355 182.072,48.398 181.064,48.294 180.961 C 48.191 180.858,47.984 181.700,47.833 182.833 M103.456 183.284 C 103.321 183.788,103.227 184.560,103.246 185.000 C 103.265 185.440,103.445 185.098,103.646 184.240 C 104.036 182.578,103.870 181.740,103.456 183.284 M296.056 182.800 C 296.056 183.130,296.211 183.760,296.400 184.200 C 296.617 184.704,296.744 184.778,296.744 184.400 C 296.744 184.070,296.589 183.440,296.400 183.000 C 296.183 182.496,296.056 182.422,296.056 182.800 M296.869 187.600 C 296.856 188.150,296.995 189.320,297.177 190.200 C 297.389 191.226,297.516 191.441,297.531 190.800 C 297.544 190.250,297.405 189.080,297.223 188.200 C 297.011 187.174,296.884 186.959,296.869 187.600 M102.672 188.604 C 102.527 189.482,102.429 190.740,102.453 191.400 C 102.478 192.060,102.655 191.520,102.848 190.200 C 103.240 187.515,103.085 186.107,102.672 188.604 M352.481 188.200 C 352.475 188.860,352.610 190.300,352.782 191.400 C 353.087 193.359,353.094 193.367,353.124 191.800 C 353.140 190.920,353.005 189.480,352.823 188.600 C 352.540 187.230,352.490 187.173,352.481 188.200 M47.086 189.400 C 46.933 190.280,46.829 191.630,46.853 192.400 C 46.885 193.401,46.999 193.117,47.253 191.400 C 47.656 188.679,47.511 186.946,47.086 189.400 M353.357 204.400 C 353.357 207.370,353.420 208.585,353.497 207.100 C 353.574 205.615,353.574 203.185,353.497 201.700 C 353.420 200.215,353.357 201.430,353.357 204.400 M102.435 202.233 C 102.454 203.315,102.619 205.100,102.800 206.200 C 103.036 207.626,103.069 207.110,102.915 204.400 C 102.684 200.350,102.377 198.960,102.435 202.233 M296.988 204.588 C 296.831 206.264,296.798 207.731,296.914 207.848 C 297.031 207.964,297.255 206.688,297.412 205.012 C 297.569 203.336,297.602 201.869,297.486 201.752 C 297.369 201.636,297.145 202.912,296.988 204.588 M46.520 204.000 C 46.520 205.210,46.595 205.705,46.687 205.100 C 46.778 204.495,46.778 203.505,46.687 202.900 C 46.595 202.295,46.520 202.790,46.520 204.000 M103.280 211.400 C 103.280 211.840,103.424 212.650,103.600 213.200 C 103.854 213.992,103.920 214.033,103.920 213.400 C 103.920 212.960,103.776 212.150,103.600 211.600 C 103.346 210.808,103.280 210.767,103.280 211.400 M296.256 212.084 C 296.121 212.588,296.027 213.360,296.046 213.800 C 296.065 214.240,296.245 213.898,296.446 213.040 C 296.836 211.378,296.670 210.540,296.256 212.084 M46.847 215.633 C 46.873 216.605,47.037 217.940,47.211 218.600 C 47.402 219.328,47.441 218.698,47.309 217.000 C 47.061 213.821,46.776 212.976,46.847 215.633 M352.636 217.139 C 352.475 218.755,352.431 220.164,352.537 220.270 C 352.801 220.534,353.331 215.390,353.107 214.730 C 353.009 214.439,352.797 215.522,352.636 217.139 M104.034 216.800 C 104.046 217.130,104.211 217.760,104.400 218.200 L 104.744 219.000 104.766 218.200 C 104.778 217.760,104.613 217.130,104.400 216.800 C 104.055 216.267,104.015 216.267,104.034 216.800 M295.473 216.953 C 295.323 217.345,295.211 217.966,295.225 218.333 C 295.242 218.775,295.381 218.674,295.637 218.034 C 295.849 217.503,295.961 216.882,295.885 216.654 C 295.809 216.427,295.624 216.561,295.473 216.953 M104.812 220.400 C 104.812 220.730,104.987 221.270,105.200 221.600 C 105.545 222.133,105.588 222.133,105.588 221.600 C 105.588 221.270,105.413 220.730,105.200 220.400 C 104.855 219.867,104.812 219.867,104.812 220.400 M294.667 220.667 C 294.520 220.813,294.411 221.308,294.425 221.767 C 294.449 222.533,294.482 222.523,294.834 221.642 C 295.226 220.663,295.144 220.189,294.667 220.667 M47.693 223.400 C 47.694 224.060,47.832 225.140,48.000 225.800 C 48.423 227.463,48.442 225.826,48.023 223.800 C 47.745 222.455,47.692 222.391,47.693 223.400 M351.785 224.985 C 351.630 226.223,351.590 227.323,351.695 227.429 C 351.801 227.534,352.007 226.601,352.154 225.354 C 352.300 224.107,352.341 223.007,352.243 222.910 C 352.146 222.812,351.939 223.746,351.785 224.985 M48.468 229.000 C 48.462 229.440,48.611 230.160,48.800 230.600 C 49.238 231.619,49.238 230.568,48.800 229.200 C 48.543 228.396,48.477 228.357,48.468 229.000 M351.056 229.684 C 350.921 230.188,350.827 230.960,350.846 231.400 C 350.865 231.840,351.045 231.498,351.246 230.640 C 351.636 228.978,351.470 228.140,351.056 229.684 M49.268 233.200 C 49.288 234.239,49.918 235.946,49.932 235.000 C 49.938 234.560,49.789 233.840,49.600 233.400 C 49.389 232.910,49.261 232.832,49.268 233.200 M287.514 239.300 C 286.989 240.235,286.232 241.540,285.832 242.200 L 285.105 243.400 285.937 242.400 C 286.868 241.282,288.956 237.600,288.659 237.600 C 288.554 237.600,288.039 238.365,287.514 239.300 M112.620 240.300 C 114.697 243.510,116.000 245.356,116.000 245.090 C 116.000 244.710,112.347 239.200,112.095 239.200 C 111.992 239.200,112.228 239.695,112.620 240.300 M50.868 240.400 C 50.888 241.439,51.518 243.146,51.532 242.200 C 51.538 241.760,51.389 241.040,51.200 240.600 C 50.989 240.110,50.861 240.032,50.868 240.400 M348.446 242.067 C 348.421 242.434,348.296 243.064,348.170 243.467 C 347.952 244.162,347.963 244.163,348.397 243.487 C 348.648 243.096,348.773 242.466,348.673 242.087 C 348.511 241.468,348.488 241.466,348.446 242.067 M283.775 245.068 C 283.159 245.876,282.859 246.411,283.109 246.256 C 283.621 245.940,285.353 243.600,285.075 243.600 C 284.976 243.600,284.391 244.261,283.775 245.068 M52.006 245.033 C 52.009 245.455,52.195 246.070,52.418 246.400 C 52.715 246.838,52.752 246.676,52.556 245.800 C 52.227 244.329,51.998 244.010,52.006 245.033 M116.841 246.239 C 117.633 247.427,119.691 249.692,120.616 250.395 C 121.297 250.912,118.559 247.694,116.877 246.000 C 116.349 245.468,116.345 245.496,116.841 246.239 M281.226 248.122 L 280.251 249.400 281.526 248.225 C 282.851 247.003,283.003 246.785,282.500 246.822 C 282.335 246.834,281.762 247.419,281.226 248.122 M346.846 247.667 C 346.821 248.034,346.696 248.664,346.570 249.067 C 346.352 249.762,346.363 249.763,346.797 249.087 C 347.048 248.696,347.173 248.066,347.073 247.687 C 346.911 247.068,346.888 247.066,346.846 247.667 M53.448 249.800 C 53.591 250.460,53.866 251.270,54.059 251.600 C 54.284 251.984,54.318 251.768,54.152 251.000 C 54.009 250.340,53.734 249.530,53.541 249.200 C 53.316 248.816,53.282 249.032,53.448 249.800 M122.400 252.125 C 122.400 252.194,122.985 252.779,123.700 253.425 L 125.000 254.600 123.825 253.300 C 122.730 252.088,122.400 251.816,122.400 252.125 M274.800 254.434 L 273.000 256.065 274.900 254.584 C 276.566 253.286,277.059 252.797,276.700 252.801 C 276.645 252.802,275.790 253.536,274.800 254.434 M125.798 255.137 C 126.234 255.652,126.953 256.259,127.396 256.486 C 128.245 256.921,128.121 256.787,126.203 255.194 C 125.048 254.235,125.034 254.233,125.798 255.137 M271.281 256.972 C 269.423 258.285,269.162 258.661,270.731 257.762 C 271.463 257.343,272.250 256.775,272.480 256.500 C 273.071 255.793,272.793 255.902,271.281 256.972 M90.600 264.006 C 89.897 264.188,90.642 264.228,92.400 264.103 C 94.050 263.985,95.475 263.824,95.567 263.744 C 95.875 263.478,91.813 263.691,90.600 264.006 M96.500 264.276 C 96.885 264.376,97.515 264.376,97.900 264.276 C 98.285 264.175,97.970 264.093,97.200 264.093 C 96.430 264.093,96.115 264.175,96.500 264.276 M101.400 265.494 C 102.280 265.854,103.787 266.582,104.748 267.114 C 105.710 267.645,106.386 267.901,106.251 267.683 C 105.935 267.171,101.013 264.794,100.325 264.821 C 100.036 264.832,100.520 265.135,101.400 265.494 M148.800 266.782 C 149.130 267.005,149.745 267.191,150.167 267.194 C 151.190 267.202,150.871 266.973,149.400 266.644 C 148.524 266.448,148.362 266.485,148.800 266.782 M249.800 266.800 C 249.296 267.017,249.222 267.144,249.600 267.144 C 249.930 267.144,250.560 266.989,251.000 266.800 C 251.504 266.583,251.578 266.456,251.200 266.456 C 250.870 266.456,250.240 266.611,249.800 266.800 M87.927 267.851 C 88.404 268.728,91.139 271.426,91.294 271.173 C 91.352 271.078,90.527 270.123,89.460 269.051 C 88.393 267.980,87.703 267.440,87.927 267.851 M151.600 267.582 C 151.930 267.805,152.545 267.991,152.967 267.994 C 153.990 268.002,153.671 267.773,152.200 267.444 C 151.324 267.248,151.162 267.285,151.600 267.582 M247.000 267.600 C 246.496 267.817,246.422 267.944,246.800 267.944 C 247.130 267.944,247.760 267.789,248.200 267.600 C 248.704 267.383,248.778 267.256,248.400 267.256 C 248.070 267.256,247.440 267.411,247.000 267.600 M154.600 268.400 C 155.040 268.589,155.760 268.738,156.200 268.732 C 156.843 268.723,156.804 268.657,156.000 268.400 C 154.632 267.962,153.581 267.962,154.600 268.400 M243.600 268.400 C 242.796 268.657,242.757 268.723,243.400 268.732 C 243.840 268.738,244.560 268.589,245.000 268.400 C 246.019 267.962,244.968 267.962,243.600 268.400 M159.300 269.476 C 159.685 269.576,160.315 269.576,160.700 269.476 C 161.085 269.375,160.770 269.293,160.000 269.293 C 159.230 269.293,158.915 269.375,159.300 269.476 M237.941 269.393 C 237.835 269.499,236.770 269.763,235.574 269.979 L 233.400 270.374 235.400 270.172 C 239.058 269.804,241.290 269.310,239.567 269.250 C 238.778 269.223,238.047 269.287,237.941 269.393 M111.933 272.600 C 113.363 274.030,114.633 275.200,114.755 275.200 C 114.877 275.200,113.817 274.030,112.400 272.600 C 110.983 271.170,109.713 270.000,109.578 270.000 C 109.444 270.000,110.503 271.170,111.933 272.600 M163.700 270.276 C 164.085 270.376,164.715 270.376,165.100 270.276 C 165.485 270.175,165.170 270.093,164.400 270.093 C 163.630 270.093,163.315 270.175,163.700 270.276 M170.119 271.093 C 171.468 271.233,171.608 271.348,171.374 272.125 C 171.166 272.814,171.216 272.900,171.608 272.527 C 172.524 271.657,171.747 270.795,170.113 270.867 L 168.600 270.934 170.119 271.093 M228.144 271.403 C 227.917 271.992,230.229 275.096,230.947 275.166 C 231.137 275.185,230.642 274.479,229.847 273.599 C 228.111 271.678,228.059 271.305,229.500 271.087 L 230.600 270.920 229.487 270.860 C 228.822 270.824,228.282 271.042,228.144 271.403 M169.634 274.153 L 168.669 275.400 169.813 274.312 C 170.443 273.714,170.877 273.153,170.779 273.065 C 170.680 272.977,170.165 273.467,169.634 274.153 M110.431 274.369 C 112.256 276.194,111.537 278.425,109.329 277.786 C 108.901 277.662,108.971 277.771,109.501 278.049 C 110.547 278.599,112.000 277.622,112.000 276.369 C 112.000 275.621,110.162 273.200,109.595 273.200 C 109.412 273.200,109.788 273.726,110.431 274.369 M106.825 275.438 C 106.811 275.899,107.202 276.619,107.693 277.038 C 108.192 277.464,108.376 277.526,108.109 277.178 C 107.847 276.837,107.456 276.117,107.241 275.578 C 106.885 274.686,106.848 274.674,106.825 275.438 M99.780 278.000 C 103.033 281.583,103.542 282.065,102.103 280.200 C 101.423 279.320,100.092 277.880,99.144 277.000 C 97.911 275.856,98.092 276.140,99.780 278.000 M115.774 277.000 C 117.167 279.052,117.452 279.295,116.677 277.771 C 116.334 277.095,115.749 276.290,115.378 275.982 C 115.007 275.674,115.185 276.132,115.774 277.000 M168.153 276.100 C 166.776 278.436,166.686 278.635,167.387 277.800 C 168.200 276.832,168.900 275.600,168.638 275.600 C 168.533 275.600,168.315 275.825,168.153 276.100 M334.214 277.835 C 333.841 278.404,333.605 278.938,333.689 279.022 C 333.773 279.107,334.158 278.641,334.544 277.988 C 335.406 276.528,335.148 276.409,334.214 277.835 M67.230 281.000 C 67.724 281.880,68.300 282.780,68.510 283.000 C 69.109 283.628,67.739 281.094,66.996 280.200 C 66.630 279.760,66.735 280.120,67.230 281.000 M233.618 279.649 C 233.608 279.785,234.053 280.865,234.606 282.049 C 235.160 283.232,235.497 283.750,235.355 283.200 C 235.087 282.156,233.648 279.216,233.618 279.649 M332.708 280.500 C 331.833 281.849,331.048 283.456,331.487 283.000 C 332.048 282.417,333.698 279.600,333.479 279.600 C 333.376 279.600,333.029 280.005,332.708 280.500 M165.050 281.991 C 164.147 284.247,164.287 284.583,165.237 282.442 C 165.666 281.475,165.945 280.612,165.858 280.525 C 165.771 280.438,165.408 281.098,165.050 281.991 M112.747 282.156 C 112.426 282.860,112.436 283.309,112.783 283.856 C 113.209 284.528,113.235 284.507,113.048 283.635 C 112.934 283.105,113.018 282.340,113.235 281.935 C 113.451 281.531,113.528 281.200,113.405 281.200 C 113.283 281.200,112.987 281.630,112.747 282.156 M116.644 281.980 C 116.888 282.321,117.288 282.960,117.532 283.400 C 117.776 283.840,117.981 283.985,117.988 283.722 C 117.995 283.460,117.595 282.821,117.100 282.303 C 116.605 281.785,116.400 281.640,116.644 281.980 M119.164 282.333 C 119.380 282.736,119.871 283.321,120.255 283.633 C 120.687 283.984,120.590 283.704,120.001 282.900 C 118.951 281.465,118.557 281.198,119.164 282.333 M69.149 284.200 C 69.365 284.640,69.834 285.360,70.193 285.800 L 70.844 286.600 70.451 285.800 C 70.235 285.360,69.766 284.640,69.407 284.200 L 68.756 283.400 69.149 284.200 M121.634 285.447 C 122.165 286.133,122.680 286.623,122.779 286.535 C 122.877 286.447,122.443 285.886,121.813 285.288 L 120.669 284.200 121.634 285.447 M235.648 284.600 C 235.641 284.820,235.885 285.900,236.191 287.000 C 236.512 288.158,236.745 288.579,236.743 288.000 C 236.739 287.055,235.675 283.750,235.648 284.600 M114.088 285.813 C 114.686 286.443,115.247 286.877,115.335 286.779 C 115.423 286.680,114.933 286.165,114.247 285.634 L 113.000 284.669 114.088 285.813 M163.050 288.450 C 162.717 290.117,163.040 290.440,163.400 288.800 C 163.552 288.109,163.593 287.459,163.491 287.358 C 163.389 287.256,163.191 287.747,163.050 288.450 M124.816 288.673 C 124.831 288.999,128.400 291.774,128.400 291.461 C 128.400 291.370,127.590 290.633,126.600 289.821 C 125.610 289.010,124.807 288.493,124.816 288.673 M123.642 290.268 C 124.216 290.624,124.976 291.384,125.332 291.958 C 125.688 292.531,125.984 292.789,125.989 292.531 C 126.003 291.921,123.679 289.597,123.069 289.611 C 122.811 289.616,123.069 289.912,123.642 290.268 M237.309 292.000 C 237.309 292.990,237.387 293.395,237.482 292.900 C 237.578 292.405,237.578 291.595,237.482 291.100 C 237.387 290.605,237.309 291.010,237.309 292.000 M120.052 292.777 C 120.277 293.424,120.698 294.150,120.987 294.389 C 121.280 294.633,121.160 294.113,120.714 293.212 C 119.776 291.316,119.473 291.117,120.052 292.777 M325.315 292.100 C 323.491 294.484,322.680 295.711,323.095 295.459 C 323.615 295.144,326.162 291.600,325.868 291.600 C 325.775 291.600,325.526 291.825,325.315 292.100 M237.701 295.800 C 237.705 296.680,237.787 296.993,237.883 296.495 C 237.979 295.998,237.975 295.278,237.875 294.895 C 237.775 294.513,237.696 294.920,237.701 295.800 M136.200 295.200 C 136.336 295.420,136.842 295.587,137.324 295.572 C 138.169 295.545,138.171 295.531,137.400 295.200 C 136.299 294.727,135.908 294.727,136.200 295.200 M153.000 295.200 L 151.800 295.505 152.876 295.553 C 153.468 295.579,154.064 295.420,154.200 295.200 C 154.336 294.980,154.392 294.821,154.324 294.847 C 154.256 294.873,153.660 295.032,153.000 295.200 M131.300 296.488 C 130.805 296.727,130.400 297.079,130.400 297.270 C 130.400 297.462,130.852 297.322,131.405 296.960 C 132.086 296.514,132.827 296.382,133.705 296.550 C 134.626 296.727,134.827 296.685,134.400 296.406 C 133.634 295.904,132.446 295.935,131.300 296.488 M142.915 296.296 C 144.188 296.376,146.168 296.375,147.315 296.294 C 148.462 296.214,147.420 296.149,145.000 296.150 C 142.580 296.151,141.642 296.216,142.915 296.296 M321.944 296.700 C 320.675 298.232,320.219 298.942,320.681 298.665 C 321.193 298.358,322.969 296.000,322.689 296.000 C 322.598 296.000,322.263 296.315,321.944 296.700 M135.802 297.602 C 136.202 298.044,136.611 298.322,136.712 298.221 C 136.928 298.005,135.788 296.800,135.367 296.800 C 135.207 296.800,135.403 297.161,135.802 297.602 M155.503 297.700 C 154.985 298.195,154.840 298.400,155.180 298.156 C 155.521 297.912,156.160 297.512,156.600 297.268 C 157.040 297.024,157.185 296.819,156.922 296.812 C 156.660 296.805,156.021 297.205,155.503 297.700 M160.114 297.720 C 160.601 298.226,161.074 298.587,161.164 298.523 C 161.398 298.355,159.942 296.800,159.552 296.800 C 159.374 296.800,159.627 297.214,160.114 297.720 M148.269 299.051 C 148.748 299.463,149.226 300.250,149.333 300.800 C 149.500 301.660,149.518 301.638,149.463 300.645 C 149.421 299.881,149.062 299.290,148.400 298.896 L 147.400 298.302 148.269 299.051 M318.201 301.419 C 317.158 302.640,316.372 303.696,316.453 303.766 C 316.534 303.836,317.469 302.837,318.532 301.546 C 320.985 298.567,320.724 298.467,318.201 301.419 M81.130 301.100 C 81.561 301.705,82.329 302.560,82.837 303.000 C 83.345 303.440,83.072 302.945,82.232 301.900 C 80.574 299.839,79.863 299.322,81.130 301.100 M113.200 300.283 C 113.200 300.537,114.055 301.622,115.100 302.695 C 116.145 303.768,116.442 304.005,115.760 303.223 C 115.078 302.440,114.223 301.355,113.860 300.811 C 113.497 300.267,113.200 300.029,113.200 300.283 M132.000 300.958 C 132.550 301.296,133.540 301.557,134.200 301.540 C 135.379 301.509,135.376 301.503,134.000 301.208 C 133.230 301.043,132.240 300.781,131.800 300.626 C 131.276 300.442,131.345 300.556,132.000 300.958 M156.705 301.883 C 157.202 301.979,157.922 301.975,158.305 301.875 C 158.687 301.775,158.280 301.696,157.400 301.701 C 156.520 301.705,156.207 301.787,156.705 301.883 M84.000 304.362 C 84.000 304.543,86.565 307.293,89.700 310.474 C 92.835 313.655,93.681 314.444,91.580 312.228 C 89.479 310.013,86.914 307.263,85.880 306.117 C 84.846 304.972,84.000 304.182,84.000 304.362 M309.600 310.760 C 306.190 314.239,302.619 317.756,301.664 318.574 C 300.710 319.393,300.002 320.135,300.090 320.224 C 300.331 320.464,311.037 310.134,313.734 307.060 C 315.017 305.597,316.007 304.408,315.934 304.417 C 315.860 304.426,313.010 307.281,309.600 310.760 M118.571 306.297 C 119.215 307.009,119.830 307.504,119.938 307.396 C 120.045 307.288,120.058 307.155,119.967 307.100 C 119.875 307.045,119.260 306.551,118.600 306.001 L 117.400 305.003 118.571 306.297 M158.400 313.600 C 157.605 314.114,158.604 314.114,159.800 313.600 L 160.600 313.256 159.800 313.234 C 159.360 313.222,158.730 313.387,158.400 313.600 M136.600 314.400 C 137.260 314.568,138.250 314.705,138.800 314.705 C 139.692 314.705,139.670 314.672,138.600 314.400 C 137.940 314.232,136.950 314.095,136.400 314.095 C 135.508 314.095,135.530 314.128,136.600 314.400 M152.800 314.400 C 151.450 314.684,151.443 314.695,152.600 314.700 C 153.260 314.703,154.340 314.568,155.000 314.400 C 156.660 313.978,154.807 313.978,152.800 314.400 M237.780 329.800 C 237.780 337.280,237.834 340.283,237.899 336.474 C 237.965 332.665,237.965 326.545,237.899 322.874 C 237.833 319.203,237.779 322.320,237.780 329.800 M97.573 318.095 C 98.328 318.916,99.033 319.501,99.139 319.394 C 99.246 319.287,99.257 319.155,99.165 319.100 C 99.072 319.045,98.367 318.460,97.598 317.801 L 96.200 316.602 97.573 318.095 M162.177 331.400 C 162.177 338.000,162.232 340.756,162.299 337.525 C 162.366 334.293,162.366 328.893,162.299 325.525 C 162.232 322.156,162.177 324.800,162.177 331.400 M297.600 322.049 C 296.519 323.026,296.279 323.358,297.000 322.881 C 298.106 322.149,299.937 320.384,299.562 320.412 C 299.473 320.419,298.590 321.155,297.600 322.049 M104.405 323.880 C 104.408 324.056,105.038 324.607,105.805 325.104 C 107.603 326.268,107.600 326.000,105.800 324.627 C 105.030 324.040,104.402 323.703,104.405 323.880 M286.838 330.029 C 282.539 333.009,281.032 334.153,282.400 333.397 C 284.870 332.033,292.441 326.586,291.524 326.833 C 291.456 326.852,289.347 328.290,286.838 330.029 M113.849 330.930 C 117.313 333.271,118.434 333.949,117.800 333.321 C 117.106 332.633,111.360 328.800,111.022 328.800 C 110.844 328.800,112.117 329.758,113.849 330.930 M119.600 334.579 C 119.600 334.689,120.140 335.059,120.800 335.400 C 121.460 335.741,122.000 335.931,122.000 335.821 C 122.000 335.711,121.460 335.341,120.800 335.000 C 120.140 334.659,119.600 334.469,119.600 334.579 M159.600 347.564 C 158.830 348.314,158.562 348.735,159.004 348.501 C 159.879 348.037,161.430 346.455,161.164 346.298 C 161.074 346.244,160.370 346.814,159.600 347.564 M145.750 347.483 C 146.198 347.932,151.363 349.581,152.200 349.543 L 153.000 349.507 152.200 349.320 C 151.760 349.217,150.590 348.858,149.600 348.523 C 146.667 347.530,145.475 347.208,145.750 347.483 M242.341 349.301 C 242.543 349.503,243.133 349.601,243.654 349.519 C 244.455 349.393,244.398 349.337,243.287 349.152 C 242.493 349.021,242.119 349.079,242.341 349.301 " stroke="none" fill="#565656" fill-rule="evenodd"></path></g></svg>