<svg id="svg" version="1.1" xmlns="http://www.w3.org/2000/svg" xmlns:xlink="http://www.w3.org/1999/xlink" width="400" height="400" viewBox="0, 0, 400,400"><g id="svgg"><path id="path0" d="M30.100 0.291 C 29.165 0.376,28.400 0.616,28.400 0.823 C 28.400 1.030,27.961 1.200,27.424 1.200 C 26.887 1.200,26.336 1.380,26.200 1.600 C 26.064 1.820,25.513 2.000,24.976 2.000 C 24.439 2.000,24.000 2.180,24.000 2.400 C 24.000 2.620,23.640 2.800,23.200 2.800 C 22.760 2.800,22.400 2.980,22.400 3.200 C 22.400 3.420,22.080 3.600,21.688 3.600 C 21.297 3.600,20.717 3.960,20.400 4.400 C 20.083 4.840,19.503 5.200,19.112 5.200 C 18.720 5.200,18.400 5.380,18.400 5.600 C 18.400 5.820,18.112 6.000,17.760 6.000 C 17.409 6.000,16.617 6.540,16.000 7.200 C 15.383 7.860,14.683 8.400,14.443 8.400 C 13.437 8.400,8.400 13.437,8.400 14.443 C 8.400 14.683,7.860 15.383,7.200 16.000 C 6.540 16.617,6.000 17.409,6.000 17.760 C 6.000 18.112,5.820 18.400,5.600 18.400 C 5.380 18.400,5.200 18.720,5.200 19.112 C 5.200 19.503,4.840 20.083,4.400 20.400 C 3.960 20.717,3.600 21.297,3.600 21.688 C 3.600 22.080,3.420 22.400,3.200 22.400 C 2.980 22.400,2.800 22.760,2.800 23.200 C 2.800 23.640,2.620 24.000,2.400 24.000 C 2.180 24.000,2.000 24.439,2.000 24.976 C 2.000 25.513,1.820 26.064,1.600 26.200 C 1.380 26.336,1.200 26.872,1.200 27.390 C 1.200 27.909,0.975 28.408,0.700 28.500 C -0.036 28.745,-0.036 371.255,0.700 371.500 C 0.975 371.592,1.200 372.091,1.200 372.610 C 1.200 373.128,1.380 373.664,1.600 373.800 C 1.820 373.936,2.000 374.487,2.000 375.024 C 2.000 375.561,2.180 376.000,2.400 376.000 C 2.620 376.000,2.800 376.360,2.800 376.800 C 2.800 377.240,2.980 377.600,3.200 377.600 C 3.420 377.600,3.600 377.920,3.600 378.312 C 3.600 378.703,3.960 379.283,4.400 379.600 C 4.840 379.917,5.200 380.497,5.200 380.888 C 5.200 381.280,5.380 381.600,5.600 381.600 C 5.820 381.600,6.000 381.888,6.000 382.240 C 6.000 382.591,6.540 383.383,7.200 384.000 C 7.860 384.617,8.400 385.317,8.400 385.557 C 8.400 386.482,13.427 391.594,14.340 391.598 C 14.636 391.599,15.383 392.140,16.000 392.800 C 16.617 393.460,17.409 394.000,17.760 394.000 C 18.112 394.000,18.400 394.180,18.400 394.400 C 18.400 394.620,18.720 394.800,19.112 394.800 C 19.503 394.800,20.083 395.160,20.400 395.600 C 20.717 396.040,21.297 396.400,21.688 396.400 C 22.080 396.400,22.400 396.580,22.400 396.800 C 22.400 397.020,22.760 397.200,23.200 397.200 C 23.640 397.200,24.000 397.380,24.000 397.600 C 24.000 397.820,24.439 398.000,24.976 398.000 C 25.513 398.000,26.064 398.180,26.200 398.400 C 26.336 398.620,26.872 398.800,27.390 398.800 C 27.909 398.800,28.408 399.025,28.500 399.300 C 28.745 400.036,371.255 400.036,371.500 399.300 C 371.592 399.025,372.091 398.800,372.610 398.800 C 373.128 398.800,373.664 398.620,373.800 398.400 C 373.936 398.180,374.487 398.000,375.024 398.000 C 375.561 398.000,376.000 397.820,376.000 397.600 C 376.000 397.380,376.360 397.200,376.800 397.200 C 377.240 397.200,377.600 397.020,377.600 396.800 C 377.600 396.580,377.920 396.400,378.312 396.400 C 378.703 396.400,379.283 396.040,379.600 395.600 C 379.917 395.160,380.497 394.800,380.888 394.800 C 381.280 394.800,381.600 394.620,381.600 394.400 C 381.600 394.180,381.888 394.000,382.240 394.000 C 382.591 394.000,383.383 393.460,384.000 392.800 C 384.617 392.140,385.379 391.600,385.694 391.600 C 386.440 391.600,391.600 386.440,391.600 385.694 C 391.600 385.379,392.140 384.617,392.800 384.000 C 393.460 383.383,394.000 382.591,394.000 382.240 C 394.000 381.888,394.180 381.600,394.400 381.600 C 394.620 381.600,394.800 381.280,394.800 380.888 C 394.800 380.497,395.160 379.917,395.600 379.600 C 396.040 379.283,396.400 378.703,396.400 378.312 C 396.400 377.920,396.580 377.600,396.800 377.600 C 397.020 377.600,397.200 377.240,397.200 376.800 C 397.200 376.360,397.380 376.000,397.600 376.000 C 397.820 376.000,398.000 375.561,398.000 375.024 C 398.000 374.487,398.180 373.936,398.400 373.800 C 398.620 373.664,398.800 373.128,398.800 372.610 C 398.800 372.091,399.025 371.592,399.300 371.500 C 400.036 371.255,400.036 28.745,399.300 28.500 C 399.025 28.408,398.800 27.909,398.800 27.390 C 398.800 26.872,398.620 26.336,398.400 26.200 C 398.180 26.064,398.000 25.513,398.000 24.976 C 398.000 24.439,397.820 24.000,397.600 24.000 C 397.380 24.000,397.200 23.640,397.200 23.200 C 397.200 22.760,397.020 22.400,396.800 22.400 C 396.580 22.400,396.400 22.080,396.400 21.688 C 396.400 21.297,396.040 20.717,395.600 20.400 C 395.160 20.083,394.800 19.503,394.800 19.112 C 394.800 18.720,394.620 18.400,394.400 18.400 C 394.180 18.400,394.000 18.112,394.000 17.760 C 394.000 17.409,393.460 16.617,392.800 16.000 C 392.140 15.383,391.599 14.636,391.598 14.340 C 391.594 13.427,386.482 8.400,385.557 8.400 C 385.317 8.400,384.617 7.860,384.000 7.200 C 383.383 6.540,382.591 6.000,382.240 6.000 C 381.888 6.000,381.600 5.820,381.600 5.600 C 381.600 5.380,381.280 5.200,380.888 5.200 C 380.497 5.200,379.917 4.840,379.600 4.400 C 379.283 3.960,378.703 3.600,378.312 3.600 C 377.920 3.600,377.600 3.420,377.600 3.200 C 377.600 2.980,377.240 2.800,376.800 2.800 C 376.360 2.800,376.000 2.620,376.000 2.400 C 376.000 2.180,375.561 2.000,375.024 2.000 C 374.487 2.000,373.936 1.820,373.800 1.600 C 373.664 1.380,373.128 1.200,372.610 1.200 C 372.091 1.200,371.592 0.975,371.500 0.700 C 371.343 0.229,35.199 -0.174,30.100 0.291 M96.705 55.551 C 97.723 56.065,100.164 56.800,100.854 56.800 C 101.182 56.800,102.383 57.250,103.523 57.800 C 104.663 58.350,105.867 58.800,106.198 58.800 C 106.529 58.800,106.800 58.980,106.800 59.200 C 106.800 59.420,107.160 59.600,107.600 59.600 C 108.040 59.600,108.400 59.780,108.400 60.000 C 108.400 60.220,108.580 60.400,108.800 60.400 C 109.019 60.400,109.941 61.120,110.848 62.000 C 111.755 62.880,112.661 63.600,112.862 63.600 C 113.337 63.600,116.000 66.263,116.000 66.738 C 116.000 66.939,116.692 67.817,117.539 68.689 C 118.385 69.561,119.329 70.843,119.636 71.537 C 119.944 72.232,120.331 72.800,120.498 72.800 C 120.664 72.800,120.800 73.070,120.800 73.400 C 120.800 73.730,120.980 74.000,121.200 74.000 C 121.420 74.000,121.600 74.270,121.600 74.600 C 121.600 74.930,121.780 75.200,122.000 75.200 C 122.220 75.200,122.400 75.549,122.400 75.976 C 122.400 76.403,122.580 76.864,122.800 77.000 C 123.020 77.136,123.200 77.867,123.200 78.624 C 123.200 79.381,123.380 80.000,123.600 80.000 C 123.820 80.000,124.000 80.525,124.000 81.167 C 124.000 81.808,124.204 82.401,124.453 82.484 C 125.094 82.698,125.103 96.657,124.463 97.297 C 124.208 97.552,124.000 98.354,124.000 99.080 C 124.000 99.806,123.820 100.400,123.600 100.400 C 123.380 100.400,123.200 100.940,123.200 101.600 C 123.200 102.260,123.020 102.800,122.800 102.800 C 122.580 102.800,122.400 103.160,122.400 103.600 C 122.400 104.040,122.220 104.400,122.000 104.400 C 121.780 104.400,121.600 104.760,121.600 105.200 C 121.600 105.640,121.420 106.000,121.200 106.000 C 120.980 106.000,120.800 106.360,120.800 106.800 C 120.800 107.240,120.620 107.600,120.400 107.600 C 120.180 107.600,119.999 107.825,119.998 108.100 C 119.997 108.375,119.457 109.175,118.798 109.878 C 118.139 110.581,117.600 111.265,117.600 111.398 C 117.600 111.712,111.712 117.600,111.398 117.600 C 111.265 117.600,110.581 118.139,109.878 118.798 C 109.175 119.457,108.375 119.997,108.100 119.998 C 107.825 119.999,107.600 120.180,107.600 120.400 C 107.600 120.620,107.240 120.800,106.800 120.800 C 106.360 120.800,106.000 120.980,106.000 121.200 C 106.000 121.420,105.640 121.600,105.200 121.600 C 104.760 121.600,104.400 121.780,104.400 122.000 C 104.400 122.220,104.040 122.400,103.600 122.400 C 103.160 122.400,102.800 122.580,102.800 122.800 C 102.800 123.020,102.260 123.200,101.600 123.200 C 100.940 123.200,100.400 123.380,100.400 123.600 C 100.400 123.820,99.806 124.000,99.080 124.000 C 98.354 124.000,97.552 124.208,97.297 124.463 C 96.657 125.103,82.698 125.094,82.484 124.453 C 82.401 124.204,81.808 124.000,81.167 124.000 C 80.525 124.000,80.000 123.820,80.000 123.600 C 80.000 123.380,79.381 123.200,78.624 123.200 C 77.867 123.200,77.136 123.020,77.000 122.800 C 76.864 122.580,76.403 122.400,75.976 122.400 C 75.549 122.400,75.200 122.220,75.200 122.000 C 75.200 121.780,74.930 121.600,74.600 121.600 C 74.270 121.600,74.000 121.420,74.000 121.200 C 74.000 120.980,73.730 120.800,73.400 120.800 C 73.070 120.800,72.800 120.664,72.800 120.498 C 72.800 120.331,72.232 119.944,71.537 119.636 C 70.843 119.329,69.561 118.385,68.689 117.539 C 67.817 116.692,66.939 116.000,66.738 116.000 C 66.263 116.000,63.600 113.337,63.600 112.862 C 63.600 112.661,62.880 111.755,62.000 110.848 C 61.120 109.941,60.400 109.019,60.400 108.800 C 60.400 108.580,60.220 108.400,60.000 108.400 C 59.780 108.400,59.600 108.040,59.600 107.600 C 59.600 107.160,59.420 106.800,59.200 106.800 C 58.980 106.800,58.800 106.529,58.800 106.198 C 58.800 105.867,58.350 104.663,57.800 103.523 C 57.250 102.383,56.800 101.182,56.800 100.854 C 56.800 100.164,56.065 97.723,55.551 96.705 C 55.057 95.728,55.102 83.708,55.600 83.400 C 55.820 83.264,56.000 82.711,56.000 82.171 C 56.000 81.631,56.162 80.877,56.361 80.495 C 56.560 80.113,56.954 78.990,57.237 78.000 C 57.520 77.010,57.988 75.845,58.276 75.411 C 58.564 74.977,58.800 74.302,58.800 73.911 C 58.800 73.520,58.980 73.200,59.200 73.200 C 59.420 73.200,59.600 72.880,59.600 72.488 C 59.600 72.097,59.960 71.517,60.400 71.200 C 60.840 70.883,61.200 70.383,61.200 70.088 C 61.200 69.794,63.080 67.674,65.377 65.377 C 67.674 63.080,69.794 61.200,70.088 61.200 C 70.383 61.200,70.883 60.840,71.200 60.400 C 71.517 59.960,72.097 59.600,72.488 59.600 C 72.880 59.600,73.200 59.420,73.200 59.200 C 73.200 58.980,73.520 58.800,73.911 58.800 C 74.302 58.800,74.977 58.564,75.411 58.276 C 75.845 57.988,77.010 57.520,78.000 57.237 C 78.990 56.954,80.113 56.560,80.495 56.361 C 80.877 56.162,81.631 56.000,82.171 56.000 C 82.711 56.000,83.264 55.820,83.400 55.600 C 83.708 55.102,95.728 55.057,96.705 55.551 M278.000 157.561 C 279.650 157.787,282.575 158.187,284.500 158.450 C 286.425 158.714,288.000 159.080,288.000 159.264 C 288.000 159.449,288.540 159.600,289.200 159.600 C 289.860 159.600,290.400 159.780,290.400 160.000 C 290.400 160.220,290.839 160.400,291.376 160.400 C 291.913 160.400,292.464 160.580,292.600 160.800 C 292.736 161.020,293.287 161.200,293.824 161.200 C 294.361 161.200,294.800 161.380,294.800 161.600 C 294.800 161.820,295.160 162.000,295.600 162.000 C 296.040 162.000,296.400 162.180,296.400 162.400 C 296.400 162.620,296.760 162.800,297.200 162.800 C 297.640 162.800,298.000 162.980,298.000 163.200 C 298.000 163.420,298.360 163.600,298.800 163.600 C 299.240 163.600,299.600 163.780,299.600 164.000 C 299.600 164.220,299.960 164.400,300.400 164.400 C 300.840 164.400,301.200 164.580,301.200 164.800 C 301.200 165.020,301.560 165.200,302.000 165.200 C 302.440 165.200,302.800 165.380,302.800 165.600 C 302.800 165.820,303.078 166.000,303.417 166.000 C 303.756 166.000,304.420 166.360,304.892 166.800 C 305.364 167.240,305.987 167.600,306.275 167.600 C 306.564 167.600,306.800 167.780,306.800 168.000 C 306.800 168.220,307.068 168.400,307.397 168.400 C 307.725 168.400,308.509 168.940,309.140 169.600 C 309.771 170.260,310.492 170.800,310.743 170.800 C 310.994 170.800,311.201 170.935,311.203 171.100 C 311.204 171.265,311.878 171.850,312.701 172.400 C 315.207 174.076,323.200 181.711,323.200 182.428 C 323.200 182.637,323.740 183.372,324.400 184.063 C 325.060 184.754,325.600 185.519,325.600 185.763 C 325.600 186.008,326.005 186.656,326.500 187.204 C 326.995 187.752,327.654 188.692,327.964 189.293 C 328.274 189.895,328.859 190.742,329.264 191.177 C 329.669 191.611,330.000 192.244,330.000 192.583 C 330.000 192.922,330.180 193.200,330.400 193.200 C 330.620 193.200,330.800 193.560,330.800 194.000 C 330.800 194.440,330.980 194.800,331.200 194.800 C 331.420 194.800,331.600 195.160,331.600 195.600 C 331.600 196.040,331.780 196.400,332.000 196.400 C 332.220 196.400,332.400 196.760,332.400 197.200 C 332.400 197.640,332.580 198.000,332.800 198.000 C 333.020 198.000,333.200 198.360,333.200 198.800 C 333.200 199.240,333.380 199.600,333.600 199.600 C 333.820 199.600,334.000 200.039,334.000 200.576 C 334.000 201.113,334.180 201.664,334.400 201.800 C 334.620 201.936,334.800 202.397,334.800 202.824 C 334.800 203.251,334.980 203.600,335.200 203.600 C 335.420 203.600,335.600 204.140,335.600 204.800 C 335.600 205.460,335.780 206.000,336.000 206.000 C 336.220 206.000,336.400 206.630,336.400 207.400 C 336.400 208.170,336.580 208.800,336.800 208.800 C 337.020 208.800,337.200 209.340,337.200 210.000 C 337.200 210.660,337.380 211.200,337.600 211.200 C 337.822 211.200,338.000 212.267,338.000 213.600 C 338.000 214.933,338.178 216.000,338.400 216.000 C 338.637 216.000,338.800 217.459,338.800 219.576 C 338.800 221.543,338.980 223.264,339.200 223.400 C 339.464 223.563,339.600 243.404,339.600 281.624 L 339.600 339.600 310.200 339.600 L 280.800 339.600 280.800 285.200 C 280.800 249.200,280.665 230.800,280.400 230.800 C 280.180 230.800,280.000 229.821,280.000 228.624 C 280.000 227.427,279.820 226.336,279.600 226.200 C 279.380 226.064,279.200 225.513,279.200 224.976 C 279.200 224.439,279.020 224.000,278.800 224.000 C 278.580 224.000,278.400 223.460,278.400 222.800 C 278.400 222.140,278.220 221.600,278.000 221.600 C 277.780 221.600,277.600 221.240,277.600 220.800 C 277.600 220.360,277.420 220.000,277.200 220.000 C 276.980 220.000,276.800 219.764,276.800 219.475 C 276.800 219.187,276.440 218.564,276.000 218.092 C 275.560 217.620,275.200 216.989,275.200 216.691 C 275.200 215.633,267.695 208.400,266.597 208.400 C 266.269 208.400,266.000 208.220,266.000 208.000 C 266.000 207.780,265.640 207.600,265.200 207.600 C 264.760 207.600,264.400 207.420,264.400 207.200 C 264.400 206.980,264.040 206.800,263.600 206.800 C 263.160 206.800,262.800 206.620,262.800 206.400 C 262.800 206.180,262.440 206.000,262.000 206.000 C 261.560 206.000,261.200 205.820,261.200 205.600 C 261.200 205.380,260.660 205.200,260.000 205.200 C 259.340 205.200,258.800 205.020,258.800 204.800 C 258.800 204.580,258.361 204.400,257.824 204.400 C 257.287 204.400,256.736 204.220,256.600 204.000 C 256.452 203.761,253.804 203.600,250.000 203.600 C 246.196 203.600,243.548 203.761,243.400 204.000 C 243.264 204.220,242.713 204.400,242.176 204.400 C 241.639 204.400,241.200 204.580,241.200 204.800 C 241.200 205.020,240.660 205.200,240.000 205.200 C 239.340 205.200,238.800 205.380,238.800 205.600 C 238.800 205.820,238.440 206.000,238.000 206.000 C 237.560 206.000,237.200 206.180,237.200 206.400 C 237.200 206.620,236.840 206.800,236.400 206.800 C 235.960 206.800,235.600 206.980,235.600 207.200 C 235.600 207.420,235.240 207.600,234.800 207.600 C 234.360 207.600,234.000 207.780,234.000 208.000 C 234.000 208.220,233.731 208.400,233.403 208.400 C 232.183 208.400,224.800 215.626,224.800 216.820 C 224.800 217.047,224.440 217.620,224.000 218.092 C 223.560 218.564,223.200 219.187,223.200 219.475 C 223.200 219.764,223.020 220.000,222.800 220.000 C 222.580 220.000,222.400 220.360,222.400 220.800 C 222.400 221.240,222.220 221.600,222.000 221.600 C 221.780 221.600,221.600 222.140,221.600 222.800 C 221.600 223.460,221.420 224.000,221.200 224.000 C 220.980 224.000,220.800 224.439,220.800 224.976 C 220.800 225.513,220.620 226.064,220.400 226.200 C 220.180 226.336,220.000 227.427,220.000 228.624 C 220.000 229.821,219.820 230.800,219.600 230.800 C 219.335 230.800,219.200 249.200,219.200 285.200 L 219.200 339.600 189.800 339.600 L 160.400 339.600 160.400 250.000 L 160.400 160.400 189.800 160.400 L 219.200 160.400 219.200 172.600 C 219.200 183.513,219.267 184.800,219.840 184.800 C 220.465 184.800,222.800 182.606,222.800 182.019 C 222.800 181.856,223.176 181.290,223.635 180.761 C 224.094 180.233,224.949 179.172,225.535 178.404 C 227.037 176.435,230.260 173.200,230.719 173.200 C 230.930 173.200,231.845 172.480,232.752 171.600 C 233.659 170.720,234.547 170.000,234.725 170.000 C 234.903 170.000,235.398 169.685,235.825 169.300 C 236.251 168.915,237.095 168.345,237.700 168.032 C 238.305 167.720,238.800 167.315,238.800 167.132 C 238.800 166.950,239.070 166.800,239.400 166.800 C 239.730 166.800,240.000 166.620,240.000 166.400 C 240.000 166.180,240.270 166.000,240.600 166.000 C 240.930 166.000,241.200 165.820,241.200 165.600 C 241.200 165.380,241.470 165.200,241.800 165.200 C 242.130 165.200,242.400 165.020,242.400 164.800 C 242.400 164.580,242.760 164.400,243.200 164.400 C 243.640 164.400,244.000 164.220,244.000 164.000 C 244.000 163.780,244.360 163.600,244.800 163.600 C 245.240 163.600,245.600 163.420,245.600 163.200 C 245.600 162.980,245.960 162.800,246.400 162.800 C 246.840 162.800,247.200 162.620,247.200 162.400 C 247.200 162.180,247.560 162.000,248.000 162.000 C 248.440 162.000,248.800 161.820,248.800 161.600 C 248.800 161.380,249.162 161.200,249.605 161.200 C 250.048 161.200,250.768 161.020,251.205 160.800 C 251.642 160.580,252.358 160.220,252.795 160.000 C 253.232 159.780,253.952 159.600,254.395 159.600 C 254.838 159.600,255.200 159.438,255.200 159.241 C 255.200 159.043,256.461 158.755,258.002 158.600 C 259.542 158.445,260.903 158.157,261.025 157.959 C 261.147 157.762,262.362 157.597,263.724 157.594 C 265.086 157.591,266.470 157.407,266.800 157.186 C 267.478 156.732,273.387 156.930,278.000 157.561 M119.200 250.000 L 119.200 339.600 89.800 339.600 L 60.400 339.600 60.400 250.000 L 60.400 160.400 89.800 160.400 L 119.200 160.400 119.200 250.000 " stroke="none" fill="#040404" fill-rule="evenodd"></path><path id="path1" d="" stroke="none" fill="#080404" fill-rule="evenodd"></path><path id="path2" d="" stroke="none" fill="#080404" fill-rule="evenodd"></path><path id="path3" d="" stroke="none" fill="#080404" fill-rule="evenodd"></path><path id="path4" d="" stroke="none" fill="#080404" fill-rule="evenodd"></path></g></svg>