<svg id="svg" version="1.1" xmlns="http://www.w3.org/2000/svg" xmlns:xlink="http://www.w3.org/1999/xlink" width="400" height="400" viewBox="0, 0, 400,400"><g id="svgg"><path id="path0" d="M61.600 0.294 C 60.390 0.377,59.229 0.616,59.020 0.823 C 58.811 1.030,58.057 1.200,57.344 1.200 C 56.631 1.200,55.936 1.380,55.800 1.600 C 55.664 1.820,54.944 2.000,54.200 2.000 C 53.456 2.000,52.736 2.180,52.600 2.400 C 52.464 2.620,51.913 2.800,51.376 2.800 C 50.839 2.800,50.400 2.980,50.400 3.200 C 50.400 3.420,49.860 3.600,49.200 3.600 C 48.540 3.600,48.000 3.780,48.000 4.000 C 48.000 4.220,47.460 4.400,46.800 4.400 C 46.140 4.400,45.600 4.580,45.600 4.800 C 45.600 5.020,45.240 5.200,44.800 5.200 C 44.360 5.200,44.000 5.380,44.000 5.600 C 44.000 5.820,43.640 6.000,43.200 6.000 C 42.760 6.000,42.400 6.180,42.400 6.400 C 42.400 6.620,42.130 6.800,41.800 6.800 C 41.470 6.800,41.200 6.980,41.200 7.200 C 41.200 7.420,40.840 7.600,40.400 7.600 C 39.960 7.600,39.600 7.780,39.600 8.000 C 39.600 8.220,39.336 8.400,39.014 8.400 C 38.201 8.400,35.600 9.676,35.600 10.074 C 35.600 10.253,35.240 10.400,34.800 10.400 C 34.360 10.400,34.000 10.568,34.000 10.773 C 34.000 10.978,33.654 11.256,33.232 11.390 C 32.809 11.524,31.784 12.256,30.954 13.017 C 30.123 13.778,29.281 14.400,29.082 14.400 C 28.884 14.400,28.217 14.940,27.600 15.600 C 26.983 16.260,26.369 16.800,26.235 16.800 C 25.917 16.800,16.800 25.917,16.800 26.235 C 16.800 26.369,16.260 26.983,15.600 27.600 C 14.940 28.217,14.400 28.884,14.400 29.082 C 14.400 29.281,13.778 30.123,13.017 30.954 C 12.256 31.784,11.524 32.809,11.390 33.232 C 11.256 33.654,10.978 34.000,10.773 34.000 C 10.568 34.000,10.400 34.360,10.400 34.800 C 10.400 35.240,10.253 35.600,10.074 35.600 C 9.676 35.600,8.400 38.201,8.400 39.014 C 8.400 39.336,8.220 39.600,8.000 39.600 C 7.780 39.600,7.600 39.960,7.600 40.400 C 7.600 40.840,7.420 41.200,7.200 41.200 C 6.980 41.200,6.800 41.470,6.800 41.800 C 6.800 42.130,6.620 42.400,6.400 42.400 C 6.180 42.400,6.000 42.760,6.000 43.200 C 6.000 43.640,5.820 44.000,5.600 44.000 C 5.380 44.000,5.200 44.360,5.200 44.800 C 5.200 45.240,5.020 45.600,4.800 45.600 C 4.580 45.600,4.400 46.140,4.400 46.800 C 4.400 47.460,4.220 48.000,4.000 48.000 C 3.780 48.000,3.600 48.540,3.600 49.200 C 3.600 49.860,3.420 50.400,3.200 50.400 C 2.980 50.400,2.800 50.839,2.800 51.376 C 2.800 51.913,2.620 52.464,2.400 52.600 C 2.180 52.736,2.000 53.456,2.000 54.200 C 2.000 54.944,1.820 55.664,1.600 55.800 C 1.380 55.936,1.200 56.631,1.200 57.344 C 1.200 58.057,0.975 58.865,0.700 59.140 C -0.035 59.875,-0.035 340.125,0.700 340.860 C 0.975 341.135,1.200 341.943,1.200 342.656 C 1.200 343.369,1.380 344.064,1.600 344.200 C 1.820 344.336,2.000 345.056,2.000 345.800 C 2.000 346.544,2.180 347.264,2.400 347.400 C 2.620 347.536,2.800 348.087,2.800 348.624 C 2.800 349.161,2.980 349.600,3.200 349.600 C 3.420 349.600,3.600 350.140,3.600 350.800 C 3.600 351.460,3.780 352.000,4.000 352.000 C 4.220 352.000,4.400 352.540,4.400 353.200 C 4.400 353.860,4.580 354.400,4.800 354.400 C 5.020 354.400,5.200 354.760,5.200 355.200 C 5.200 355.640,5.380 356.000,5.600 356.000 C 5.820 356.000,6.000 356.360,6.000 356.800 C 6.000 357.240,6.180 357.600,6.400 357.600 C 6.620 357.600,6.800 357.870,6.800 358.200 C 6.800 358.530,6.980 358.800,7.200 358.800 C 7.420 358.800,7.600 359.160,7.600 359.600 C 7.600 360.040,7.780 360.400,8.000 360.400 C 8.220 360.400,8.400 360.664,8.400 360.986 C 8.400 361.799,9.676 364.400,10.074 364.400 C 10.253 364.400,10.400 364.760,10.400 365.200 C 10.400 365.640,10.568 366.000,10.773 366.000 C 10.978 366.000,11.256 366.346,11.390 366.768 C 11.524 367.191,12.256 368.216,13.017 369.046 C 13.778 369.877,14.400 370.719,14.400 370.918 C 14.400 371.116,14.940 371.783,15.600 372.400 C 16.260 373.017,16.800 373.631,16.800 373.765 C 16.800 374.083,25.917 383.200,26.235 383.200 C 26.369 383.200,26.983 383.740,27.600 384.400 C 28.217 385.060,28.884 385.600,29.082 385.600 C 29.281 385.600,30.123 386.222,30.954 386.983 C 31.784 387.744,32.809 388.476,33.232 388.610 C 33.654 388.744,34.000 389.022,34.000 389.227 C 34.000 389.432,34.360 389.600,34.800 389.600 C 35.240 389.600,35.600 389.747,35.600 389.926 C 35.600 390.324,38.201 391.600,39.014 391.600 C 39.336 391.600,39.600 391.780,39.600 392.000 C 39.600 392.220,39.960 392.400,40.400 392.400 C 40.840 392.400,41.200 392.580,41.200 392.800 C 41.200 393.020,41.470 393.200,41.800 393.200 C 42.130 393.200,42.400 393.380,42.400 393.600 C 42.400 393.820,42.760 394.000,43.200 394.000 C 43.640 394.000,44.000 394.180,44.000 394.400 C 44.000 394.620,44.360 394.800,44.800 394.800 C 45.240 394.800,45.600 394.980,45.600 395.200 C 45.600 395.420,46.140 395.600,46.800 395.600 C 47.460 395.600,48.000 395.780,48.000 396.000 C 48.000 396.220,48.540 396.400,49.200 396.400 C 49.860 396.400,50.400 396.580,50.400 396.800 C 50.400 397.020,50.839 397.200,51.376 397.200 C 51.913 397.200,52.464 397.380,52.600 397.600 C 52.736 397.820,53.456 398.000,54.200 398.000 C 54.944 398.000,55.664 398.180,55.800 398.400 C 55.936 398.620,56.631 398.800,57.344 398.800 C 58.057 398.800,58.865 399.025,59.140 399.300 C 59.875 400.035,340.125 400.035,340.860 399.300 C 341.135 399.025,341.943 398.800,342.656 398.800 C 343.369 398.800,344.064 398.620,344.200 398.400 C 344.336 398.180,345.056 398.000,345.800 398.000 C 346.544 398.000,347.264 397.820,347.400 397.600 C 347.536 397.380,348.087 397.200,348.624 397.200 C 349.161 397.200,349.600 397.020,349.600 396.800 C 349.600 396.580,350.140 396.400,350.800 396.400 C 351.460 396.400,352.000 396.220,352.000 396.000 C 352.000 395.780,352.540 395.600,353.200 395.600 C 353.860 395.600,354.400 395.420,354.400 395.200 C 354.400 394.980,354.760 394.800,355.200 394.800 C 355.640 394.800,356.000 394.620,356.000 394.400 C 356.000 394.180,356.360 394.000,356.800 394.000 C 357.240 394.000,357.600 393.820,357.600 393.600 C 357.600 393.380,357.870 393.200,358.200 393.200 C 358.530 393.200,358.800 393.020,358.800 392.800 C 358.800 392.580,359.160 392.400,359.600 392.400 C 360.040 392.400,360.400 392.220,360.400 392.000 C 360.400 391.780,360.664 391.600,360.986 391.600 C 361.799 391.600,364.400 390.324,364.400 389.926 C 364.400 389.747,364.760 389.600,365.200 389.600 C 365.640 389.600,366.000 389.432,366.000 389.227 C 366.000 389.022,366.346 388.744,366.768 388.610 C 367.191 388.476,368.216 387.744,369.046 386.983 C 369.877 386.222,370.719 385.600,370.918 385.600 C 371.116 385.600,371.783 385.060,372.400 384.400 C 373.017 383.740,373.631 383.200,373.765 383.200 C 374.083 383.200,383.200 374.083,383.200 373.765 C 383.200 373.631,383.740 373.017,384.400 372.400 C 385.060 371.783,385.600 371.116,385.600 370.918 C 385.600 370.719,386.222 369.877,386.983 369.046 C 387.744 368.216,388.476 367.191,388.610 366.768 C 388.744 366.346,389.022 366.000,389.227 366.000 C 389.432 366.000,389.600 365.640,389.600 365.200 C 389.600 364.760,389.747 364.400,389.926 364.400 C 390.324 364.400,391.600 361.799,391.600 360.986 C 391.600 360.664,391.780 360.400,392.000 360.400 C 392.220 360.400,392.400 360.040,392.400 359.600 C 392.400 359.160,392.580 358.800,392.800 358.800 C 393.020 358.800,393.200 358.530,393.200 358.200 C 393.200 357.870,393.380 357.600,393.600 357.600 C 393.820 357.600,394.000 357.240,394.000 356.800 C 394.000 356.360,394.180 356.000,394.400 356.000 C 394.620 356.000,394.800 355.640,394.800 355.200 C 394.800 354.760,394.980 354.400,395.200 354.400 C 395.420 354.400,395.600 353.860,395.600 353.200 C 395.600 352.540,395.780 352.000,396.000 352.000 C 396.220 352.000,396.400 351.460,396.400 350.800 C 396.400 350.140,396.580 349.600,396.800 349.600 C 397.020 349.600,397.200 349.161,397.200 348.624 C 397.200 348.087,397.380 347.536,397.600 347.400 C 397.820 347.264,398.000 346.544,398.000 345.800 C 398.000 345.056,398.180 344.336,398.400 344.200 C 398.620 344.064,398.800 343.369,398.800 342.656 C 398.800 341.943,399.025 341.135,399.300 340.860 C 400.035 340.125,400.035 59.875,399.300 59.140 C 399.025 58.865,398.800 58.057,398.800 57.344 C 398.800 56.631,398.620 55.936,398.400 55.800 C 398.180 55.664,398.000 54.944,398.000 54.200 C 398.000 53.456,397.820 52.736,397.600 52.600 C 397.380 52.464,397.200 51.913,397.200 51.376 C 397.200 50.839,397.020 50.400,396.800 50.400 C 396.580 50.400,396.400 49.860,396.400 49.200 C 396.400 48.540,396.220 48.000,396.000 48.000 C 395.780 48.000,395.600 47.460,395.600 46.800 C 395.600 46.140,395.420 45.600,395.200 45.600 C 394.980 45.600,394.800 45.240,394.800 44.800 C 394.800 44.360,394.620 44.000,394.400 44.000 C 394.180 44.000,394.000 43.640,394.000 43.200 C 394.000 42.760,393.820 42.400,393.600 42.400 C 393.380 42.400,393.200 42.130,393.200 41.800 C 393.200 41.470,393.020 41.200,392.800 41.200 C 392.580 41.200,392.400 40.840,392.400 40.400 C 392.400 39.960,392.220 39.600,392.000 39.600 C 391.780 39.600,391.600 39.336,391.600 39.014 C 391.600 38.201,390.324 35.600,389.926 35.600 C 389.747 35.600,389.600 35.240,389.600 34.800 C 389.600 34.360,389.432 34.000,389.227 34.000 C 389.022 34.000,388.744 33.654,388.610 33.232 C 388.476 32.809,387.744 31.784,386.983 30.954 C 386.222 30.123,385.600 29.281,385.600 29.082 C 385.600 28.884,385.060 28.217,384.400 27.600 C 383.740 26.983,383.200 26.369,383.200 26.235 C 383.200 25.917,374.083 16.800,373.765 16.800 C 373.631 16.800,373.017 16.260,372.400 15.600 C 371.783 14.940,371.116 14.400,370.918 14.400 C 370.719 14.400,369.877 13.778,369.046 13.017 C 368.216 12.256,367.191 11.524,366.768 11.390 C 366.346 11.256,366.000 10.978,366.000 10.773 C 366.000 10.568,365.640 10.400,365.200 10.400 C 364.760 10.400,364.400 10.253,364.400 10.074 C 364.400 9.676,361.799 8.400,360.986 8.400 C 360.664 8.400,360.400 8.220,360.400 8.000 C 360.400 7.780,360.040 7.600,359.600 7.600 C 359.160 7.600,358.800 7.420,358.800 7.200 C 358.800 6.980,358.530 6.800,358.200 6.800 C 357.870 6.800,357.600 6.620,357.600 6.400 C 357.600 6.180,357.240 6.000,356.800 6.000 C 356.360 6.000,356.000 5.820,356.000 5.600 C 356.000 5.380,355.640 5.200,355.200 5.200 C 354.760 5.200,354.400 5.020,354.400 4.800 C 354.400 4.580,353.860 4.400,353.200 4.400 C 352.540 4.400,352.000 4.220,352.000 4.000 C 352.000 3.780,351.460 3.600,350.800 3.600 C 350.140 3.600,349.600 3.420,349.600 3.200 C 349.600 2.980,349.161 2.800,348.624 2.800 C 348.087 2.800,347.536 2.620,347.400 2.400 C 347.264 2.180,346.544 2.000,345.800 2.000 C 345.056 2.000,344.336 1.820,344.200 1.600 C 344.064 1.380,343.369 1.200,342.656 1.200 C 341.943 1.200,341.135 0.975,340.860 0.700 C 340.390 0.230,68.253 -0.166,61.600 0.294 M260.400 101.600 C 260.400 101.820,261.300 102.000,262.400 102.000 C 263.500 102.000,264.400 102.180,264.400 102.400 C 264.400 102.620,265.120 102.800,266.000 102.800 C 266.880 102.800,267.600 102.947,267.600 103.128 C 267.600 103.308,268.500 103.700,269.600 104.000 C 270.700 104.300,271.600 104.692,271.600 104.872 C 271.600 105.053,271.915 105.200,272.300 105.200 C 272.685 105.200,274.792 106.190,276.982 107.400 C 279.172 108.610,281.067 109.600,281.194 109.600 C 281.320 109.600,281.683 109.960,282.000 110.400 C 282.317 110.840,282.795 111.200,283.061 111.200 C 283.327 111.200,284.999 112.640,286.776 114.400 L 290.006 117.600 292.403 117.600 C 293.734 117.600,294.800 117.422,294.800 117.200 C 294.800 116.980,295.520 116.800,296.400 116.800 C 297.280 116.800,298.000 116.620,298.000 116.400 C 298.000 116.180,298.720 116.000,299.600 116.000 C 300.480 116.000,301.200 115.820,301.200 115.600 C 301.200 115.380,301.740 115.200,302.400 115.200 C 303.060 115.200,303.600 115.020,303.600 114.800 C 303.600 114.580,304.140 114.400,304.800 114.400 C 305.460 114.400,306.000 114.220,306.000 114.000 C 306.000 113.780,306.540 113.600,307.200 113.600 C 307.860 113.600,308.400 113.420,308.400 113.200 C 308.400 112.980,308.850 112.800,309.400 112.800 C 309.950 112.800,310.400 112.620,310.400 112.400 C 310.400 112.180,310.760 112.000,311.200 112.000 C 311.640 112.000,312.000 111.820,312.000 111.600 C 312.000 111.380,312.540 111.200,313.200 111.200 C 313.860 111.200,314.400 111.020,314.400 110.800 C 314.400 110.580,314.760 110.400,315.200 110.400 C 315.640 110.400,316.000 110.220,316.000 110.000 C 316.000 109.780,316.360 109.600,316.800 109.600 C 317.240 109.600,317.600 109.420,317.600 109.200 C 317.600 108.980,317.897 108.800,318.260 108.800 C 319.071 108.800,323.289 106.796,323.694 106.219 C 323.856 105.988,323.991 106.385,323.994 107.100 C 323.997 107.815,323.865 108.401,323.700 108.401 C 323.535 108.402,322.950 109.392,322.400 110.600 C 321.850 111.808,321.265 112.798,321.100 112.799 C 320.935 112.799,320.800 113.160,320.800 113.600 C 320.800 114.040,320.620 114.400,320.400 114.400 C 320.180 114.400,320.000 114.720,320.000 115.112 C 320.000 115.503,319.640 116.083,319.200 116.400 C 318.760 116.717,318.400 117.209,318.400 117.492 C 318.400 117.775,317.860 118.572,317.200 119.263 C 316.540 119.954,316.000 120.681,316.000 120.879 C 316.000 121.344,307.957 129.200,307.481 129.200 C 307.283 129.200,306.617 129.740,306.000 130.400 C 305.383 131.060,304.674 131.600,304.423 131.600 C 304.172 131.600,303.580 131.960,303.108 132.400 C 302.636 132.840,302.013 133.200,301.725 133.200 C 301.436 133.200,301.200 133.560,301.200 134.000 C 301.200 134.885,306.077 135.246,306.600 134.400 C 306.736 134.180,307.827 134.000,309.024 134.000 C 310.221 134.000,311.200 133.820,311.200 133.600 C 311.200 133.380,311.920 133.200,312.800 133.200 C 313.680 133.200,314.400 133.020,314.400 132.800 C 314.400 132.580,315.120 132.400,316.000 132.400 C 316.880 132.400,317.600 132.220,317.600 132.000 C 317.600 131.780,318.230 131.600,319.000 131.600 C 319.770 131.600,320.400 131.420,320.400 131.200 C 320.400 130.980,320.940 130.800,321.600 130.800 C 322.260 130.800,322.800 130.620,322.800 130.400 C 322.800 130.180,323.340 130.000,324.000 130.000 C 324.660 130.000,325.200 129.820,325.200 129.600 C 325.200 129.380,325.740 129.200,326.400 129.200 C 327.060 129.200,327.600 129.020,327.600 128.800 C 327.600 128.580,327.960 128.400,328.400 128.400 C 328.840 128.400,329.200 128.220,329.200 128.000 C 329.200 127.780,329.380 127.600,329.600 127.600 C 330.338 127.600,330.008 128.588,328.800 130.000 C 328.141 130.770,327.601 131.541,327.601 131.714 C 327.600 132.027,326.989 132.752,324.500 135.394 C 323.785 136.152,323.200 136.944,323.200 137.152 C 323.200 137.746,315.023 145.635,312.800 147.185 C 312.030 147.723,311.109 148.486,310.753 148.881 C 310.397 149.276,309.978 149.600,309.822 149.600 C 309.665 149.600,308.846 150.320,308.000 151.200 C 307.154 152.080,306.179 152.800,305.831 152.800 C 305.272 152.800,305.200 154.044,305.200 163.776 C 305.200 170.663,305.051 174.845,304.800 175.000 C 304.580 175.136,304.400 176.857,304.400 178.824 C 304.400 180.941,304.237 182.400,304.000 182.400 C 303.780 182.400,303.600 183.300,303.600 184.400 C 303.600 185.500,303.420 186.400,303.200 186.400 C 302.978 186.400,302.800 187.467,302.800 188.800 C 302.800 190.133,302.622 191.200,302.400 191.200 C 302.180 191.200,302.000 191.909,302.000 192.776 C 302.000 193.643,301.820 194.464,301.600 194.600 C 301.380 194.736,301.200 195.366,301.200 196.000 C 301.200 196.634,301.020 197.264,300.800 197.400 C 300.580 197.536,300.400 198.256,300.400 199.000 C 300.400 199.744,300.220 200.464,300.000 200.600 C 299.780 200.736,299.600 201.456,299.600 202.200 C 299.600 202.944,299.420 203.664,299.200 203.800 C 298.980 203.936,298.800 204.476,298.800 205.000 C 298.800 205.524,298.620 206.064,298.400 206.200 C 298.180 206.336,298.000 206.876,298.000 207.400 C 298.000 207.924,297.820 208.464,297.600 208.600 C 297.380 208.736,297.200 209.276,297.200 209.800 C 297.200 210.324,297.020 210.864,296.800 211.000 C 296.580 211.136,296.400 211.599,296.400 212.029 C 296.400 212.459,296.220 213.168,296.000 213.605 C 295.780 214.042,295.420 214.758,295.200 215.195 C 294.980 215.632,294.800 216.352,294.800 216.795 C 294.800 217.238,294.620 217.600,294.400 217.600 C 294.180 217.600,294.000 217.872,294.000 218.205 C 294.000 218.538,293.820 219.168,293.600 219.605 C 292.629 221.534,292.486 221.897,292.220 223.109 C 292.065 223.814,291.772 224.494,291.569 224.619 C 291.366 224.745,291.200 225.197,291.200 225.624 C 291.200 226.051,291.020 226.400,290.800 226.400 C 290.580 226.400,290.400 226.760,290.400 227.200 C 290.400 227.640,290.254 228.000,290.075 228.000 C 289.896 228.000,289.502 228.630,289.200 229.400 C 288.898 230.170,288.504 230.800,288.325 230.800 C 288.146 230.800,288.000 231.160,288.000 231.600 C 288.000 232.040,287.820 232.400,287.600 232.400 C 287.380 232.400,287.200 232.760,287.200 233.200 C 287.200 233.640,287.020 234.000,286.800 234.000 C 286.580 234.000,286.400 234.360,286.400 234.800 C 286.400 235.240,286.220 235.600,286.000 235.600 C 285.780 235.600,285.600 235.960,285.600 236.400 C 285.600 236.840,285.420 237.200,285.200 237.200 C 284.980 237.200,284.800 237.520,284.800 237.912 C 284.800 238.303,284.440 238.883,284.000 239.200 C 283.560 239.517,283.200 240.097,283.200 240.488 C 283.200 240.880,283.020 241.200,282.800 241.200 C 282.580 241.200,282.400 241.436,282.400 241.725 C 282.400 242.013,282.040 242.636,281.600 243.108 C 281.160 243.580,280.800 244.154,280.800 244.383 C 280.800 244.612,280.620 244.800,280.400 244.800 C 280.180 244.800,280.000 245.120,280.000 245.512 C 280.000 245.903,279.640 246.483,279.200 246.800 C 278.760 247.117,278.398 247.562,278.395 247.788 C 278.392 248.015,278.031 248.650,277.592 249.200 C 276.276 250.852,274.800 253.208,274.800 253.657 C 274.800 253.889,274.260 254.583,273.600 255.200 C 272.940 255.817,272.400 256.514,272.400 256.750 C 272.400 256.986,271.635 257.978,270.700 258.954 C 267.741 262.042,266.204 263.790,265.191 265.216 C 264.651 265.977,263.126 267.707,261.804 269.060 C 260.482 270.413,258.654 272.303,257.743 273.260 C 255.313 275.812,251.617 279.200,251.263 279.200 C 251.094 279.200,249.835 280.280,248.465 281.600 C 247.095 282.920,245.827 284.000,245.646 284.000 C 245.466 284.000,244.754 284.540,244.063 285.200 C 243.372 285.860,242.698 286.400,242.564 286.400 C 242.430 286.400,241.817 286.940,241.200 287.600 C 240.583 288.260,239.831 288.800,239.528 288.800 C 239.225 288.800,238.717 289.160,238.400 289.600 C 238.083 290.040,237.503 290.400,237.112 290.400 C 236.720 290.400,236.400 290.559,236.400 290.754 C 236.400 290.949,235.725 291.426,234.900 291.814 C 234.075 292.201,233.310 292.627,233.200 292.759 C 233.090 292.892,232.190 293.437,231.200 293.970 C 230.210 294.504,229.310 295.046,229.200 295.176 C 229.090 295.305,228.100 295.858,227.000 296.405 C 225.900 296.952,224.940 297.535,224.867 297.700 C 224.793 297.865,224.388 298.000,223.967 298.000 C 223.545 298.000,223.200 298.180,223.200 298.400 C 223.200 298.620,222.840 298.800,222.400 298.800 C 221.960 298.800,221.600 298.980,221.600 299.200 C 221.600 299.420,221.240 299.600,220.800 299.600 C 220.360 299.600,220.000 299.780,220.000 300.000 C 220.000 300.220,219.640 300.400,219.200 300.400 C 218.760 300.400,218.400 300.580,218.400 300.800 C 218.400 301.020,218.040 301.200,217.600 301.200 C 217.160 301.200,216.800 301.380,216.800 301.600 C 216.800 301.820,216.440 302.000,216.000 302.000 C 215.560 302.000,215.200 302.180,215.200 302.400 C 215.200 302.620,214.750 302.800,214.200 302.800 C 213.650 302.800,213.200 302.980,213.200 303.200 C 213.200 303.420,212.750 303.600,212.200 303.600 C 211.650 303.600,211.200 303.780,211.200 304.000 C 211.200 304.220,210.840 304.400,210.400 304.400 C 209.960 304.400,209.600 304.580,209.600 304.800 C 209.600 305.020,209.150 305.200,208.600 305.200 C 208.050 305.200,207.600 305.380,207.600 305.600 C 207.600 305.820,207.240 306.000,206.800 306.000 C 206.360 306.000,206.000 306.180,206.000 306.400 C 206.000 306.620,205.460 306.800,204.800 306.800 C 204.140 306.800,203.600 306.980,203.600 307.200 C 203.600 307.420,203.060 307.600,202.400 307.600 C 201.740 307.600,201.200 307.780,201.200 308.000 C 201.200 308.220,200.717 308.400,200.126 308.400 C 199.089 308.400,195.041 309.352,193.400 309.982 C 191.302 310.787,189.632 311.200,188.472 311.200 C 187.772 311.200,187.200 311.380,187.200 311.600 C 187.200 311.820,186.401 312.000,185.424 312.000 C 184.447 312.000,183.536 312.180,183.400 312.400 C 183.264 312.620,182.454 312.800,181.600 312.800 C 180.746 312.800,179.936 312.980,179.800 313.200 C 179.664 313.420,178.483 313.600,177.176 313.600 C 175.859 313.600,174.800 313.778,174.800 314.000 C 174.800 314.233,173.467 314.400,171.600 314.400 C 169.733 314.400,168.400 314.567,168.400 314.800 C 168.400 315.047,166.293 315.200,162.880 315.200 C 159.569 315.200,157.192 315.368,156.941 315.619 C 156.287 316.273,133.200 315.454,133.200 314.776 C 133.200 314.569,131.760 314.400,130.000 314.400 C 128.133 314.400,126.800 314.233,126.800 314.000 C 126.800 313.780,125.911 313.600,124.824 313.600 C 123.737 313.600,122.736 313.420,122.600 313.200 C 122.464 312.980,121.474 312.800,120.400 312.800 C 119.326 312.800,118.336 312.620,118.200 312.400 C 118.064 312.180,117.344 312.000,116.600 312.000 C 115.856 312.000,115.136 311.820,115.000 311.600 C 114.864 311.380,114.144 311.200,113.400 311.200 C 112.656 311.200,111.936 311.020,111.800 310.800 C 111.664 310.580,111.021 310.400,110.371 310.400 C 109.721 310.400,108.877 310.237,108.495 310.037 C 107.472 309.502,103.622 308.400,102.778 308.400 C 102.376 308.400,101.936 308.220,101.800 308.000 C 101.664 307.780,101.124 307.600,100.600 307.600 C 100.076 307.600,99.536 307.420,99.400 307.200 C 99.264 306.980,98.713 306.800,98.176 306.800 C 97.639 306.800,97.200 306.620,97.200 306.400 C 97.200 306.180,96.660 306.000,96.000 306.000 C 95.340 306.000,94.800 305.820,94.800 305.600 C 94.800 305.380,94.440 305.200,94.000 305.200 C 93.560 305.200,93.200 305.020,93.200 304.800 C 93.200 304.580,92.750 304.400,92.200 304.400 C 91.650 304.400,91.200 304.220,91.200 304.000 C 91.200 303.780,90.840 303.600,90.400 303.600 C 89.960 303.600,89.600 303.420,89.600 303.200 C 89.600 302.980,89.150 302.800,88.600 302.800 C 88.050 302.800,87.600 302.620,87.600 302.400 C 87.600 302.180,87.355 302.000,87.055 302.000 C 86.486 302.000,75.551 296.523,75.201 296.062 C 75.090 295.917,74.460 295.529,73.800 295.200 C 73.140 294.871,72.510 294.496,72.400 294.366 C 72.290 294.237,71.840 293.927,71.400 293.678 C 70.788 293.331,73.159 293.221,81.476 293.212 C 88.282 293.205,92.445 293.050,92.600 292.800 C 92.736 292.580,94.187 292.400,95.824 292.400 C 97.461 292.400,98.800 292.245,98.800 292.055 C 98.800 291.865,100.372 291.582,102.293 291.427 C 104.215 291.271,105.970 290.999,106.193 290.822 C 106.575 290.520,107.603 290.273,110.700 289.737 C 111.415 289.614,112.000 289.352,112.000 289.156 C 112.000 288.960,112.529 288.800,113.176 288.800 C 113.823 288.800,114.464 288.620,114.600 288.400 C 114.736 288.180,115.276 288.000,115.800 288.000 C 116.324 288.000,116.864 287.820,117.000 287.600 C 117.136 287.380,117.687 287.200,118.224 287.200 C 118.761 287.200,119.200 287.020,119.200 286.800 C 119.200 286.580,119.472 286.400,119.805 286.400 C 120.138 286.400,120.723 286.241,121.105 286.047 C 121.487 285.852,122.250 285.513,122.800 285.293 C 125.470 284.226,134.000 279.847,134.000 279.544 C 134.000 279.355,134.360 279.200,134.800 279.200 C 135.240 279.200,135.600 279.020,135.600 278.800 C 135.600 278.580,135.836 278.400,136.125 278.400 C 136.413 278.400,137.036 278.040,137.508 277.600 C 137.980 277.160,138.644 276.800,138.983 276.800 C 139.322 276.800,139.600 276.620,139.600 276.400 C 139.600 276.180,139.788 276.000,140.017 276.000 C 140.409 276.000,140.862 275.687,142.185 274.500 C 142.492 274.225,142.891 274.000,143.071 274.000 C 143.252 273.999,143.923 273.549,144.562 273.000 C 145.201 272.450,145.849 272.000,146.001 272.000 C 146.736 272.000,148.000 270.389,148.000 269.453 L 148.000 268.400 143.800 268.400 C 141.267 268.400,139.600 268.241,139.600 268.000 C 139.600 267.780,138.880 267.600,138.000 267.600 C 137.120 267.600,136.400 267.420,136.400 267.200 C 136.400 266.980,135.680 266.800,134.800 266.800 C 133.920 266.800,133.200 266.620,133.200 266.400 C 133.200 266.180,132.660 266.000,132.000 266.000 C 131.340 266.000,130.800 265.820,130.800 265.600 C 130.800 265.380,130.440 265.200,130.000 265.200 C 129.560 265.200,129.200 265.053,129.200 264.872 C 129.200 264.692,128.300 264.300,127.200 264.000 C 126.100 263.700,125.200 263.308,125.200 263.128 C 125.200 262.947,125.007 262.800,124.772 262.800 C 124.537 262.800,123.559 262.260,122.600 261.600 C 121.641 260.940,120.663 260.400,120.428 260.400 C 120.193 260.400,120.000 260.242,120.000 260.049 C 120.000 259.855,119.433 259.462,118.740 259.175 C 118.047 258.888,116.883 258.056,116.153 257.327 C 115.424 256.597,114.662 256.000,114.460 256.000 C 113.882 256.000,109.122 251.180,107.852 249.309 C 107.220 248.379,106.230 247.115,105.652 246.502 C 105.073 245.888,104.331 244.849,104.003 244.193 C 103.674 243.537,103.089 242.709,102.703 242.353 C 102.316 241.997,102.000 241.412,102.000 241.053 C 102.000 240.694,101.820 240.400,101.600 240.400 C 101.380 240.400,101.200 240.040,101.200 239.600 C 101.200 239.160,101.020 238.800,100.800 238.800 C 100.580 238.800,100.400 238.440,100.400 238.000 C 100.400 237.560,100.220 237.200,100.000 237.200 C 99.780 237.200,99.600 236.840,99.600 236.400 C 99.600 235.960,99.420 235.600,99.200 235.600 C 98.980 235.600,98.800 235.060,98.800 234.400 C 98.800 233.740,98.620 233.200,98.400 233.200 C 98.180 233.200,98.000 233.020,98.000 232.800 C 98.000 232.580,98.720 232.400,99.600 232.400 C 100.480 232.400,101.200 232.580,101.200 232.800 C 101.200 233.049,103.459 233.200,107.176 233.200 C 110.729 233.200,113.253 233.038,113.400 232.800 C 113.536 232.580,114.357 232.400,115.224 232.400 C 116.091 232.400,116.800 232.220,116.800 232.000 C 116.800 231.780,117.712 231.600,118.827 231.600 C 120.801 231.600,120.850 231.572,120.727 230.500 C 120.593 229.337,120.869 229.445,115.700 228.540 C 114.985 228.415,114.400 228.152,114.400 227.956 C 114.400 227.760,113.875 227.600,113.233 227.600 C 112.592 227.600,112.007 227.465,111.933 227.300 C 111.809 227.021,109.572 226.094,106.500 225.047 C 105.785 224.804,105.200 224.468,105.200 224.302 C 105.200 224.136,104.922 224.000,104.583 224.000 C 104.244 224.000,103.580 223.640,103.108 223.200 C 102.636 222.760,102.013 222.400,101.725 222.400 C 101.436 222.400,101.200 222.250,101.200 222.068 C 101.200 221.885,100.708 221.480,100.107 221.168 C 99.506 220.855,98.489 220.105,97.848 219.500 C 97.206 218.895,96.518 218.400,96.319 218.400 C 95.795 218.400,88.000 210.294,88.000 209.750 C 88.000 209.624,87.460 209.017,86.800 208.400 C 86.140 207.783,85.600 207.031,85.600 206.728 C 85.600 206.425,85.240 205.917,84.800 205.600 C 84.360 205.283,84.000 204.743,84.000 204.400 C 84.000 204.057,83.640 203.517,83.200 203.200 C 82.760 202.883,82.400 202.303,82.400 201.912 C 82.400 201.520,82.220 201.200,82.000 201.200 C 81.780 201.200,81.600 200.840,81.600 200.400 C 81.600 199.960,81.420 199.600,81.200 199.600 C 80.980 199.600,80.800 199.240,80.800 198.800 C 80.800 198.360,80.620 198.000,80.400 198.000 C 80.180 198.000,80.000 197.728,80.000 197.395 C 80.000 197.062,79.820 196.432,79.600 195.995 C 79.380 195.558,79.020 194.842,78.800 194.405 C 78.580 193.968,78.400 193.248,78.400 192.805 C 78.400 192.362,78.220 192.000,78.000 192.000 C 77.780 192.000,77.600 191.471,77.600 190.824 C 77.600 190.177,77.420 189.536,77.200 189.400 C 76.980 189.264,76.800 188.353,76.800 187.376 C 76.800 186.399,76.620 185.600,76.400 185.600 C 76.160 185.600,76.000 184.000,76.000 181.600 C 76.000 179.200,76.160 177.600,76.400 177.600 C 76.620 177.600,76.800 177.780,76.800 178.000 C 76.800 178.220,77.149 178.400,77.576 178.400 C 78.003 178.400,78.464 178.580,78.600 178.800 C 78.736 179.020,79.287 179.200,79.824 179.200 C 80.361 179.200,80.800 179.380,80.800 179.600 C 80.800 179.820,81.239 180.000,81.776 180.000 C 82.313 180.000,82.864 180.180,83.000 180.400 C 83.136 180.620,83.777 180.800,84.424 180.800 C 85.071 180.800,85.600 180.980,85.600 181.200 C 85.600 181.420,86.140 181.600,86.800 181.600 C 87.460 181.600,88.000 181.780,88.000 182.000 C 88.000 182.220,88.900 182.400,90.000 182.400 C 91.100 182.400,92.000 182.580,92.000 182.800 C 92.000 183.024,93.107 183.200,94.520 183.200 C 95.906 183.200,97.231 183.391,97.464 183.624 C 98.008 184.168,101.690 183.943,101.884 183.355 C 102.043 182.870,99.356 180.000,98.742 180.000 C 98.534 180.000,97.956 179.595,97.458 179.100 C 96.960 178.605,95.968 177.750,95.254 177.200 C 94.540 176.650,93.578 175.885,93.117 175.500 C 92.655 175.115,92.147 174.800,91.987 174.800 C 91.828 174.800,91.489 174.298,91.235 173.685 C 90.981 173.072,90.067 171.798,89.204 170.853 C 88.340 169.908,87.524 168.790,87.390 168.368 C 87.256 167.945,86.978 167.600,86.773 167.600 C 86.568 167.600,86.400 167.280,86.400 166.888 C 86.400 166.497,86.040 165.917,85.600 165.600 C 85.160 165.283,84.800 164.703,84.800 164.312 C 84.800 163.920,84.620 163.600,84.400 163.600 C 84.180 163.600,84.000 163.240,84.000 162.800 C 84.000 162.360,83.820 162.000,83.600 162.000 C 83.380 162.000,83.200 161.640,83.200 161.200 C 83.200 160.760,83.020 160.400,82.800 160.400 C 82.580 160.400,82.400 159.950,82.400 159.400 C 82.400 158.850,82.220 158.400,82.000 158.400 C 81.780 158.400,81.600 158.040,81.600 157.600 C 81.600 157.160,81.420 156.800,81.200 156.800 C 80.980 156.800,80.800 156.181,80.800 155.424 C 80.800 154.667,80.620 153.936,80.400 153.800 C 80.180 153.664,80.000 153.023,80.000 152.376 C 80.000 151.729,79.820 151.200,79.600 151.200 C 79.380 151.200,79.200 150.221,79.200 149.024 C 79.200 147.827,79.020 146.736,78.800 146.600 C 78.256 146.264,78.256 129.200,78.800 129.200 C 79.020 129.200,79.200 128.300,79.200 127.200 C 79.200 126.100,79.380 125.200,79.600 125.200 C 79.820 125.200,80.000 124.570,80.000 123.800 C 80.000 123.030,80.180 122.400,80.400 122.400 C 80.620 122.400,80.800 121.950,80.800 121.400 C 80.800 120.850,80.980 120.400,81.200 120.400 C 81.420 120.400,81.600 119.961,81.600 119.424 C 81.600 118.887,81.780 118.336,82.000 118.200 C 82.220 118.064,82.400 117.513,82.400 116.976 C 82.400 116.439,82.580 116.000,82.800 116.000 C 83.020 116.000,83.200 115.640,83.200 115.200 C 83.200 114.760,83.380 114.400,83.600 114.400 C 83.820 114.400,84.000 114.040,84.000 113.600 C 84.000 113.160,84.180 112.800,84.400 112.800 C 84.620 112.800,84.800 112.514,84.800 112.165 C 84.800 111.786,85.765 112.510,87.200 113.968 C 88.520 115.308,89.600 116.492,89.600 116.598 C 89.600 117.267,97.522 125.367,99.590 126.812 C 100.355 127.346,102.036 128.822,103.325 130.092 C 104.615 131.361,105.840 132.400,106.048 132.400 C 106.256 132.400,107.026 132.985,107.758 133.700 C 109.387 135.291,112.370 137.742,112.943 137.961 C 113.174 138.049,113.721 138.454,114.157 138.861 C 114.594 139.267,115.187 139.600,115.475 139.600 C 115.764 139.600,116.000 139.759,116.000 139.954 C 116.000 140.149,116.664 140.624,117.475 141.009 C 118.286 141.394,119.310 142.044,119.751 142.454 C 120.191 142.864,120.787 143.200,121.075 143.200 C 121.364 143.200,121.600 143.380,121.600 143.600 C 121.600 143.820,121.920 144.000,122.312 144.000 C 122.703 144.000,123.283 144.360,123.600 144.800 C 123.917 145.240,124.497 145.600,124.888 145.600 C 125.280 145.600,125.600 145.780,125.600 146.000 C 125.600 146.220,125.870 146.400,126.200 146.400 C 126.530 146.400,126.800 146.580,126.800 146.800 C 126.800 147.020,127.070 147.200,127.400 147.200 C 127.730 147.200,128.000 147.380,128.000 147.600 C 128.000 147.820,128.270 148.000,128.600 148.000 C 128.930 148.000,129.200 148.180,129.200 148.400 C 129.200 148.620,129.560 148.800,130.000 148.800 C 130.440 148.800,130.800 148.980,130.800 149.200 C 130.800 149.420,131.160 149.600,131.600 149.600 C 132.040 149.600,132.400 149.780,132.400 150.000 C 132.400 150.220,132.760 150.400,133.200 150.400 C 133.640 150.400,134.000 150.580,134.000 150.800 C 134.000 151.020,134.360 151.200,134.800 151.200 C 135.240 151.200,135.600 151.380,135.600 151.600 C 135.600 151.820,135.960 152.000,136.400 152.000 C 136.840 152.000,137.200 152.180,137.200 152.400 C 137.200 152.620,137.560 152.800,138.000 152.800 C 138.440 152.800,138.800 152.980,138.800 153.200 C 138.800 153.420,139.160 153.600,139.600 153.600 C 140.040 153.600,140.400 153.780,140.400 154.000 C 140.400 154.220,140.760 154.400,141.200 154.400 C 141.640 154.400,142.000 154.580,142.000 154.800 C 142.000 155.020,142.320 155.200,142.710 155.200 C 143.101 155.200,144.496 155.734,145.810 156.387 C 147.125 157.041,148.504 157.581,148.876 157.587 C 149.248 157.594,149.651 157.759,149.771 157.954 C 149.892 158.148,150.802 158.429,151.795 158.578 C 152.788 158.727,153.600 159.018,153.600 159.225 C 153.600 159.431,154.140 159.600,154.800 159.600 C 155.460 159.600,156.000 159.780,156.000 160.000 C 156.000 160.220,156.540 160.400,157.200 160.400 C 157.860 160.400,158.400 160.580,158.400 160.800 C 158.400 161.020,159.030 161.200,159.800 161.200 C 160.570 161.200,161.200 161.380,161.200 161.600 C 161.200 161.820,161.740 162.000,162.400 162.000 C 163.060 162.000,163.600 162.180,163.600 162.400 C 163.600 162.620,164.320 162.800,165.200 162.800 C 166.080 162.800,166.800 162.980,166.800 163.200 C 166.800 163.420,167.520 163.600,168.400 163.600 C 169.280 163.600,170.000 163.780,170.000 164.000 C 170.000 164.220,170.720 164.400,171.600 164.400 C 172.480 164.400,173.200 164.580,173.200 164.800 C 173.200 165.020,174.190 165.200,175.400 165.200 C 176.610 165.200,177.600 165.380,177.600 165.600 C 177.600 165.822,178.667 166.000,180.000 166.000 C 181.333 166.000,182.400 166.178,182.400 166.400 C 182.400 166.628,183.592 166.800,185.176 166.800 C 186.703 166.800,188.064 166.980,188.200 167.200 C 188.344 167.433,190.604 167.600,193.624 167.600 L 198.800 167.600 198.800 166.400 C 198.800 165.740,198.620 165.200,198.400 165.200 C 198.174 165.200,198.000 164.067,198.000 162.600 C 198.000 161.133,197.826 160.000,197.600 160.000 C 197.354 160.000,197.200 158.000,197.200 154.800 C 197.200 151.600,197.354 149.600,197.600 149.600 C 197.829 149.600,198.000 148.400,198.000 146.800 C 198.000 145.200,198.171 144.000,198.400 144.000 C 198.620 144.000,198.800 143.280,198.800 142.400 C 198.800 141.520,198.980 140.800,199.200 140.800 C 199.420 140.800,199.600 140.348,199.600 139.795 C 199.600 139.242,199.780 138.432,200.000 137.995 C 200.220 137.558,200.580 136.842,200.800 136.405 C 201.020 135.968,201.200 135.248,201.200 134.805 C 201.200 134.362,201.380 134.000,201.600 134.000 C 201.820 134.000,202.000 133.640,202.000 133.200 C 202.000 132.760,202.180 132.400,202.400 132.400 C 202.620 132.400,202.800 132.040,202.800 131.600 C 202.800 131.160,202.980 130.800,203.200 130.800 C 203.420 130.800,203.600 130.440,203.600 130.000 C 203.600 129.560,203.780 129.200,204.000 129.200 C 204.220 129.200,204.400 128.840,204.400 128.400 C 204.400 127.960,204.551 127.600,204.736 127.600 C 204.920 127.600,205.280 127.143,205.534 126.585 C 205.788 126.027,206.180 125.352,206.404 125.085 C 207.822 123.395,209.593 120.950,209.596 120.677 C 209.602 120.205,217.194 112.800,217.673 112.800 C 217.896 112.800,218.583 112.260,219.200 111.600 C 219.817 110.940,220.543 110.400,220.814 110.400 C 221.084 110.400,221.597 110.082,221.953 109.693 C 222.309 109.303,223.363 108.628,224.295 108.193 C 225.228 107.757,225.993 107.265,225.995 107.100 C 225.998 106.935,226.360 106.800,226.800 106.800 C 227.240 106.800,227.600 106.620,227.600 106.400 C 227.600 106.180,227.960 106.000,228.400 106.000 C 228.840 106.000,229.200 105.820,229.200 105.600 C 229.200 105.380,229.549 105.200,229.976 105.200 C 230.403 105.200,230.864 105.020,231.000 104.800 C 231.136 104.580,231.687 104.400,232.224 104.400 C 232.761 104.400,233.200 104.220,233.200 104.000 C 233.200 103.780,233.740 103.600,234.400 103.600 C 235.060 103.600,235.600 103.420,235.600 103.200 C 235.600 102.980,236.219 102.800,236.976 102.800 C 237.733 102.800,238.464 102.620,238.600 102.400 C 238.736 102.180,239.647 102.000,240.624 102.000 C 241.601 102.000,242.400 101.820,242.400 101.600 C 242.400 101.345,245.667 101.200,251.400 101.200 C 257.133 101.200,260.400 101.345,260.400 101.600 " stroke="none" fill="#040404" fill-rule="evenodd"></path><path id="path1" d="" stroke="none" fill="#080404" fill-rule="evenodd"></path><path id="path2" d="" stroke="none" fill="#080404" fill-rule="evenodd"></path><path id="path3" d="" stroke="none" fill="#080404" fill-rule="evenodd"></path><path id="path4" d="" stroke="none" fill="#080404" fill-rule="evenodd"></path></g></svg>